%TF.GenerationSoftware,KiCad,Pcbnew,7.0.0*%
%TF.CreationDate,2023-03-27T16:14:08-06:00*%
%TF.ProjectId,FPGA_2,46504741-5f32-42e6-9b69-6361645f7063,rev?*%
%TF.SameCoordinates,Original*%
%TF.FileFunction,Soldermask,Bot*%
%TF.FilePolarity,Negative*%
%FSLAX46Y46*%
G04 Gerber Fmt 4.6, Leading zero omitted, Abs format (unit mm)*
G04 Created by KiCad (PCBNEW 7.0.0) date 2023-03-27 16:14:08*
%MOMM*%
%LPD*%
G01*
G04 APERTURE LIST*
G04 Aperture macros list*
%AMRoundRect*
0 Rectangle with rounded corners*
0 $1 Rounding radius*
0 $2 $3 $4 $5 $6 $7 $8 $9 X,Y pos of 4 corners*
0 Add a 4 corners polygon primitive as box body*
4,1,4,$2,$3,$4,$5,$6,$7,$8,$9,$2,$3,0*
0 Add four circle primitives for the rounded corners*
1,1,$1+$1,$2,$3*
1,1,$1+$1,$4,$5*
1,1,$1+$1,$6,$7*
1,1,$1+$1,$8,$9*
0 Add four rect primitives between the rounded corners*
20,1,$1+$1,$2,$3,$4,$5,0*
20,1,$1+$1,$4,$5,$6,$7,0*
20,1,$1+$1,$6,$7,$8,$9,0*
20,1,$1+$1,$8,$9,$2,$3,0*%
G04 Aperture macros list end*
%ADD10R,2.600000X2.600000*%
%ADD11C,2.600000*%
%ADD12R,1.700000X1.700000*%
%ADD13O,1.700000X1.700000*%
%ADD14C,1.700000*%
%ADD15R,1.350000X1.350000*%
%ADD16O,1.350000X1.350000*%
%ADD17RoundRect,0.250000X-0.845000X0.620000X-0.845000X-0.620000X0.845000X-0.620000X0.845000X0.620000X0*%
%ADD18O,2.190000X1.740000*%
%ADD19C,3.600000*%
%ADD20C,6.400000*%
%ADD21RoundRect,0.140000X0.140000X0.170000X-0.140000X0.170000X-0.140000X-0.170000X0.140000X-0.170000X0*%
%ADD22RoundRect,0.135000X0.135000X0.185000X-0.135000X0.185000X-0.135000X-0.185000X0.135000X-0.185000X0*%
%ADD23RoundRect,0.150000X0.150000X-0.512500X0.150000X0.512500X-0.150000X0.512500X-0.150000X-0.512500X0*%
%ADD24RoundRect,0.140000X-0.170000X0.140000X-0.170000X-0.140000X0.170000X-0.140000X0.170000X0.140000X0*%
%ADD25RoundRect,0.135000X-0.135000X-0.185000X0.135000X-0.185000X0.135000X0.185000X-0.135000X0.185000X0*%
%ADD26RoundRect,0.135000X0.185000X-0.135000X0.185000X0.135000X-0.185000X0.135000X-0.185000X-0.135000X0*%
%ADD27RoundRect,0.140000X-0.140000X-0.170000X0.140000X-0.170000X0.140000X0.170000X-0.140000X0.170000X0*%
%ADD28RoundRect,0.250000X0.900000X-1.000000X0.900000X1.000000X-0.900000X1.000000X-0.900000X-1.000000X0*%
%ADD29RoundRect,0.140000X0.170000X-0.140000X0.170000X0.140000X-0.170000X0.140000X-0.170000X-0.140000X0*%
%ADD30R,4.200000X2.400000*%
%ADD31RoundRect,0.225000X-0.250000X0.225000X-0.250000X-0.225000X0.250000X-0.225000X0.250000X0.225000X0*%
%ADD32RoundRect,0.075000X0.075000X-0.662500X0.075000X0.662500X-0.075000X0.662500X-0.075000X-0.662500X0*%
%ADD33RoundRect,0.075000X0.662500X-0.075000X0.662500X0.075000X-0.662500X0.075000X-0.662500X-0.075000X0*%
%ADD34RoundRect,0.150000X0.650000X0.150000X-0.650000X0.150000X-0.650000X-0.150000X0.650000X-0.150000X0*%
G04 APERTURE END LIST*
D10*
%TO.C,J10*%
X64375551Y-138049999D03*
D11*
X58375552Y-138050000D03*
X61375552Y-142750000D03*
%TD*%
D12*
%TO.C,J4*%
X122950551Y-110399999D03*
D13*
X125490551Y-110399999D03*
X128030551Y-110399999D03*
X130570551Y-110399999D03*
X133110551Y-110399999D03*
X135650551Y-110399999D03*
D14*
X122950552Y-107860000D03*
D13*
X125490551Y-107859999D03*
X128030551Y-107859999D03*
X130570551Y-107859999D03*
X133110551Y-107859999D03*
X135650551Y-107859999D03*
%TD*%
D12*
%TO.C,J11*%
X122950551Y-143224999D03*
D13*
X125490551Y-143224999D03*
X128030551Y-143224999D03*
X130570551Y-143224999D03*
X133110551Y-143224999D03*
X135650551Y-143224999D03*
%TD*%
D12*
%TO.C,J9*%
X122950551Y-135399999D03*
D13*
X125490551Y-135399999D03*
X128030551Y-135399999D03*
X130570551Y-135399999D03*
X133110551Y-135399999D03*
X135650551Y-135399999D03*
D14*
X122950552Y-132860000D03*
D13*
X125490551Y-132859999D03*
X128030551Y-132859999D03*
X130570551Y-132859999D03*
X133110551Y-132859999D03*
X135650551Y-132859999D03*
%TD*%
D15*
%TO.C,J8*%
X54275551Y-125849999D03*
D16*
X54275551Y-127849999D03*
X56275551Y-125849999D03*
X56275551Y-127849999D03*
X58275551Y-125849999D03*
X58275551Y-127849999D03*
X60275551Y-125849999D03*
X60275551Y-127849999D03*
X62275551Y-125849999D03*
X62275551Y-127849999D03*
X64275551Y-125849999D03*
X64275551Y-127849999D03*
X66275551Y-125849999D03*
X66275551Y-127849999D03*
X68275551Y-125849999D03*
X68275551Y-127849999D03*
X70275551Y-125849999D03*
X70275551Y-127849999D03*
X72275551Y-125849999D03*
X72275551Y-127849999D03*
%TD*%
D12*
%TO.C,J13*%
X84200551Y-150949999D03*
D13*
X86740551Y-150949999D03*
X89280551Y-150949999D03*
X91820551Y-150949999D03*
X94360551Y-150949999D03*
X96900551Y-150949999D03*
X99440551Y-150949999D03*
X101980551Y-150949999D03*
%TD*%
D12*
%TO.C,J1*%
X113550551Y-99724999D03*
D13*
X116090551Y-99724999D03*
X118630551Y-99724999D03*
X121170551Y-99724999D03*
X123710551Y-99724999D03*
X126250551Y-99724999D03*
%TD*%
D17*
%TO.C,J14*%
X63155552Y-146680000D03*
D18*
X63155551Y-149219999D03*
%TD*%
D12*
%TO.C,J12*%
X113550551Y-150524999D03*
D13*
X116090551Y-150524999D03*
X118630551Y-150524999D03*
X121170551Y-150524999D03*
X123710551Y-150524999D03*
X126250551Y-150524999D03*
%TD*%
D19*
%TO.C,H2*%
X133275552Y-101550000D03*
D20*
X133275552Y-101550000D03*
%TD*%
D19*
%TO.C,H4*%
X133275552Y-149550000D03*
D20*
X133275552Y-149550000D03*
%TD*%
D12*
%TO.C,J2*%
X62735551Y-99849999D03*
D13*
X65275551Y-99849999D03*
X67815551Y-99849999D03*
X70355551Y-99849999D03*
X72895551Y-99849999D03*
X75435551Y-99849999D03*
%TD*%
D12*
%TO.C,J3*%
X82950551Y-99924999D03*
D13*
X85490551Y-99924999D03*
X88030551Y-99924999D03*
X90570551Y-99924999D03*
X93110551Y-99924999D03*
X95650551Y-99924999D03*
%TD*%
D19*
%TO.C,H3*%
X56275552Y-149550000D03*
D20*
X56275552Y-149550000D03*
%TD*%
D12*
%TO.C,J7*%
X122950551Y-122899999D03*
D13*
X125490551Y-122899999D03*
X128030551Y-122899999D03*
X130570551Y-122899999D03*
X133110551Y-122899999D03*
X135650551Y-122899999D03*
D14*
X122950552Y-120360000D03*
D13*
X125490551Y-120359999D03*
X128030551Y-120359999D03*
X130570551Y-120359999D03*
X133110551Y-120359999D03*
X135650551Y-120359999D03*
%TD*%
D19*
%TO.C,H1*%
X56275552Y-101550000D03*
D20*
X56275552Y-101550000D03*
%TD*%
D15*
%TO.C,J5*%
X54275551Y-110949999D03*
D16*
X54275551Y-112949999D03*
X56275551Y-110949999D03*
X56275551Y-112949999D03*
X58275551Y-110949999D03*
X58275551Y-112949999D03*
X60275551Y-110949999D03*
X60275551Y-112949999D03*
X62275551Y-110949999D03*
X62275551Y-112949999D03*
X64275551Y-110949999D03*
X64275551Y-112949999D03*
X66275551Y-110949999D03*
X66275551Y-112949999D03*
X68275551Y-110949999D03*
X68275551Y-112949999D03*
X70275551Y-110949999D03*
X70275551Y-112949999D03*
X72275551Y-110949999D03*
X72275551Y-112949999D03*
%TD*%
D21*
%TO.C,C111*%
X105655552Y-131950000D03*
X104695552Y-131950000D03*
%TD*%
%TO.C,C106*%
X83855552Y-121350000D03*
X82895552Y-121350000D03*
%TD*%
D22*
%TO.C,R111*%
X91985552Y-144450000D03*
X90965552Y-144450000D03*
%TD*%
D23*
%TO.C,U103*%
X73625552Y-148003572D03*
X72675552Y-148003572D03*
X71725552Y-148003572D03*
X71725552Y-145728572D03*
X72675552Y-145728572D03*
X73625552Y-145728572D03*
%TD*%
D24*
%TO.C,C109*%
X59175552Y-123870000D03*
X59175552Y-124830000D03*
%TD*%
D21*
%TO.C,C117*%
X72355552Y-138750000D03*
X71395552Y-138750000D03*
%TD*%
D25*
%TO.C,R108*%
X90965552Y-141950000D03*
X91985552Y-141950000D03*
%TD*%
D24*
%TO.C,C110*%
X109175552Y-127870000D03*
X109175552Y-128830000D03*
%TD*%
D25*
%TO.C,R109*%
X89065552Y-141950000D03*
X90085552Y-141950000D03*
%TD*%
D26*
%TO.C,R104*%
X88075552Y-132960000D03*
X88075552Y-131940000D03*
%TD*%
D27*
%TO.C,C107*%
X82895552Y-122250000D03*
X83855552Y-122250000D03*
%TD*%
D22*
%TO.C,R105*%
X105585552Y-137650000D03*
X104565552Y-137650000D03*
%TD*%
D25*
%TO.C,R101*%
X54865552Y-125050000D03*
X55885552Y-125050000D03*
%TD*%
D24*
%TO.C,C116*%
X98375552Y-136270000D03*
X98375552Y-137230000D03*
%TD*%
D26*
%TO.C,R102*%
X54975552Y-127460000D03*
X54975552Y-126440000D03*
%TD*%
D28*
%TO.C,D101*%
X75275552Y-143116072D03*
X75275552Y-138816072D03*
%TD*%
D22*
%TO.C,R110*%
X90085552Y-143250000D03*
X89065552Y-143250000D03*
%TD*%
D29*
%TO.C,C118*%
X72475552Y-143130000D03*
X72475552Y-142170000D03*
%TD*%
%TO.C,C102*%
X96575552Y-106530000D03*
X96575552Y-105570000D03*
%TD*%
D24*
%TO.C,C115*%
X94775552Y-131970000D03*
X94775552Y-132930000D03*
%TD*%
D30*
%TO.C,L101*%
X80375551Y-143299999D03*
X80375551Y-138799999D03*
%TD*%
D31*
%TO.C,C108*%
X65275552Y-122975000D03*
X65275552Y-124525000D03*
%TD*%
D21*
%TO.C,C104*%
X82855552Y-115550000D03*
X81895552Y-115550000D03*
%TD*%
D26*
%TO.C,R107*%
X70175552Y-140160000D03*
X70175552Y-139140000D03*
%TD*%
D29*
%TO.C,C105*%
X108975552Y-117430000D03*
X108975552Y-116470000D03*
%TD*%
D25*
%TO.C,R112*%
X71565552Y-144150000D03*
X72585552Y-144150000D03*
%TD*%
D24*
%TO.C,C103*%
X93175552Y-105170000D03*
X93175552Y-106130000D03*
%TD*%
D29*
%TO.C,C112*%
X98475552Y-132930000D03*
X98475552Y-131970000D03*
%TD*%
%TO.C,C101*%
X98275552Y-106330000D03*
X98275552Y-105370000D03*
%TD*%
D22*
%TO.C,R106*%
X72385552Y-140250000D03*
X71365552Y-140250000D03*
%TD*%
%TO.C,R103*%
X86485552Y-130350000D03*
X85465552Y-130350000D03*
%TD*%
D24*
%TO.C,C113*%
X99475552Y-131970000D03*
X99475552Y-132930000D03*
%TD*%
D32*
%TO.C,U101*%
X105025552Y-130212500D03*
X104525552Y-130212500D03*
X104025552Y-130212500D03*
X103525552Y-130212500D03*
X103025552Y-130212500D03*
X102525552Y-130212500D03*
X102025552Y-130212500D03*
X101525552Y-130212500D03*
X101025552Y-130212500D03*
X100525552Y-130212500D03*
X100025552Y-130212500D03*
X99525552Y-130212500D03*
X99025552Y-130212500D03*
X98525552Y-130212500D03*
X98025552Y-130212500D03*
X97525552Y-130212500D03*
X97025552Y-130212500D03*
X96525552Y-130212500D03*
X96025552Y-130212500D03*
X95525552Y-130212500D03*
X95025552Y-130212500D03*
X94525552Y-130212500D03*
X94025552Y-130212500D03*
X93525552Y-130212500D03*
X93025552Y-130212500D03*
X92525552Y-130212500D03*
X92025552Y-130212500D03*
X91525552Y-130212500D03*
X91025552Y-130212500D03*
X90525552Y-130212500D03*
X90025552Y-130212500D03*
X89525552Y-130212500D03*
X89025552Y-130212500D03*
X88525552Y-130212500D03*
X88025552Y-130212500D03*
X87525552Y-130212500D03*
D33*
X85613052Y-128300000D03*
X85613052Y-127800000D03*
X85613052Y-127300000D03*
X85613052Y-126800000D03*
X85613052Y-126300000D03*
X85613052Y-125800000D03*
X85613052Y-125300000D03*
X85613052Y-124800000D03*
X85613052Y-124300000D03*
X85613052Y-123800000D03*
X85613052Y-123300000D03*
X85613052Y-122800000D03*
X85613052Y-122300000D03*
X85613052Y-121800000D03*
X85613052Y-121300000D03*
X85613052Y-120800000D03*
X85613052Y-120300000D03*
X85613052Y-119800000D03*
X85613052Y-119300000D03*
X85613052Y-118800000D03*
X85613052Y-118300000D03*
X85613052Y-117800000D03*
X85613052Y-117300000D03*
X85613052Y-116800000D03*
X85613052Y-116300000D03*
X85613052Y-115800000D03*
X85613052Y-115300000D03*
X85613052Y-114800000D03*
X85613052Y-114300000D03*
X85613052Y-113800000D03*
X85613052Y-113300000D03*
X85613052Y-112800000D03*
X85613052Y-112300000D03*
X85613052Y-111800000D03*
X85613052Y-111300000D03*
X85613052Y-110800000D03*
D32*
X87525552Y-108887500D03*
X88025552Y-108887500D03*
X88525552Y-108887500D03*
X89025552Y-108887500D03*
X89525552Y-108887500D03*
X90025552Y-108887500D03*
X90525552Y-108887500D03*
X91025552Y-108887500D03*
X91525552Y-108887500D03*
X92025552Y-108887500D03*
X92525552Y-108887500D03*
X93025552Y-108887500D03*
X93525552Y-108887500D03*
X94025552Y-108887500D03*
X94525552Y-108887500D03*
X95025552Y-108887500D03*
X95525552Y-108887500D03*
X96025552Y-108887500D03*
X96525552Y-108887500D03*
X97025552Y-108887500D03*
X97525552Y-108887500D03*
X98025552Y-108887500D03*
X98525552Y-108887500D03*
X99025552Y-108887500D03*
X99525552Y-108887500D03*
X100025552Y-108887500D03*
X100525552Y-108887500D03*
X101025552Y-108887500D03*
X101525552Y-108887500D03*
X102025552Y-108887500D03*
X102525552Y-108887500D03*
X103025552Y-108887500D03*
X103525552Y-108887500D03*
X104025552Y-108887500D03*
X104525552Y-108887500D03*
X105025552Y-108887500D03*
D33*
X106938052Y-110800000D03*
X106938052Y-111300000D03*
X106938052Y-111800000D03*
X106938052Y-112300000D03*
X106938052Y-112800000D03*
X106938052Y-113300000D03*
X106938052Y-113800000D03*
X106938052Y-114300000D03*
X106938052Y-114800000D03*
X106938052Y-115300000D03*
X106938052Y-115800000D03*
X106938052Y-116300000D03*
X106938052Y-116800000D03*
X106938052Y-117300000D03*
X106938052Y-117800000D03*
X106938052Y-118300000D03*
X106938052Y-118800000D03*
X106938052Y-119300000D03*
X106938052Y-119800000D03*
X106938052Y-120300000D03*
X106938052Y-120800000D03*
X106938052Y-121300000D03*
X106938052Y-121800000D03*
X106938052Y-122300000D03*
X106938052Y-122800000D03*
X106938052Y-123300000D03*
X106938052Y-123800000D03*
X106938052Y-124300000D03*
X106938052Y-124800000D03*
X106938052Y-125300000D03*
X106938052Y-125800000D03*
X106938052Y-126300000D03*
X106938052Y-126800000D03*
X106938052Y-127300000D03*
X106938052Y-127800000D03*
X106938052Y-128300000D03*
%TD*%
D24*
%TO.C,C114*%
X93775552Y-131970000D03*
X93775552Y-132930000D03*
%TD*%
%TO.C,C119*%
X74975552Y-146386072D03*
X74975552Y-147346072D03*
%TD*%
D34*
%TO.C,U102*%
X105625552Y-139295000D03*
X105625552Y-140565000D03*
X105625552Y-141835000D03*
X105625552Y-143105000D03*
X98425552Y-143105000D03*
X98425552Y-141835000D03*
X98425552Y-140565000D03*
X98425552Y-139295000D03*
%TD*%
M02*
