M48
; DRILL file {KiCad 7.0.0} date Mon 27 Mar 2023 04:08:34 PM MDT
; FORMAT={-:-/ absolute / inch / decimal}
; #@! TF.CreationDate,2023-03-27T16:08:34-06:00
; #@! TF.GenerationSoftware,Kicad,Pcbnew,7.0.0
; #@! TF.FileFunction,Plated,1,4,PTH
FMAT,2
INCH
; #@! TA.AperFunction,Plated,PTH,ViaDrill
T1C0.0157
; #@! TA.AperFunction,Plated,PTH,ComponentDrill
T2C0.0315
; #@! TA.AperFunction,Plated,PTH,ComponentDrill
T3C0.0394
; #@! TA.AperFunction,Plated,PTH,ComponentDrill
T4C0.0469
; #@! TA.AperFunction,Plated,PTH,ComponentDrill
T5C0.0630
; #@! TA.AperFunction,Plated,PTH,ComponentDrill
T6C0.1260
%
G90
G05
T1
X2.251Y-4.6752
X2.7156Y-5.5768
X2.7707Y-4.7539
X2.8061Y-5.5807
X2.8534Y-5.565
X2.8612Y-5.876
X2.8888Y-4.7854
X2.9439Y-5.3406
X3.003Y-4.8602
X3.0896Y-4.7697
X3.1093Y-4.9508
X3.1171Y-4.5522
X3.1486Y-4.5266
X3.2313Y-4.2618
X3.2353Y-4.7933
X3.2864Y-5.1319
X3.2904Y-5.435
X3.2904Y-5.4744
X3.2904Y-5.5138
X3.2983Y-5.8169
X3.3061Y-4.5492
X3.3179Y-5.3169
X3.3416Y-4.0886
X3.3652Y-5.0925
X3.4045Y-4.1161
X3.4203Y-4.6594
X3.4208Y-5.0652
X3.4242Y-4.7657
X3.4282Y-4.8524
X3.4282Y-4.9232
X3.4321Y-5.2343
X3.4424Y-4.8007
X3.4439Y-4.3366
X3.4439Y-4.99
X3.4479Y-4.498
X3.4488Y-5.395
X3.4518Y-5.7815
X3.4557Y-5.3563
X3.469Y-4.2367
X3.4715Y-5.5886
X3.4754Y-4.9615
X3.4754Y-5.6398
X3.4833Y-5.2736
X3.4872Y-4.3366
X3.5108Y-5.4193
X3.5148Y-4.8524
X3.5185Y-4.9991
X3.5305Y-4.6594
X3.5345Y-4.4744
X3.5423Y-5.7657
X3.5694Y-5.4503
X3.6132Y-4.9272
X3.629Y-5.4705
X3.6368Y-5.5374
X3.6526Y-5.5886
X3.6526Y-5.687
X3.6565Y-5.1949
X3.6565Y-5.2343
X3.6841Y-4.4744
X3.6998Y-5.4311
X3.7035Y-5.3418
X3.7097Y-5.0717
X3.7195Y-4.6437
X3.7313Y-4.9114
X3.7409Y-4.3338
X3.7431Y-4.4272
X3.7746Y-5.0335
X3.8022Y-4.4469
X3.8091Y-4.2343
X3.8101Y-4.813
X3.8206Y-4.0794
X3.8337Y-4.7539
X3.8416Y-4.999
X3.8494Y-4.3445
X3.8494Y-4.4114
X3.8494Y-4.6437
X3.8691Y-5.3209
X3.8731Y-5.439
X3.8809Y-4.2224
X3.8809Y-4.998
X3.895Y-4.0908
X3.8986Y-4.3336
X3.9016Y-4.5079
X3.9075Y-5.0335
X3.912Y-5.2815
X3.9272Y-5.075
X3.9553Y-4.8405
X3.9794Y-4.0846
X3.9868Y-5.2785
X4.0227Y-5.565
X4.0305Y-4.876
X4.0384Y-5.0728
X4.0423Y-4.7106
X4.0569Y-4.3342
X4.0581Y-5.4193
X4.066Y-5.1831
X4.116Y-4.3342
X4.129Y-4.2166
X4.1565Y-4.5807
X4.1605Y-4.2854
X4.1605Y-4.6752
X4.1605Y-4.7776
X4.1605Y-5.1516
X4.1605Y-5.6791
X4.1628Y-4.737
X4.1833Y-4.2534
X4.2589Y-4.6201
X4.2628Y-5.0335
X4.2707Y-4.8209
X4.3603Y-4.7106
X4.3726Y-5.1629
X4.3888Y-3.8996
X4.4045Y-4.6161
X4.4203Y-4.25
X4.4439Y-5.0965
X4.4833Y-4.3366
X4.5384Y-4.3839
X4.688Y-4.0965
X4.6998Y-5.8484
T2
X2.1368Y-4.3681
X2.1368Y-4.4469
X2.1368Y-4.9547
X2.1368Y-5.0335
X2.2156Y-4.3681
X2.2156Y-4.4469
X2.2156Y-4.9547
X2.2156Y-5.0335
X2.2943Y-4.3681
X2.2943Y-4.4469
X2.2943Y-4.9547
X2.2943Y-5.0335
X2.3731Y-4.3681
X2.3731Y-4.4469
X2.3731Y-4.9547
X2.3731Y-5.0335
X2.4518Y-4.3681
X2.4518Y-4.4469
X2.4518Y-4.9547
X2.4518Y-5.0335
X2.5305Y-4.3681
X2.5305Y-4.4469
X2.5305Y-4.9547
X2.5305Y-5.0335
X2.6093Y-4.3681
X2.6093Y-4.4469
X2.6093Y-4.9547
X2.6093Y-5.0335
X2.688Y-4.3681
X2.688Y-4.4469
X2.688Y-4.9547
X2.688Y-5.0335
X2.7668Y-4.3681
X2.7668Y-4.4469
X2.7668Y-4.9547
X2.7668Y-5.0335
X2.8455Y-4.3681
X2.8455Y-4.4469
X2.8455Y-4.9547
X2.8455Y-5.0335
T3
X2.4699Y-3.9311
X2.5699Y-3.9311
X2.6699Y-3.9311
X2.7699Y-3.9311
X2.8699Y-3.9311
X2.9699Y-3.9311
X3.2658Y-3.9341
X3.315Y-5.9429
X3.3658Y-3.9341
X3.415Y-5.9429
X3.4658Y-3.9341
X3.515Y-5.9429
X3.5658Y-3.9341
X3.615Y-5.9429
X3.6658Y-3.9341
X3.715Y-5.9429
X3.7658Y-3.9341
X3.815Y-5.9429
X3.915Y-5.9429
X4.015Y-5.9429
X4.4705Y-3.9262
X4.4705Y-5.9262
X4.5705Y-3.9262
X4.5705Y-5.9262
X4.6705Y-3.9262
X4.6705Y-5.9262
X4.7705Y-3.9262
X4.7705Y-5.9262
X4.8406Y-4.2465
X4.8406Y-4.3465
X4.8406Y-4.7386
X4.8406Y-4.8386
X4.8406Y-5.2307
X4.8406Y-5.3307
X4.8406Y-5.6388
X4.8705Y-3.9262
X4.8705Y-5.9262
X4.9406Y-4.2465
X4.9406Y-4.3465
X4.9406Y-4.7386
X4.9406Y-4.8386
X4.9406Y-5.2307
X4.9406Y-5.3307
X4.9406Y-5.6388
X4.9705Y-3.9262
X4.9705Y-5.9262
X5.0406Y-4.2465
X5.0406Y-4.3465
X5.0406Y-4.7386
X5.0406Y-4.8386
X5.0406Y-5.2307
X5.0406Y-5.3307
X5.0406Y-5.6388
X5.1406Y-4.2465
X5.1406Y-4.3465
X5.1406Y-4.7386
X5.1406Y-4.8386
X5.1406Y-5.2307
X5.1406Y-5.3307
X5.1406Y-5.6388
X5.2406Y-4.2465
X5.2406Y-4.3465
X5.2406Y-4.7386
X5.2406Y-4.8386
X5.2406Y-5.2307
X5.2406Y-5.3307
X5.2406Y-5.6388
X5.3406Y-4.2465
X5.3406Y-4.3465
X5.3406Y-4.7386
X5.3406Y-4.8386
X5.3406Y-5.2307
X5.3406Y-5.3307
X5.3406Y-5.6388
T4
X2.4864Y-5.7748
X2.4864Y-5.8748
T5
X2.2983Y-5.435
X2.4164Y-5.6201
X2.5345Y-5.435
T6
X2.2156Y-3.998
X2.2156Y-5.8878
X5.2471Y-3.998
X5.2471Y-5.8878
T0
M30
