%TF.GenerationSoftware,KiCad,Pcbnew,7.0.0*%
%TF.CreationDate,2023-03-27T16:14:08-06:00*%
%TF.ProjectId,FPGA_2,46504741-5f32-42e6-9b69-6361645f7063,rev?*%
%TF.SameCoordinates,Original*%
%TF.FileFunction,Legend,Top*%
%TF.FilePolarity,Positive*%
%FSLAX46Y46*%
G04 Gerber Fmt 4.6, Leading zero omitted, Abs format (unit mm)*
G04 Created by KiCad (PCBNEW 7.0.0) date 2023-03-27 16:14:08*
%MOMM*%
%LPD*%
G01*
G04 APERTURE LIST*
%ADD10C,0.150000*%
%ADD11C,0.120000*%
G04 APERTURE END LIST*
D10*
X68166028Y-150427619D02*
X68213647Y-150380000D01*
X68213647Y-150380000D02*
X68308885Y-150332380D01*
X68308885Y-150332380D02*
X68546980Y-150332380D01*
X68546980Y-150332380D02*
X68642218Y-150380000D01*
X68642218Y-150380000D02*
X68689837Y-150427619D01*
X68689837Y-150427619D02*
X68737456Y-150522857D01*
X68737456Y-150522857D02*
X68737456Y-150618095D01*
X68737456Y-150618095D02*
X68689837Y-150760952D01*
X68689837Y-150760952D02*
X68118409Y-151332380D01*
X68118409Y-151332380D02*
X68737456Y-151332380D01*
X69356504Y-150332380D02*
X69451742Y-150332380D01*
X69451742Y-150332380D02*
X69546980Y-150380000D01*
X69546980Y-150380000D02*
X69594599Y-150427619D01*
X69594599Y-150427619D02*
X69642218Y-150522857D01*
X69642218Y-150522857D02*
X69689837Y-150713333D01*
X69689837Y-150713333D02*
X69689837Y-150951428D01*
X69689837Y-150951428D02*
X69642218Y-151141904D01*
X69642218Y-151141904D02*
X69594599Y-151237142D01*
X69594599Y-151237142D02*
X69546980Y-151284761D01*
X69546980Y-151284761D02*
X69451742Y-151332380D01*
X69451742Y-151332380D02*
X69356504Y-151332380D01*
X69356504Y-151332380D02*
X69261266Y-151284761D01*
X69261266Y-151284761D02*
X69213647Y-151237142D01*
X69213647Y-151237142D02*
X69166028Y-151141904D01*
X69166028Y-151141904D02*
X69118409Y-150951428D01*
X69118409Y-150951428D02*
X69118409Y-150713333D01*
X69118409Y-150713333D02*
X69166028Y-150522857D01*
X69166028Y-150522857D02*
X69213647Y-150427619D01*
X69213647Y-150427619D02*
X69261266Y-150380000D01*
X69261266Y-150380000D02*
X69356504Y-150332380D01*
X70070790Y-150427619D02*
X70118409Y-150380000D01*
X70118409Y-150380000D02*
X70213647Y-150332380D01*
X70213647Y-150332380D02*
X70451742Y-150332380D01*
X70451742Y-150332380D02*
X70546980Y-150380000D01*
X70546980Y-150380000D02*
X70594599Y-150427619D01*
X70594599Y-150427619D02*
X70642218Y-150522857D01*
X70642218Y-150522857D02*
X70642218Y-150618095D01*
X70642218Y-150618095D02*
X70594599Y-150760952D01*
X70594599Y-150760952D02*
X70023171Y-151332380D01*
X70023171Y-151332380D02*
X70642218Y-151332380D01*
X70975552Y-150332380D02*
X71594599Y-150332380D01*
X71594599Y-150332380D02*
X71261266Y-150713333D01*
X71261266Y-150713333D02*
X71404123Y-150713333D01*
X71404123Y-150713333D02*
X71499361Y-150760952D01*
X71499361Y-150760952D02*
X71546980Y-150808571D01*
X71546980Y-150808571D02*
X71594599Y-150903809D01*
X71594599Y-150903809D02*
X71594599Y-151141904D01*
X71594599Y-151141904D02*
X71546980Y-151237142D01*
X71546980Y-151237142D02*
X71499361Y-151284761D01*
X71499361Y-151284761D02*
X71404123Y-151332380D01*
X71404123Y-151332380D02*
X71118409Y-151332380D01*
X71118409Y-151332380D02*
X71023171Y-151284761D01*
X71023171Y-151284761D02*
X70975552Y-151237142D01*
X72023171Y-150951428D02*
X72785076Y-150951428D01*
X73451742Y-150332380D02*
X73546980Y-150332380D01*
X73546980Y-150332380D02*
X73642218Y-150380000D01*
X73642218Y-150380000D02*
X73689837Y-150427619D01*
X73689837Y-150427619D02*
X73737456Y-150522857D01*
X73737456Y-150522857D02*
X73785075Y-150713333D01*
X73785075Y-150713333D02*
X73785075Y-150951428D01*
X73785075Y-150951428D02*
X73737456Y-151141904D01*
X73737456Y-151141904D02*
X73689837Y-151237142D01*
X73689837Y-151237142D02*
X73642218Y-151284761D01*
X73642218Y-151284761D02*
X73546980Y-151332380D01*
X73546980Y-151332380D02*
X73451742Y-151332380D01*
X73451742Y-151332380D02*
X73356504Y-151284761D01*
X73356504Y-151284761D02*
X73308885Y-151237142D01*
X73308885Y-151237142D02*
X73261266Y-151141904D01*
X73261266Y-151141904D02*
X73213647Y-150951428D01*
X73213647Y-150951428D02*
X73213647Y-150713333D01*
X73213647Y-150713333D02*
X73261266Y-150522857D01*
X73261266Y-150522857D02*
X73308885Y-150427619D01*
X73308885Y-150427619D02*
X73356504Y-150380000D01*
X73356504Y-150380000D02*
X73451742Y-150332380D01*
X74118409Y-150332380D02*
X74737456Y-150332380D01*
X74737456Y-150332380D02*
X74404123Y-150713333D01*
X74404123Y-150713333D02*
X74546980Y-150713333D01*
X74546980Y-150713333D02*
X74642218Y-150760952D01*
X74642218Y-150760952D02*
X74689837Y-150808571D01*
X74689837Y-150808571D02*
X74737456Y-150903809D01*
X74737456Y-150903809D02*
X74737456Y-151141904D01*
X74737456Y-151141904D02*
X74689837Y-151237142D01*
X74689837Y-151237142D02*
X74642218Y-151284761D01*
X74642218Y-151284761D02*
X74546980Y-151332380D01*
X74546980Y-151332380D02*
X74261266Y-151332380D01*
X74261266Y-151332380D02*
X74166028Y-151284761D01*
X74166028Y-151284761D02*
X74118409Y-151237142D01*
X75166028Y-150951428D02*
X75927933Y-150951428D01*
X76356504Y-150427619D02*
X76404123Y-150380000D01*
X76404123Y-150380000D02*
X76499361Y-150332380D01*
X76499361Y-150332380D02*
X76737456Y-150332380D01*
X76737456Y-150332380D02*
X76832694Y-150380000D01*
X76832694Y-150380000D02*
X76880313Y-150427619D01*
X76880313Y-150427619D02*
X76927932Y-150522857D01*
X76927932Y-150522857D02*
X76927932Y-150618095D01*
X76927932Y-150618095D02*
X76880313Y-150760952D01*
X76880313Y-150760952D02*
X76308885Y-151332380D01*
X76308885Y-151332380D02*
X76927932Y-151332380D01*
X77261266Y-150332380D02*
X77927932Y-150332380D01*
X77927932Y-150332380D02*
X77499361Y-151332380D01*
%TO.C,J10*%
X55116028Y-143167380D02*
X55116028Y-143881666D01*
X55116028Y-143881666D02*
X55068409Y-144024523D01*
X55068409Y-144024523D02*
X54973171Y-144119761D01*
X54973171Y-144119761D02*
X54830314Y-144167380D01*
X54830314Y-144167380D02*
X54735076Y-144167380D01*
X56116028Y-144167380D02*
X55544600Y-144167380D01*
X55830314Y-144167380D02*
X55830314Y-143167380D01*
X55830314Y-143167380D02*
X55735076Y-143310238D01*
X55735076Y-143310238D02*
X55639838Y-143405476D01*
X55639838Y-143405476D02*
X55544600Y-143453095D01*
X56735076Y-143167380D02*
X56830314Y-143167380D01*
X56830314Y-143167380D02*
X56925552Y-143215000D01*
X56925552Y-143215000D02*
X56973171Y-143262619D01*
X56973171Y-143262619D02*
X57020790Y-143357857D01*
X57020790Y-143357857D02*
X57068409Y-143548333D01*
X57068409Y-143548333D02*
X57068409Y-143786428D01*
X57068409Y-143786428D02*
X57020790Y-143976904D01*
X57020790Y-143976904D02*
X56973171Y-144072142D01*
X56973171Y-144072142D02*
X56925552Y-144119761D01*
X56925552Y-144119761D02*
X56830314Y-144167380D01*
X56830314Y-144167380D02*
X56735076Y-144167380D01*
X56735076Y-144167380D02*
X56639838Y-144119761D01*
X56639838Y-144119761D02*
X56592219Y-144072142D01*
X56592219Y-144072142D02*
X56544600Y-143976904D01*
X56544600Y-143976904D02*
X56496981Y-143786428D01*
X56496981Y-143786428D02*
X56496981Y-143548333D01*
X56496981Y-143548333D02*
X56544600Y-143357857D01*
X56544600Y-143357857D02*
X56592219Y-143262619D01*
X56592219Y-143262619D02*
X56639838Y-143215000D01*
X56639838Y-143215000D02*
X56735076Y-143167380D01*
%TO.C,L1*%
X97167380Y-108066666D02*
X97167380Y-108542856D01*
X97167380Y-108542856D02*
X96167380Y-108542856D01*
X97167380Y-107209523D02*
X97167380Y-107780951D01*
X97167380Y-107495237D02*
X96167380Y-107495237D01*
X96167380Y-107495237D02*
X96310238Y-107590475D01*
X96310238Y-107590475D02*
X96405476Y-107685713D01*
X96405476Y-107685713D02*
X96453095Y-107780951D01*
%TO.C,J6*%
X62442218Y-114382380D02*
X62442218Y-115096666D01*
X62442218Y-115096666D02*
X62394599Y-115239523D01*
X62394599Y-115239523D02*
X62299361Y-115334761D01*
X62299361Y-115334761D02*
X62156504Y-115382380D01*
X62156504Y-115382380D02*
X62061266Y-115382380D01*
X63346980Y-114382380D02*
X63156504Y-114382380D01*
X63156504Y-114382380D02*
X63061266Y-114430000D01*
X63061266Y-114430000D02*
X63013647Y-114477619D01*
X63013647Y-114477619D02*
X62918409Y-114620476D01*
X62918409Y-114620476D02*
X62870790Y-114810952D01*
X62870790Y-114810952D02*
X62870790Y-115191904D01*
X62870790Y-115191904D02*
X62918409Y-115287142D01*
X62918409Y-115287142D02*
X62966028Y-115334761D01*
X62966028Y-115334761D02*
X63061266Y-115382380D01*
X63061266Y-115382380D02*
X63251742Y-115382380D01*
X63251742Y-115382380D02*
X63346980Y-115334761D01*
X63346980Y-115334761D02*
X63394599Y-115287142D01*
X63394599Y-115287142D02*
X63442218Y-115191904D01*
X63442218Y-115191904D02*
X63442218Y-114953809D01*
X63442218Y-114953809D02*
X63394599Y-114858571D01*
X63394599Y-114858571D02*
X63346980Y-114810952D01*
X63346980Y-114810952D02*
X63251742Y-114763333D01*
X63251742Y-114763333D02*
X63061266Y-114763333D01*
X63061266Y-114763333D02*
X62966028Y-114810952D01*
X62966028Y-114810952D02*
X62918409Y-114858571D01*
X62918409Y-114858571D02*
X62870790Y-114953809D01*
%TO.C,L12*%
X95167380Y-124742857D02*
X95167380Y-125219047D01*
X95167380Y-125219047D02*
X94167380Y-125219047D01*
X95167380Y-123885714D02*
X95167380Y-124457142D01*
X95167380Y-124171428D02*
X94167380Y-124171428D01*
X94167380Y-124171428D02*
X94310238Y-124266666D01*
X94310238Y-124266666D02*
X94405476Y-124361904D01*
X94405476Y-124361904D02*
X94453095Y-124457142D01*
X94262619Y-123504761D02*
X94215000Y-123457142D01*
X94215000Y-123457142D02*
X94167380Y-123361904D01*
X94167380Y-123361904D02*
X94167380Y-123123809D01*
X94167380Y-123123809D02*
X94215000Y-123028571D01*
X94215000Y-123028571D02*
X94262619Y-122980952D01*
X94262619Y-122980952D02*
X94357857Y-122933333D01*
X94357857Y-122933333D02*
X94453095Y-122933333D01*
X94453095Y-122933333D02*
X94595952Y-122980952D01*
X94595952Y-122980952D02*
X95167380Y-123552380D01*
X95167380Y-123552380D02*
X95167380Y-122933333D01*
%TO.C,C3*%
X100872142Y-103266666D02*
X100919761Y-103314285D01*
X100919761Y-103314285D02*
X100967380Y-103457142D01*
X100967380Y-103457142D02*
X100967380Y-103552380D01*
X100967380Y-103552380D02*
X100919761Y-103695237D01*
X100919761Y-103695237D02*
X100824523Y-103790475D01*
X100824523Y-103790475D02*
X100729285Y-103838094D01*
X100729285Y-103838094D02*
X100538809Y-103885713D01*
X100538809Y-103885713D02*
X100395952Y-103885713D01*
X100395952Y-103885713D02*
X100205476Y-103838094D01*
X100205476Y-103838094D02*
X100110238Y-103790475D01*
X100110238Y-103790475D02*
X100015000Y-103695237D01*
X100015000Y-103695237D02*
X99967380Y-103552380D01*
X99967380Y-103552380D02*
X99967380Y-103457142D01*
X99967380Y-103457142D02*
X100015000Y-103314285D01*
X100015000Y-103314285D02*
X100062619Y-103266666D01*
X99967380Y-102933332D02*
X99967380Y-102314285D01*
X99967380Y-102314285D02*
X100348333Y-102647618D01*
X100348333Y-102647618D02*
X100348333Y-102504761D01*
X100348333Y-102504761D02*
X100395952Y-102409523D01*
X100395952Y-102409523D02*
X100443571Y-102361904D01*
X100443571Y-102361904D02*
X100538809Y-102314285D01*
X100538809Y-102314285D02*
X100776904Y-102314285D01*
X100776904Y-102314285D02*
X100872142Y-102361904D01*
X100872142Y-102361904D02*
X100919761Y-102409523D01*
X100919761Y-102409523D02*
X100967380Y-102504761D01*
X100967380Y-102504761D02*
X100967380Y-102790475D01*
X100967380Y-102790475D02*
X100919761Y-102885713D01*
X100919761Y-102885713D02*
X100872142Y-102933332D01*
%TO.C,D2*%
X105061905Y-108967380D02*
X105061905Y-107967380D01*
X105061905Y-107967380D02*
X105300000Y-107967380D01*
X105300000Y-107967380D02*
X105442857Y-108015000D01*
X105442857Y-108015000D02*
X105538095Y-108110238D01*
X105538095Y-108110238D02*
X105585714Y-108205476D01*
X105585714Y-108205476D02*
X105633333Y-108395952D01*
X105633333Y-108395952D02*
X105633333Y-108538809D01*
X105633333Y-108538809D02*
X105585714Y-108729285D01*
X105585714Y-108729285D02*
X105538095Y-108824523D01*
X105538095Y-108824523D02*
X105442857Y-108919761D01*
X105442857Y-108919761D02*
X105300000Y-108967380D01*
X105300000Y-108967380D02*
X105061905Y-108967380D01*
X106014286Y-108062619D02*
X106061905Y-108015000D01*
X106061905Y-108015000D02*
X106157143Y-107967380D01*
X106157143Y-107967380D02*
X106395238Y-107967380D01*
X106395238Y-107967380D02*
X106490476Y-108015000D01*
X106490476Y-108015000D02*
X106538095Y-108062619D01*
X106538095Y-108062619D02*
X106585714Y-108157857D01*
X106585714Y-108157857D02*
X106585714Y-108253095D01*
X106585714Y-108253095D02*
X106538095Y-108395952D01*
X106538095Y-108395952D02*
X105966667Y-108967380D01*
X105966667Y-108967380D02*
X106585714Y-108967380D01*
%TO.C,C18*%
X105857142Y-121772142D02*
X105809523Y-121819761D01*
X105809523Y-121819761D02*
X105666666Y-121867380D01*
X105666666Y-121867380D02*
X105571428Y-121867380D01*
X105571428Y-121867380D02*
X105428571Y-121819761D01*
X105428571Y-121819761D02*
X105333333Y-121724523D01*
X105333333Y-121724523D02*
X105285714Y-121629285D01*
X105285714Y-121629285D02*
X105238095Y-121438809D01*
X105238095Y-121438809D02*
X105238095Y-121295952D01*
X105238095Y-121295952D02*
X105285714Y-121105476D01*
X105285714Y-121105476D02*
X105333333Y-121010238D01*
X105333333Y-121010238D02*
X105428571Y-120915000D01*
X105428571Y-120915000D02*
X105571428Y-120867380D01*
X105571428Y-120867380D02*
X105666666Y-120867380D01*
X105666666Y-120867380D02*
X105809523Y-120915000D01*
X105809523Y-120915000D02*
X105857142Y-120962619D01*
X106809523Y-121867380D02*
X106238095Y-121867380D01*
X106523809Y-121867380D02*
X106523809Y-120867380D01*
X106523809Y-120867380D02*
X106428571Y-121010238D01*
X106428571Y-121010238D02*
X106333333Y-121105476D01*
X106333333Y-121105476D02*
X106238095Y-121153095D01*
X107380952Y-121295952D02*
X107285714Y-121248333D01*
X107285714Y-121248333D02*
X107238095Y-121200714D01*
X107238095Y-121200714D02*
X107190476Y-121105476D01*
X107190476Y-121105476D02*
X107190476Y-121057857D01*
X107190476Y-121057857D02*
X107238095Y-120962619D01*
X107238095Y-120962619D02*
X107285714Y-120915000D01*
X107285714Y-120915000D02*
X107380952Y-120867380D01*
X107380952Y-120867380D02*
X107571428Y-120867380D01*
X107571428Y-120867380D02*
X107666666Y-120915000D01*
X107666666Y-120915000D02*
X107714285Y-120962619D01*
X107714285Y-120962619D02*
X107761904Y-121057857D01*
X107761904Y-121057857D02*
X107761904Y-121105476D01*
X107761904Y-121105476D02*
X107714285Y-121200714D01*
X107714285Y-121200714D02*
X107666666Y-121248333D01*
X107666666Y-121248333D02*
X107571428Y-121295952D01*
X107571428Y-121295952D02*
X107380952Y-121295952D01*
X107380952Y-121295952D02*
X107285714Y-121343571D01*
X107285714Y-121343571D02*
X107238095Y-121391190D01*
X107238095Y-121391190D02*
X107190476Y-121486428D01*
X107190476Y-121486428D02*
X107190476Y-121676904D01*
X107190476Y-121676904D02*
X107238095Y-121772142D01*
X107238095Y-121772142D02*
X107285714Y-121819761D01*
X107285714Y-121819761D02*
X107380952Y-121867380D01*
X107380952Y-121867380D02*
X107571428Y-121867380D01*
X107571428Y-121867380D02*
X107666666Y-121819761D01*
X107666666Y-121819761D02*
X107714285Y-121772142D01*
X107714285Y-121772142D02*
X107761904Y-121676904D01*
X107761904Y-121676904D02*
X107761904Y-121486428D01*
X107761904Y-121486428D02*
X107714285Y-121391190D01*
X107714285Y-121391190D02*
X107666666Y-121343571D01*
X107666666Y-121343571D02*
X107571428Y-121295952D01*
%TO.C,R8*%
X88767380Y-127066666D02*
X88291190Y-127399999D01*
X88767380Y-127638094D02*
X87767380Y-127638094D01*
X87767380Y-127638094D02*
X87767380Y-127257142D01*
X87767380Y-127257142D02*
X87815000Y-127161904D01*
X87815000Y-127161904D02*
X87862619Y-127114285D01*
X87862619Y-127114285D02*
X87957857Y-127066666D01*
X87957857Y-127066666D02*
X88100714Y-127066666D01*
X88100714Y-127066666D02*
X88195952Y-127114285D01*
X88195952Y-127114285D02*
X88243571Y-127161904D01*
X88243571Y-127161904D02*
X88291190Y-127257142D01*
X88291190Y-127257142D02*
X88291190Y-127638094D01*
X88195952Y-126495237D02*
X88148333Y-126590475D01*
X88148333Y-126590475D02*
X88100714Y-126638094D01*
X88100714Y-126638094D02*
X88005476Y-126685713D01*
X88005476Y-126685713D02*
X87957857Y-126685713D01*
X87957857Y-126685713D02*
X87862619Y-126638094D01*
X87862619Y-126638094D02*
X87815000Y-126590475D01*
X87815000Y-126590475D02*
X87767380Y-126495237D01*
X87767380Y-126495237D02*
X87767380Y-126304761D01*
X87767380Y-126304761D02*
X87815000Y-126209523D01*
X87815000Y-126209523D02*
X87862619Y-126161904D01*
X87862619Y-126161904D02*
X87957857Y-126114285D01*
X87957857Y-126114285D02*
X88005476Y-126114285D01*
X88005476Y-126114285D02*
X88100714Y-126161904D01*
X88100714Y-126161904D02*
X88148333Y-126209523D01*
X88148333Y-126209523D02*
X88195952Y-126304761D01*
X88195952Y-126304761D02*
X88195952Y-126495237D01*
X88195952Y-126495237D02*
X88243571Y-126590475D01*
X88243571Y-126590475D02*
X88291190Y-126638094D01*
X88291190Y-126638094D02*
X88386428Y-126685713D01*
X88386428Y-126685713D02*
X88576904Y-126685713D01*
X88576904Y-126685713D02*
X88672142Y-126638094D01*
X88672142Y-126638094D02*
X88719761Y-126590475D01*
X88719761Y-126590475D02*
X88767380Y-126495237D01*
X88767380Y-126495237D02*
X88767380Y-126304761D01*
X88767380Y-126304761D02*
X88719761Y-126209523D01*
X88719761Y-126209523D02*
X88672142Y-126161904D01*
X88672142Y-126161904D02*
X88576904Y-126114285D01*
X88576904Y-126114285D02*
X88386428Y-126114285D01*
X88386428Y-126114285D02*
X88291190Y-126161904D01*
X88291190Y-126161904D02*
X88243571Y-126209523D01*
X88243571Y-126209523D02*
X88195952Y-126304761D01*
%TO.C,L4*%
X99612932Y-110210713D02*
X99612932Y-110686904D01*
X99612932Y-110686904D02*
X98612932Y-110561904D01*
X98946266Y-109365475D02*
X99612932Y-109448808D01*
X98565313Y-109555951D02*
X99279599Y-109883332D01*
X99279599Y-109883332D02*
X99279599Y-109264285D01*
%TO.C,J4*%
X119847218Y-108497380D02*
X119847218Y-109211666D01*
X119847218Y-109211666D02*
X119799599Y-109354523D01*
X119799599Y-109354523D02*
X119704361Y-109449761D01*
X119704361Y-109449761D02*
X119561504Y-109497380D01*
X119561504Y-109497380D02*
X119466266Y-109497380D01*
X120751980Y-108830714D02*
X120751980Y-109497380D01*
X120513885Y-108449761D02*
X120275790Y-109164047D01*
X120275790Y-109164047D02*
X120894837Y-109164047D01*
%TO.C,C28*%
X69917694Y-134992857D02*
X69965313Y-135040476D01*
X69965313Y-135040476D02*
X70012932Y-135183333D01*
X70012932Y-135183333D02*
X70012932Y-135278571D01*
X70012932Y-135278571D02*
X69965313Y-135421428D01*
X69965313Y-135421428D02*
X69870075Y-135516666D01*
X69870075Y-135516666D02*
X69774837Y-135564285D01*
X69774837Y-135564285D02*
X69584361Y-135611904D01*
X69584361Y-135611904D02*
X69441504Y-135611904D01*
X69441504Y-135611904D02*
X69251028Y-135564285D01*
X69251028Y-135564285D02*
X69155790Y-135516666D01*
X69155790Y-135516666D02*
X69060552Y-135421428D01*
X69060552Y-135421428D02*
X69012932Y-135278571D01*
X69012932Y-135278571D02*
X69012932Y-135183333D01*
X69012932Y-135183333D02*
X69060552Y-135040476D01*
X69060552Y-135040476D02*
X69108171Y-134992857D01*
X69108171Y-134611904D02*
X69060552Y-134564285D01*
X69060552Y-134564285D02*
X69012932Y-134469047D01*
X69012932Y-134469047D02*
X69012932Y-134230952D01*
X69012932Y-134230952D02*
X69060552Y-134135714D01*
X69060552Y-134135714D02*
X69108171Y-134088095D01*
X69108171Y-134088095D02*
X69203409Y-134040476D01*
X69203409Y-134040476D02*
X69298647Y-134040476D01*
X69298647Y-134040476D02*
X69441504Y-134088095D01*
X69441504Y-134088095D02*
X70012932Y-134659523D01*
X70012932Y-134659523D02*
X70012932Y-134040476D01*
X69441504Y-133469047D02*
X69393885Y-133564285D01*
X69393885Y-133564285D02*
X69346266Y-133611904D01*
X69346266Y-133611904D02*
X69251028Y-133659523D01*
X69251028Y-133659523D02*
X69203409Y-133659523D01*
X69203409Y-133659523D02*
X69108171Y-133611904D01*
X69108171Y-133611904D02*
X69060552Y-133564285D01*
X69060552Y-133564285D02*
X69012932Y-133469047D01*
X69012932Y-133469047D02*
X69012932Y-133278571D01*
X69012932Y-133278571D02*
X69060552Y-133183333D01*
X69060552Y-133183333D02*
X69108171Y-133135714D01*
X69108171Y-133135714D02*
X69203409Y-133088095D01*
X69203409Y-133088095D02*
X69251028Y-133088095D01*
X69251028Y-133088095D02*
X69346266Y-133135714D01*
X69346266Y-133135714D02*
X69393885Y-133183333D01*
X69393885Y-133183333D02*
X69441504Y-133278571D01*
X69441504Y-133278571D02*
X69441504Y-133469047D01*
X69441504Y-133469047D02*
X69489123Y-133564285D01*
X69489123Y-133564285D02*
X69536742Y-133611904D01*
X69536742Y-133611904D02*
X69631980Y-133659523D01*
X69631980Y-133659523D02*
X69822456Y-133659523D01*
X69822456Y-133659523D02*
X69917694Y-133611904D01*
X69917694Y-133611904D02*
X69965313Y-133564285D01*
X69965313Y-133564285D02*
X70012932Y-133469047D01*
X70012932Y-133469047D02*
X70012932Y-133278571D01*
X70012932Y-133278571D02*
X69965313Y-133183333D01*
X69965313Y-133183333D02*
X69917694Y-133135714D01*
X69917694Y-133135714D02*
X69822456Y-133088095D01*
X69822456Y-133088095D02*
X69631980Y-133088095D01*
X69631980Y-133088095D02*
X69536742Y-133135714D01*
X69536742Y-133135714D02*
X69489123Y-133183333D01*
X69489123Y-133183333D02*
X69441504Y-133278571D01*
%TO.C,L2*%
X98767380Y-108266666D02*
X98767380Y-108742856D01*
X98767380Y-108742856D02*
X97767380Y-108742856D01*
X97862619Y-107980951D02*
X97815000Y-107933332D01*
X97815000Y-107933332D02*
X97767380Y-107838094D01*
X97767380Y-107838094D02*
X97767380Y-107599999D01*
X97767380Y-107599999D02*
X97815000Y-107504761D01*
X97815000Y-107504761D02*
X97862619Y-107457142D01*
X97862619Y-107457142D02*
X97957857Y-107409523D01*
X97957857Y-107409523D02*
X98053095Y-107409523D01*
X98053095Y-107409523D02*
X98195952Y-107457142D01*
X98195952Y-107457142D02*
X98767380Y-108028570D01*
X98767380Y-108028570D02*
X98767380Y-107409523D01*
%TO.C,J11*%
X118590476Y-142567380D02*
X118590476Y-143281666D01*
X118590476Y-143281666D02*
X118542857Y-143424523D01*
X118542857Y-143424523D02*
X118447619Y-143519761D01*
X118447619Y-143519761D02*
X118304762Y-143567380D01*
X118304762Y-143567380D02*
X118209524Y-143567380D01*
X119590476Y-143567380D02*
X119019048Y-143567380D01*
X119304762Y-143567380D02*
X119304762Y-142567380D01*
X119304762Y-142567380D02*
X119209524Y-142710238D01*
X119209524Y-142710238D02*
X119114286Y-142805476D01*
X119114286Y-142805476D02*
X119019048Y-142853095D01*
X120542857Y-143567380D02*
X119971429Y-143567380D01*
X120257143Y-143567380D02*
X120257143Y-142567380D01*
X120257143Y-142567380D02*
X120161905Y-142710238D01*
X120161905Y-142710238D02*
X120066667Y-142805476D01*
X120066667Y-142805476D02*
X119971429Y-142853095D01*
%TO.C,C27*%
X101572142Y-135942857D02*
X101619761Y-135990476D01*
X101619761Y-135990476D02*
X101667380Y-136133333D01*
X101667380Y-136133333D02*
X101667380Y-136228571D01*
X101667380Y-136228571D02*
X101619761Y-136371428D01*
X101619761Y-136371428D02*
X101524523Y-136466666D01*
X101524523Y-136466666D02*
X101429285Y-136514285D01*
X101429285Y-136514285D02*
X101238809Y-136561904D01*
X101238809Y-136561904D02*
X101095952Y-136561904D01*
X101095952Y-136561904D02*
X100905476Y-136514285D01*
X100905476Y-136514285D02*
X100810238Y-136466666D01*
X100810238Y-136466666D02*
X100715000Y-136371428D01*
X100715000Y-136371428D02*
X100667380Y-136228571D01*
X100667380Y-136228571D02*
X100667380Y-136133333D01*
X100667380Y-136133333D02*
X100715000Y-135990476D01*
X100715000Y-135990476D02*
X100762619Y-135942857D01*
X100762619Y-135561904D02*
X100715000Y-135514285D01*
X100715000Y-135514285D02*
X100667380Y-135419047D01*
X100667380Y-135419047D02*
X100667380Y-135180952D01*
X100667380Y-135180952D02*
X100715000Y-135085714D01*
X100715000Y-135085714D02*
X100762619Y-135038095D01*
X100762619Y-135038095D02*
X100857857Y-134990476D01*
X100857857Y-134990476D02*
X100953095Y-134990476D01*
X100953095Y-134990476D02*
X101095952Y-135038095D01*
X101095952Y-135038095D02*
X101667380Y-135609523D01*
X101667380Y-135609523D02*
X101667380Y-134990476D01*
X100667380Y-134657142D02*
X100667380Y-133990476D01*
X100667380Y-133990476D02*
X101667380Y-134419047D01*
%TO.C,R3*%
X112733333Y-107567380D02*
X112400000Y-107091190D01*
X112161905Y-107567380D02*
X112161905Y-106567380D01*
X112161905Y-106567380D02*
X112542857Y-106567380D01*
X112542857Y-106567380D02*
X112638095Y-106615000D01*
X112638095Y-106615000D02*
X112685714Y-106662619D01*
X112685714Y-106662619D02*
X112733333Y-106757857D01*
X112733333Y-106757857D02*
X112733333Y-106900714D01*
X112733333Y-106900714D02*
X112685714Y-106995952D01*
X112685714Y-106995952D02*
X112638095Y-107043571D01*
X112638095Y-107043571D02*
X112542857Y-107091190D01*
X112542857Y-107091190D02*
X112161905Y-107091190D01*
X113066667Y-106567380D02*
X113685714Y-106567380D01*
X113685714Y-106567380D02*
X113352381Y-106948333D01*
X113352381Y-106948333D02*
X113495238Y-106948333D01*
X113495238Y-106948333D02*
X113590476Y-106995952D01*
X113590476Y-106995952D02*
X113638095Y-107043571D01*
X113638095Y-107043571D02*
X113685714Y-107138809D01*
X113685714Y-107138809D02*
X113685714Y-107376904D01*
X113685714Y-107376904D02*
X113638095Y-107472142D01*
X113638095Y-107472142D02*
X113590476Y-107519761D01*
X113590476Y-107519761D02*
X113495238Y-107567380D01*
X113495238Y-107567380D02*
X113209524Y-107567380D01*
X113209524Y-107567380D02*
X113114286Y-107519761D01*
X113114286Y-107519761D02*
X113066667Y-107472142D01*
%TO.C,C25*%
X94672694Y-133592857D02*
X94720313Y-133640476D01*
X94720313Y-133640476D02*
X94767932Y-133783333D01*
X94767932Y-133783333D02*
X94767932Y-133878571D01*
X94767932Y-133878571D02*
X94720313Y-134021428D01*
X94720313Y-134021428D02*
X94625075Y-134116666D01*
X94625075Y-134116666D02*
X94529837Y-134164285D01*
X94529837Y-134164285D02*
X94339361Y-134211904D01*
X94339361Y-134211904D02*
X94196504Y-134211904D01*
X94196504Y-134211904D02*
X94006028Y-134164285D01*
X94006028Y-134164285D02*
X93910790Y-134116666D01*
X93910790Y-134116666D02*
X93815552Y-134021428D01*
X93815552Y-134021428D02*
X93767932Y-133878571D01*
X93767932Y-133878571D02*
X93767932Y-133783333D01*
X93767932Y-133783333D02*
X93815552Y-133640476D01*
X93815552Y-133640476D02*
X93863171Y-133592857D01*
X93863171Y-133211904D02*
X93815552Y-133164285D01*
X93815552Y-133164285D02*
X93767932Y-133069047D01*
X93767932Y-133069047D02*
X93767932Y-132830952D01*
X93767932Y-132830952D02*
X93815552Y-132735714D01*
X93815552Y-132735714D02*
X93863171Y-132688095D01*
X93863171Y-132688095D02*
X93958409Y-132640476D01*
X93958409Y-132640476D02*
X94053647Y-132640476D01*
X94053647Y-132640476D02*
X94196504Y-132688095D01*
X94196504Y-132688095D02*
X94767932Y-133259523D01*
X94767932Y-133259523D02*
X94767932Y-132640476D01*
X93767932Y-131735714D02*
X93767932Y-132211904D01*
X93767932Y-132211904D02*
X94244123Y-132259523D01*
X94244123Y-132259523D02*
X94196504Y-132211904D01*
X94196504Y-132211904D02*
X94148885Y-132116666D01*
X94148885Y-132116666D02*
X94148885Y-131878571D01*
X94148885Y-131878571D02*
X94196504Y-131783333D01*
X94196504Y-131783333D02*
X94244123Y-131735714D01*
X94244123Y-131735714D02*
X94339361Y-131688095D01*
X94339361Y-131688095D02*
X94577456Y-131688095D01*
X94577456Y-131688095D02*
X94672694Y-131735714D01*
X94672694Y-131735714D02*
X94720313Y-131783333D01*
X94720313Y-131783333D02*
X94767932Y-131878571D01*
X94767932Y-131878571D02*
X94767932Y-132116666D01*
X94767932Y-132116666D02*
X94720313Y-132211904D01*
X94720313Y-132211904D02*
X94672694Y-132259523D01*
%TO.C,C5*%
X96507694Y-111416666D02*
X96555313Y-111464285D01*
X96555313Y-111464285D02*
X96602932Y-111607142D01*
X96602932Y-111607142D02*
X96602932Y-111702380D01*
X96602932Y-111702380D02*
X96555313Y-111845237D01*
X96555313Y-111845237D02*
X96460075Y-111940475D01*
X96460075Y-111940475D02*
X96364837Y-111988094D01*
X96364837Y-111988094D02*
X96174361Y-112035713D01*
X96174361Y-112035713D02*
X96031504Y-112035713D01*
X96031504Y-112035713D02*
X95841028Y-111988094D01*
X95841028Y-111988094D02*
X95745790Y-111940475D01*
X95745790Y-111940475D02*
X95650552Y-111845237D01*
X95650552Y-111845237D02*
X95602932Y-111702380D01*
X95602932Y-111702380D02*
X95602932Y-111607142D01*
X95602932Y-111607142D02*
X95650552Y-111464285D01*
X95650552Y-111464285D02*
X95698171Y-111416666D01*
X95602932Y-110511904D02*
X95602932Y-110988094D01*
X95602932Y-110988094D02*
X96079123Y-111035713D01*
X96079123Y-111035713D02*
X96031504Y-110988094D01*
X96031504Y-110988094D02*
X95983885Y-110892856D01*
X95983885Y-110892856D02*
X95983885Y-110654761D01*
X95983885Y-110654761D02*
X96031504Y-110559523D01*
X96031504Y-110559523D02*
X96079123Y-110511904D01*
X96079123Y-110511904D02*
X96174361Y-110464285D01*
X96174361Y-110464285D02*
X96412456Y-110464285D01*
X96412456Y-110464285D02*
X96507694Y-110511904D01*
X96507694Y-110511904D02*
X96555313Y-110559523D01*
X96555313Y-110559523D02*
X96602932Y-110654761D01*
X96602932Y-110654761D02*
X96602932Y-110892856D01*
X96602932Y-110892856D02*
X96555313Y-110988094D01*
X96555313Y-110988094D02*
X96507694Y-111035713D01*
%TO.C,J9*%
X119642218Y-133417380D02*
X119642218Y-134131666D01*
X119642218Y-134131666D02*
X119594599Y-134274523D01*
X119594599Y-134274523D02*
X119499361Y-134369761D01*
X119499361Y-134369761D02*
X119356504Y-134417380D01*
X119356504Y-134417380D02*
X119261266Y-134417380D01*
X120166028Y-134417380D02*
X120356504Y-134417380D01*
X120356504Y-134417380D02*
X120451742Y-134369761D01*
X120451742Y-134369761D02*
X120499361Y-134322142D01*
X120499361Y-134322142D02*
X120594599Y-134179285D01*
X120594599Y-134179285D02*
X120642218Y-133988809D01*
X120642218Y-133988809D02*
X120642218Y-133607857D01*
X120642218Y-133607857D02*
X120594599Y-133512619D01*
X120594599Y-133512619D02*
X120546980Y-133465000D01*
X120546980Y-133465000D02*
X120451742Y-133417380D01*
X120451742Y-133417380D02*
X120261266Y-133417380D01*
X120261266Y-133417380D02*
X120166028Y-133465000D01*
X120166028Y-133465000D02*
X120118409Y-133512619D01*
X120118409Y-133512619D02*
X120070790Y-133607857D01*
X120070790Y-133607857D02*
X120070790Y-133845952D01*
X120070790Y-133845952D02*
X120118409Y-133941190D01*
X120118409Y-133941190D02*
X120166028Y-133988809D01*
X120166028Y-133988809D02*
X120261266Y-134036428D01*
X120261266Y-134036428D02*
X120451742Y-134036428D01*
X120451742Y-134036428D02*
X120546980Y-133988809D01*
X120546980Y-133988809D02*
X120594599Y-133941190D01*
X120594599Y-133941190D02*
X120642218Y-133845952D01*
%TO.C,C24*%
X92072142Y-124742857D02*
X92119761Y-124790476D01*
X92119761Y-124790476D02*
X92167380Y-124933333D01*
X92167380Y-124933333D02*
X92167380Y-125028571D01*
X92167380Y-125028571D02*
X92119761Y-125171428D01*
X92119761Y-125171428D02*
X92024523Y-125266666D01*
X92024523Y-125266666D02*
X91929285Y-125314285D01*
X91929285Y-125314285D02*
X91738809Y-125361904D01*
X91738809Y-125361904D02*
X91595952Y-125361904D01*
X91595952Y-125361904D02*
X91405476Y-125314285D01*
X91405476Y-125314285D02*
X91310238Y-125266666D01*
X91310238Y-125266666D02*
X91215000Y-125171428D01*
X91215000Y-125171428D02*
X91167380Y-125028571D01*
X91167380Y-125028571D02*
X91167380Y-124933333D01*
X91167380Y-124933333D02*
X91215000Y-124790476D01*
X91215000Y-124790476D02*
X91262619Y-124742857D01*
X91262619Y-124361904D02*
X91215000Y-124314285D01*
X91215000Y-124314285D02*
X91167380Y-124219047D01*
X91167380Y-124219047D02*
X91167380Y-123980952D01*
X91167380Y-123980952D02*
X91215000Y-123885714D01*
X91215000Y-123885714D02*
X91262619Y-123838095D01*
X91262619Y-123838095D02*
X91357857Y-123790476D01*
X91357857Y-123790476D02*
X91453095Y-123790476D01*
X91453095Y-123790476D02*
X91595952Y-123838095D01*
X91595952Y-123838095D02*
X92167380Y-124409523D01*
X92167380Y-124409523D02*
X92167380Y-123790476D01*
X91500714Y-122933333D02*
X92167380Y-122933333D01*
X91119761Y-123171428D02*
X91834047Y-123409523D01*
X91834047Y-123409523D02*
X91834047Y-122790476D01*
%TO.C,L14*%
X108463095Y-126667380D02*
X107986904Y-126667380D01*
X107986904Y-126667380D02*
X108111904Y-125667380D01*
X109320238Y-126667380D02*
X108748809Y-126667380D01*
X109034523Y-126667380D02*
X109159523Y-125667380D01*
X109159523Y-125667380D02*
X109046428Y-125810238D01*
X109046428Y-125810238D02*
X108939285Y-125905476D01*
X108939285Y-125905476D02*
X108838095Y-125953095D01*
X110260714Y-126000714D02*
X110177381Y-126667380D01*
X110070238Y-125619761D02*
X109742857Y-126334047D01*
X109742857Y-126334047D02*
X110361904Y-126334047D01*
%TO.C,C29*%
X80772142Y-131842857D02*
X80819761Y-131890476D01*
X80819761Y-131890476D02*
X80867380Y-132033333D01*
X80867380Y-132033333D02*
X80867380Y-132128571D01*
X80867380Y-132128571D02*
X80819761Y-132271428D01*
X80819761Y-132271428D02*
X80724523Y-132366666D01*
X80724523Y-132366666D02*
X80629285Y-132414285D01*
X80629285Y-132414285D02*
X80438809Y-132461904D01*
X80438809Y-132461904D02*
X80295952Y-132461904D01*
X80295952Y-132461904D02*
X80105476Y-132414285D01*
X80105476Y-132414285D02*
X80010238Y-132366666D01*
X80010238Y-132366666D02*
X79915000Y-132271428D01*
X79915000Y-132271428D02*
X79867380Y-132128571D01*
X79867380Y-132128571D02*
X79867380Y-132033333D01*
X79867380Y-132033333D02*
X79915000Y-131890476D01*
X79915000Y-131890476D02*
X79962619Y-131842857D01*
X79962619Y-131461904D02*
X79915000Y-131414285D01*
X79915000Y-131414285D02*
X79867380Y-131319047D01*
X79867380Y-131319047D02*
X79867380Y-131080952D01*
X79867380Y-131080952D02*
X79915000Y-130985714D01*
X79915000Y-130985714D02*
X79962619Y-130938095D01*
X79962619Y-130938095D02*
X80057857Y-130890476D01*
X80057857Y-130890476D02*
X80153095Y-130890476D01*
X80153095Y-130890476D02*
X80295952Y-130938095D01*
X80295952Y-130938095D02*
X80867380Y-131509523D01*
X80867380Y-131509523D02*
X80867380Y-130890476D01*
X80867380Y-130414285D02*
X80867380Y-130223809D01*
X80867380Y-130223809D02*
X80819761Y-130128571D01*
X80819761Y-130128571D02*
X80772142Y-130080952D01*
X80772142Y-130080952D02*
X80629285Y-129985714D01*
X80629285Y-129985714D02*
X80438809Y-129938095D01*
X80438809Y-129938095D02*
X80057857Y-129938095D01*
X80057857Y-129938095D02*
X79962619Y-129985714D01*
X79962619Y-129985714D02*
X79915000Y-130033333D01*
X79915000Y-130033333D02*
X79867380Y-130128571D01*
X79867380Y-130128571D02*
X79867380Y-130319047D01*
X79867380Y-130319047D02*
X79915000Y-130414285D01*
X79915000Y-130414285D02*
X79962619Y-130461904D01*
X79962619Y-130461904D02*
X80057857Y-130509523D01*
X80057857Y-130509523D02*
X80295952Y-130509523D01*
X80295952Y-130509523D02*
X80391190Y-130461904D01*
X80391190Y-130461904D02*
X80438809Y-130414285D01*
X80438809Y-130414285D02*
X80486428Y-130319047D01*
X80486428Y-130319047D02*
X80486428Y-130128571D01*
X80486428Y-130128571D02*
X80438809Y-130033333D01*
X80438809Y-130033333D02*
X80391190Y-129985714D01*
X80391190Y-129985714D02*
X80295952Y-129938095D01*
%TO.C,R7*%
X98608885Y-120047380D02*
X98275552Y-119571190D01*
X98037457Y-120047380D02*
X98037457Y-119047380D01*
X98037457Y-119047380D02*
X98418409Y-119047380D01*
X98418409Y-119047380D02*
X98513647Y-119095000D01*
X98513647Y-119095000D02*
X98561266Y-119142619D01*
X98561266Y-119142619D02*
X98608885Y-119237857D01*
X98608885Y-119237857D02*
X98608885Y-119380714D01*
X98608885Y-119380714D02*
X98561266Y-119475952D01*
X98561266Y-119475952D02*
X98513647Y-119523571D01*
X98513647Y-119523571D02*
X98418409Y-119571190D01*
X98418409Y-119571190D02*
X98037457Y-119571190D01*
X98942219Y-119047380D02*
X99608885Y-119047380D01*
X99608885Y-119047380D02*
X99180314Y-120047380D01*
%TO.C,C34*%
X54532694Y-117522142D02*
X54485075Y-117569761D01*
X54485075Y-117569761D02*
X54342218Y-117617380D01*
X54342218Y-117617380D02*
X54246980Y-117617380D01*
X54246980Y-117617380D02*
X54104123Y-117569761D01*
X54104123Y-117569761D02*
X54008885Y-117474523D01*
X54008885Y-117474523D02*
X53961266Y-117379285D01*
X53961266Y-117379285D02*
X53913647Y-117188809D01*
X53913647Y-117188809D02*
X53913647Y-117045952D01*
X53913647Y-117045952D02*
X53961266Y-116855476D01*
X53961266Y-116855476D02*
X54008885Y-116760238D01*
X54008885Y-116760238D02*
X54104123Y-116665000D01*
X54104123Y-116665000D02*
X54246980Y-116617380D01*
X54246980Y-116617380D02*
X54342218Y-116617380D01*
X54342218Y-116617380D02*
X54485075Y-116665000D01*
X54485075Y-116665000D02*
X54532694Y-116712619D01*
X54866028Y-116617380D02*
X55485075Y-116617380D01*
X55485075Y-116617380D02*
X55151742Y-116998333D01*
X55151742Y-116998333D02*
X55294599Y-116998333D01*
X55294599Y-116998333D02*
X55389837Y-117045952D01*
X55389837Y-117045952D02*
X55437456Y-117093571D01*
X55437456Y-117093571D02*
X55485075Y-117188809D01*
X55485075Y-117188809D02*
X55485075Y-117426904D01*
X55485075Y-117426904D02*
X55437456Y-117522142D01*
X55437456Y-117522142D02*
X55389837Y-117569761D01*
X55389837Y-117569761D02*
X55294599Y-117617380D01*
X55294599Y-117617380D02*
X55008885Y-117617380D01*
X55008885Y-117617380D02*
X54913647Y-117569761D01*
X54913647Y-117569761D02*
X54866028Y-117522142D01*
X56342218Y-116950714D02*
X56342218Y-117617380D01*
X56104123Y-116569761D02*
X55866028Y-117284047D01*
X55866028Y-117284047D02*
X56485075Y-117284047D01*
%TO.C,R21*%
X97742932Y-143292857D02*
X97266742Y-143626190D01*
X97742932Y-143864285D02*
X96742932Y-143864285D01*
X96742932Y-143864285D02*
X96742932Y-143483333D01*
X96742932Y-143483333D02*
X96790552Y-143388095D01*
X96790552Y-143388095D02*
X96838171Y-143340476D01*
X96838171Y-143340476D02*
X96933409Y-143292857D01*
X96933409Y-143292857D02*
X97076266Y-143292857D01*
X97076266Y-143292857D02*
X97171504Y-143340476D01*
X97171504Y-143340476D02*
X97219123Y-143388095D01*
X97219123Y-143388095D02*
X97266742Y-143483333D01*
X97266742Y-143483333D02*
X97266742Y-143864285D01*
X96838171Y-142911904D02*
X96790552Y-142864285D01*
X96790552Y-142864285D02*
X96742932Y-142769047D01*
X96742932Y-142769047D02*
X96742932Y-142530952D01*
X96742932Y-142530952D02*
X96790552Y-142435714D01*
X96790552Y-142435714D02*
X96838171Y-142388095D01*
X96838171Y-142388095D02*
X96933409Y-142340476D01*
X96933409Y-142340476D02*
X97028647Y-142340476D01*
X97028647Y-142340476D02*
X97171504Y-142388095D01*
X97171504Y-142388095D02*
X97742932Y-142959523D01*
X97742932Y-142959523D02*
X97742932Y-142340476D01*
X97742932Y-141388095D02*
X97742932Y-141959523D01*
X97742932Y-141673809D02*
X96742932Y-141673809D01*
X96742932Y-141673809D02*
X96885790Y-141769047D01*
X96885790Y-141769047D02*
X96981028Y-141864285D01*
X96981028Y-141864285D02*
X97028647Y-141959523D01*
%TO.C,J8*%
X54042218Y-122842380D02*
X54042218Y-123556666D01*
X54042218Y-123556666D02*
X53994599Y-123699523D01*
X53994599Y-123699523D02*
X53899361Y-123794761D01*
X53899361Y-123794761D02*
X53756504Y-123842380D01*
X53756504Y-123842380D02*
X53661266Y-123842380D01*
X54661266Y-123270952D02*
X54566028Y-123223333D01*
X54566028Y-123223333D02*
X54518409Y-123175714D01*
X54518409Y-123175714D02*
X54470790Y-123080476D01*
X54470790Y-123080476D02*
X54470790Y-123032857D01*
X54470790Y-123032857D02*
X54518409Y-122937619D01*
X54518409Y-122937619D02*
X54566028Y-122890000D01*
X54566028Y-122890000D02*
X54661266Y-122842380D01*
X54661266Y-122842380D02*
X54851742Y-122842380D01*
X54851742Y-122842380D02*
X54946980Y-122890000D01*
X54946980Y-122890000D02*
X54994599Y-122937619D01*
X54994599Y-122937619D02*
X55042218Y-123032857D01*
X55042218Y-123032857D02*
X55042218Y-123080476D01*
X55042218Y-123080476D02*
X54994599Y-123175714D01*
X54994599Y-123175714D02*
X54946980Y-123223333D01*
X54946980Y-123223333D02*
X54851742Y-123270952D01*
X54851742Y-123270952D02*
X54661266Y-123270952D01*
X54661266Y-123270952D02*
X54566028Y-123318571D01*
X54566028Y-123318571D02*
X54518409Y-123366190D01*
X54518409Y-123366190D02*
X54470790Y-123461428D01*
X54470790Y-123461428D02*
X54470790Y-123651904D01*
X54470790Y-123651904D02*
X54518409Y-123747142D01*
X54518409Y-123747142D02*
X54566028Y-123794761D01*
X54566028Y-123794761D02*
X54661266Y-123842380D01*
X54661266Y-123842380D02*
X54851742Y-123842380D01*
X54851742Y-123842380D02*
X54946980Y-123794761D01*
X54946980Y-123794761D02*
X54994599Y-123747142D01*
X54994599Y-123747142D02*
X55042218Y-123651904D01*
X55042218Y-123651904D02*
X55042218Y-123461428D01*
X55042218Y-123461428D02*
X54994599Y-123366190D01*
X54994599Y-123366190D02*
X54946980Y-123318571D01*
X54946980Y-123318571D02*
X54851742Y-123270952D01*
%TO.C,R13*%
X56932694Y-130742380D02*
X56599361Y-130266190D01*
X56361266Y-130742380D02*
X56361266Y-129742380D01*
X56361266Y-129742380D02*
X56742218Y-129742380D01*
X56742218Y-129742380D02*
X56837456Y-129790000D01*
X56837456Y-129790000D02*
X56885075Y-129837619D01*
X56885075Y-129837619D02*
X56932694Y-129932857D01*
X56932694Y-129932857D02*
X56932694Y-130075714D01*
X56932694Y-130075714D02*
X56885075Y-130170952D01*
X56885075Y-130170952D02*
X56837456Y-130218571D01*
X56837456Y-130218571D02*
X56742218Y-130266190D01*
X56742218Y-130266190D02*
X56361266Y-130266190D01*
X57885075Y-130742380D02*
X57313647Y-130742380D01*
X57599361Y-130742380D02*
X57599361Y-129742380D01*
X57599361Y-129742380D02*
X57504123Y-129885238D01*
X57504123Y-129885238D02*
X57408885Y-129980476D01*
X57408885Y-129980476D02*
X57313647Y-130028095D01*
X58218409Y-129742380D02*
X58837456Y-129742380D01*
X58837456Y-129742380D02*
X58504123Y-130123333D01*
X58504123Y-130123333D02*
X58646980Y-130123333D01*
X58646980Y-130123333D02*
X58742218Y-130170952D01*
X58742218Y-130170952D02*
X58789837Y-130218571D01*
X58789837Y-130218571D02*
X58837456Y-130313809D01*
X58837456Y-130313809D02*
X58837456Y-130551904D01*
X58837456Y-130551904D02*
X58789837Y-130647142D01*
X58789837Y-130647142D02*
X58742218Y-130694761D01*
X58742218Y-130694761D02*
X58646980Y-130742380D01*
X58646980Y-130742380D02*
X58361266Y-130742380D01*
X58361266Y-130742380D02*
X58266028Y-130694761D01*
X58266028Y-130694761D02*
X58218409Y-130647142D01*
%TO.C,C10*%
X72172142Y-116942857D02*
X72219761Y-116990476D01*
X72219761Y-116990476D02*
X72267380Y-117133333D01*
X72267380Y-117133333D02*
X72267380Y-117228571D01*
X72267380Y-117228571D02*
X72219761Y-117371428D01*
X72219761Y-117371428D02*
X72124523Y-117466666D01*
X72124523Y-117466666D02*
X72029285Y-117514285D01*
X72029285Y-117514285D02*
X71838809Y-117561904D01*
X71838809Y-117561904D02*
X71695952Y-117561904D01*
X71695952Y-117561904D02*
X71505476Y-117514285D01*
X71505476Y-117514285D02*
X71410238Y-117466666D01*
X71410238Y-117466666D02*
X71315000Y-117371428D01*
X71315000Y-117371428D02*
X71267380Y-117228571D01*
X71267380Y-117228571D02*
X71267380Y-117133333D01*
X71267380Y-117133333D02*
X71315000Y-116990476D01*
X71315000Y-116990476D02*
X71362619Y-116942857D01*
X72267380Y-115990476D02*
X72267380Y-116561904D01*
X72267380Y-116276190D02*
X71267380Y-116276190D01*
X71267380Y-116276190D02*
X71410238Y-116371428D01*
X71410238Y-116371428D02*
X71505476Y-116466666D01*
X71505476Y-116466666D02*
X71553095Y-116561904D01*
X71267380Y-115371428D02*
X71267380Y-115276190D01*
X71267380Y-115276190D02*
X71315000Y-115180952D01*
X71315000Y-115180952D02*
X71362619Y-115133333D01*
X71362619Y-115133333D02*
X71457857Y-115085714D01*
X71457857Y-115085714D02*
X71648333Y-115038095D01*
X71648333Y-115038095D02*
X71886428Y-115038095D01*
X71886428Y-115038095D02*
X72076904Y-115085714D01*
X72076904Y-115085714D02*
X72172142Y-115133333D01*
X72172142Y-115133333D02*
X72219761Y-115180952D01*
X72219761Y-115180952D02*
X72267380Y-115276190D01*
X72267380Y-115276190D02*
X72267380Y-115371428D01*
X72267380Y-115371428D02*
X72219761Y-115466666D01*
X72219761Y-115466666D02*
X72172142Y-115514285D01*
X72172142Y-115514285D02*
X72076904Y-115561904D01*
X72076904Y-115561904D02*
X71886428Y-115609523D01*
X71886428Y-115609523D02*
X71648333Y-115609523D01*
X71648333Y-115609523D02*
X71457857Y-115561904D01*
X71457857Y-115561904D02*
X71362619Y-115514285D01*
X71362619Y-115514285D02*
X71315000Y-115466666D01*
X71315000Y-115466666D02*
X71267380Y-115371428D01*
%TO.C,C30*%
X95632694Y-139347142D02*
X95585075Y-139394761D01*
X95585075Y-139394761D02*
X95442218Y-139442380D01*
X95442218Y-139442380D02*
X95346980Y-139442380D01*
X95346980Y-139442380D02*
X95204123Y-139394761D01*
X95204123Y-139394761D02*
X95108885Y-139299523D01*
X95108885Y-139299523D02*
X95061266Y-139204285D01*
X95061266Y-139204285D02*
X95013647Y-139013809D01*
X95013647Y-139013809D02*
X95013647Y-138870952D01*
X95013647Y-138870952D02*
X95061266Y-138680476D01*
X95061266Y-138680476D02*
X95108885Y-138585238D01*
X95108885Y-138585238D02*
X95204123Y-138490000D01*
X95204123Y-138490000D02*
X95346980Y-138442380D01*
X95346980Y-138442380D02*
X95442218Y-138442380D01*
X95442218Y-138442380D02*
X95585075Y-138490000D01*
X95585075Y-138490000D02*
X95632694Y-138537619D01*
X95966028Y-138442380D02*
X96585075Y-138442380D01*
X96585075Y-138442380D02*
X96251742Y-138823333D01*
X96251742Y-138823333D02*
X96394599Y-138823333D01*
X96394599Y-138823333D02*
X96489837Y-138870952D01*
X96489837Y-138870952D02*
X96537456Y-138918571D01*
X96537456Y-138918571D02*
X96585075Y-139013809D01*
X96585075Y-139013809D02*
X96585075Y-139251904D01*
X96585075Y-139251904D02*
X96537456Y-139347142D01*
X96537456Y-139347142D02*
X96489837Y-139394761D01*
X96489837Y-139394761D02*
X96394599Y-139442380D01*
X96394599Y-139442380D02*
X96108885Y-139442380D01*
X96108885Y-139442380D02*
X96013647Y-139394761D01*
X96013647Y-139394761D02*
X95966028Y-139347142D01*
X97204123Y-138442380D02*
X97299361Y-138442380D01*
X97299361Y-138442380D02*
X97394599Y-138490000D01*
X97394599Y-138490000D02*
X97442218Y-138537619D01*
X97442218Y-138537619D02*
X97489837Y-138632857D01*
X97489837Y-138632857D02*
X97537456Y-138823333D01*
X97537456Y-138823333D02*
X97537456Y-139061428D01*
X97537456Y-139061428D02*
X97489837Y-139251904D01*
X97489837Y-139251904D02*
X97442218Y-139347142D01*
X97442218Y-139347142D02*
X97394599Y-139394761D01*
X97394599Y-139394761D02*
X97299361Y-139442380D01*
X97299361Y-139442380D02*
X97204123Y-139442380D01*
X97204123Y-139442380D02*
X97108885Y-139394761D01*
X97108885Y-139394761D02*
X97061266Y-139347142D01*
X97061266Y-139347142D02*
X97013647Y-139251904D01*
X97013647Y-139251904D02*
X96966028Y-139061428D01*
X96966028Y-139061428D02*
X96966028Y-138823333D01*
X96966028Y-138823333D02*
X97013647Y-138632857D01*
X97013647Y-138632857D02*
X97061266Y-138537619D01*
X97061266Y-138537619D02*
X97108885Y-138490000D01*
X97108885Y-138490000D02*
X97204123Y-138442380D01*
%TO.C,R19*%
X87957142Y-138067380D02*
X87623809Y-137591190D01*
X87385714Y-138067380D02*
X87385714Y-137067380D01*
X87385714Y-137067380D02*
X87766666Y-137067380D01*
X87766666Y-137067380D02*
X87861904Y-137115000D01*
X87861904Y-137115000D02*
X87909523Y-137162619D01*
X87909523Y-137162619D02*
X87957142Y-137257857D01*
X87957142Y-137257857D02*
X87957142Y-137400714D01*
X87957142Y-137400714D02*
X87909523Y-137495952D01*
X87909523Y-137495952D02*
X87861904Y-137543571D01*
X87861904Y-137543571D02*
X87766666Y-137591190D01*
X87766666Y-137591190D02*
X87385714Y-137591190D01*
X88909523Y-138067380D02*
X88338095Y-138067380D01*
X88623809Y-138067380D02*
X88623809Y-137067380D01*
X88623809Y-137067380D02*
X88528571Y-137210238D01*
X88528571Y-137210238D02*
X88433333Y-137305476D01*
X88433333Y-137305476D02*
X88338095Y-137353095D01*
X89385714Y-138067380D02*
X89576190Y-138067380D01*
X89576190Y-138067380D02*
X89671428Y-138019761D01*
X89671428Y-138019761D02*
X89719047Y-137972142D01*
X89719047Y-137972142D02*
X89814285Y-137829285D01*
X89814285Y-137829285D02*
X89861904Y-137638809D01*
X89861904Y-137638809D02*
X89861904Y-137257857D01*
X89861904Y-137257857D02*
X89814285Y-137162619D01*
X89814285Y-137162619D02*
X89766666Y-137115000D01*
X89766666Y-137115000D02*
X89671428Y-137067380D01*
X89671428Y-137067380D02*
X89480952Y-137067380D01*
X89480952Y-137067380D02*
X89385714Y-137115000D01*
X89385714Y-137115000D02*
X89338095Y-137162619D01*
X89338095Y-137162619D02*
X89290476Y-137257857D01*
X89290476Y-137257857D02*
X89290476Y-137495952D01*
X89290476Y-137495952D02*
X89338095Y-137591190D01*
X89338095Y-137591190D02*
X89385714Y-137638809D01*
X89385714Y-137638809D02*
X89480952Y-137686428D01*
X89480952Y-137686428D02*
X89671428Y-137686428D01*
X89671428Y-137686428D02*
X89766666Y-137638809D01*
X89766666Y-137638809D02*
X89814285Y-137591190D01*
X89814285Y-137591190D02*
X89861904Y-137495952D01*
%TO.C,C17*%
X105957142Y-120472142D02*
X105909523Y-120519761D01*
X105909523Y-120519761D02*
X105766666Y-120567380D01*
X105766666Y-120567380D02*
X105671428Y-120567380D01*
X105671428Y-120567380D02*
X105528571Y-120519761D01*
X105528571Y-120519761D02*
X105433333Y-120424523D01*
X105433333Y-120424523D02*
X105385714Y-120329285D01*
X105385714Y-120329285D02*
X105338095Y-120138809D01*
X105338095Y-120138809D02*
X105338095Y-119995952D01*
X105338095Y-119995952D02*
X105385714Y-119805476D01*
X105385714Y-119805476D02*
X105433333Y-119710238D01*
X105433333Y-119710238D02*
X105528571Y-119615000D01*
X105528571Y-119615000D02*
X105671428Y-119567380D01*
X105671428Y-119567380D02*
X105766666Y-119567380D01*
X105766666Y-119567380D02*
X105909523Y-119615000D01*
X105909523Y-119615000D02*
X105957142Y-119662619D01*
X106909523Y-120567380D02*
X106338095Y-120567380D01*
X106623809Y-120567380D02*
X106623809Y-119567380D01*
X106623809Y-119567380D02*
X106528571Y-119710238D01*
X106528571Y-119710238D02*
X106433333Y-119805476D01*
X106433333Y-119805476D02*
X106338095Y-119853095D01*
X107242857Y-119567380D02*
X107909523Y-119567380D01*
X107909523Y-119567380D02*
X107480952Y-120567380D01*
%TO.C,J13*%
X79590476Y-150267380D02*
X79590476Y-150981666D01*
X79590476Y-150981666D02*
X79542857Y-151124523D01*
X79542857Y-151124523D02*
X79447619Y-151219761D01*
X79447619Y-151219761D02*
X79304762Y-151267380D01*
X79304762Y-151267380D02*
X79209524Y-151267380D01*
X80590476Y-151267380D02*
X80019048Y-151267380D01*
X80304762Y-151267380D02*
X80304762Y-150267380D01*
X80304762Y-150267380D02*
X80209524Y-150410238D01*
X80209524Y-150410238D02*
X80114286Y-150505476D01*
X80114286Y-150505476D02*
X80019048Y-150553095D01*
X80923810Y-150267380D02*
X81542857Y-150267380D01*
X81542857Y-150267380D02*
X81209524Y-150648333D01*
X81209524Y-150648333D02*
X81352381Y-150648333D01*
X81352381Y-150648333D02*
X81447619Y-150695952D01*
X81447619Y-150695952D02*
X81495238Y-150743571D01*
X81495238Y-150743571D02*
X81542857Y-150838809D01*
X81542857Y-150838809D02*
X81542857Y-151076904D01*
X81542857Y-151076904D02*
X81495238Y-151172142D01*
X81495238Y-151172142D02*
X81447619Y-151219761D01*
X81447619Y-151219761D02*
X81352381Y-151267380D01*
X81352381Y-151267380D02*
X81066667Y-151267380D01*
X81066667Y-151267380D02*
X80971429Y-151219761D01*
X80971429Y-151219761D02*
X80923810Y-151172142D01*
%TO.C,C7*%
X84533333Y-115372142D02*
X84485714Y-115419761D01*
X84485714Y-115419761D02*
X84342857Y-115467380D01*
X84342857Y-115467380D02*
X84247619Y-115467380D01*
X84247619Y-115467380D02*
X84104762Y-115419761D01*
X84104762Y-115419761D02*
X84009524Y-115324523D01*
X84009524Y-115324523D02*
X83961905Y-115229285D01*
X83961905Y-115229285D02*
X83914286Y-115038809D01*
X83914286Y-115038809D02*
X83914286Y-114895952D01*
X83914286Y-114895952D02*
X83961905Y-114705476D01*
X83961905Y-114705476D02*
X84009524Y-114610238D01*
X84009524Y-114610238D02*
X84104762Y-114515000D01*
X84104762Y-114515000D02*
X84247619Y-114467380D01*
X84247619Y-114467380D02*
X84342857Y-114467380D01*
X84342857Y-114467380D02*
X84485714Y-114515000D01*
X84485714Y-114515000D02*
X84533333Y-114562619D01*
X84866667Y-114467380D02*
X85533333Y-114467380D01*
X85533333Y-114467380D02*
X85104762Y-115467380D01*
%TO.C,U1*%
X79638095Y-104667380D02*
X79638095Y-105476904D01*
X79638095Y-105476904D02*
X79685714Y-105572142D01*
X79685714Y-105572142D02*
X79733333Y-105619761D01*
X79733333Y-105619761D02*
X79828571Y-105667380D01*
X79828571Y-105667380D02*
X80019047Y-105667380D01*
X80019047Y-105667380D02*
X80114285Y-105619761D01*
X80114285Y-105619761D02*
X80161904Y-105572142D01*
X80161904Y-105572142D02*
X80209523Y-105476904D01*
X80209523Y-105476904D02*
X80209523Y-104667380D01*
X81209523Y-105667380D02*
X80638095Y-105667380D01*
X80923809Y-105667380D02*
X80923809Y-104667380D01*
X80923809Y-104667380D02*
X80828571Y-104810238D01*
X80828571Y-104810238D02*
X80733333Y-104905476D01*
X80733333Y-104905476D02*
X80638095Y-104953095D01*
%TO.C,C9*%
X70672142Y-116066666D02*
X70719761Y-116114285D01*
X70719761Y-116114285D02*
X70767380Y-116257142D01*
X70767380Y-116257142D02*
X70767380Y-116352380D01*
X70767380Y-116352380D02*
X70719761Y-116495237D01*
X70719761Y-116495237D02*
X70624523Y-116590475D01*
X70624523Y-116590475D02*
X70529285Y-116638094D01*
X70529285Y-116638094D02*
X70338809Y-116685713D01*
X70338809Y-116685713D02*
X70195952Y-116685713D01*
X70195952Y-116685713D02*
X70005476Y-116638094D01*
X70005476Y-116638094D02*
X69910238Y-116590475D01*
X69910238Y-116590475D02*
X69815000Y-116495237D01*
X69815000Y-116495237D02*
X69767380Y-116352380D01*
X69767380Y-116352380D02*
X69767380Y-116257142D01*
X69767380Y-116257142D02*
X69815000Y-116114285D01*
X69815000Y-116114285D02*
X69862619Y-116066666D01*
X70767380Y-115590475D02*
X70767380Y-115399999D01*
X70767380Y-115399999D02*
X70719761Y-115304761D01*
X70719761Y-115304761D02*
X70672142Y-115257142D01*
X70672142Y-115257142D02*
X70529285Y-115161904D01*
X70529285Y-115161904D02*
X70338809Y-115114285D01*
X70338809Y-115114285D02*
X69957857Y-115114285D01*
X69957857Y-115114285D02*
X69862619Y-115161904D01*
X69862619Y-115161904D02*
X69815000Y-115209523D01*
X69815000Y-115209523D02*
X69767380Y-115304761D01*
X69767380Y-115304761D02*
X69767380Y-115495237D01*
X69767380Y-115495237D02*
X69815000Y-115590475D01*
X69815000Y-115590475D02*
X69862619Y-115638094D01*
X69862619Y-115638094D02*
X69957857Y-115685713D01*
X69957857Y-115685713D02*
X70195952Y-115685713D01*
X70195952Y-115685713D02*
X70291190Y-115638094D01*
X70291190Y-115638094D02*
X70338809Y-115590475D01*
X70338809Y-115590475D02*
X70386428Y-115495237D01*
X70386428Y-115495237D02*
X70386428Y-115304761D01*
X70386428Y-115304761D02*
X70338809Y-115209523D01*
X70338809Y-115209523D02*
X70291190Y-115161904D01*
X70291190Y-115161904D02*
X70195952Y-115114285D01*
%TO.C,J1*%
X110447218Y-99092380D02*
X110447218Y-99806666D01*
X110447218Y-99806666D02*
X110399599Y-99949523D01*
X110399599Y-99949523D02*
X110304361Y-100044761D01*
X110304361Y-100044761D02*
X110161504Y-100092380D01*
X110161504Y-100092380D02*
X110066266Y-100092380D01*
X111447218Y-100092380D02*
X110875790Y-100092380D01*
X111161504Y-100092380D02*
X111161504Y-99092380D01*
X111161504Y-99092380D02*
X111066266Y-99235238D01*
X111066266Y-99235238D02*
X110971028Y-99330476D01*
X110971028Y-99330476D02*
X110875790Y-99378095D01*
%TO.C,C21*%
X84372142Y-126742857D02*
X84419761Y-126790476D01*
X84419761Y-126790476D02*
X84467380Y-126933333D01*
X84467380Y-126933333D02*
X84467380Y-127028571D01*
X84467380Y-127028571D02*
X84419761Y-127171428D01*
X84419761Y-127171428D02*
X84324523Y-127266666D01*
X84324523Y-127266666D02*
X84229285Y-127314285D01*
X84229285Y-127314285D02*
X84038809Y-127361904D01*
X84038809Y-127361904D02*
X83895952Y-127361904D01*
X83895952Y-127361904D02*
X83705476Y-127314285D01*
X83705476Y-127314285D02*
X83610238Y-127266666D01*
X83610238Y-127266666D02*
X83515000Y-127171428D01*
X83515000Y-127171428D02*
X83467380Y-127028571D01*
X83467380Y-127028571D02*
X83467380Y-126933333D01*
X83467380Y-126933333D02*
X83515000Y-126790476D01*
X83515000Y-126790476D02*
X83562619Y-126742857D01*
X83562619Y-126361904D02*
X83515000Y-126314285D01*
X83515000Y-126314285D02*
X83467380Y-126219047D01*
X83467380Y-126219047D02*
X83467380Y-125980952D01*
X83467380Y-125980952D02*
X83515000Y-125885714D01*
X83515000Y-125885714D02*
X83562619Y-125838095D01*
X83562619Y-125838095D02*
X83657857Y-125790476D01*
X83657857Y-125790476D02*
X83753095Y-125790476D01*
X83753095Y-125790476D02*
X83895952Y-125838095D01*
X83895952Y-125838095D02*
X84467380Y-126409523D01*
X84467380Y-126409523D02*
X84467380Y-125790476D01*
X84467380Y-124838095D02*
X84467380Y-125409523D01*
X84467380Y-125123809D02*
X83467380Y-125123809D01*
X83467380Y-125123809D02*
X83610238Y-125219047D01*
X83610238Y-125219047D02*
X83705476Y-125314285D01*
X83705476Y-125314285D02*
X83753095Y-125409523D01*
%TO.C,J14*%
X67166028Y-148517380D02*
X67166028Y-149231666D01*
X67166028Y-149231666D02*
X67118409Y-149374523D01*
X67118409Y-149374523D02*
X67023171Y-149469761D01*
X67023171Y-149469761D02*
X66880314Y-149517380D01*
X66880314Y-149517380D02*
X66785076Y-149517380D01*
X68166028Y-149517380D02*
X67594600Y-149517380D01*
X67880314Y-149517380D02*
X67880314Y-148517380D01*
X67880314Y-148517380D02*
X67785076Y-148660238D01*
X67785076Y-148660238D02*
X67689838Y-148755476D01*
X67689838Y-148755476D02*
X67594600Y-148803095D01*
X69023171Y-148850714D02*
X69023171Y-149517380D01*
X68785076Y-148469761D02*
X68546981Y-149184047D01*
X68546981Y-149184047D02*
X69166028Y-149184047D01*
%TO.C,L6*%
X105314838Y-116287380D02*
X104838647Y-116287380D01*
X104838647Y-116287380D02*
X104963647Y-115287380D01*
X106201743Y-115287380D02*
X106011266Y-115287380D01*
X106011266Y-115287380D02*
X105910076Y-115335000D01*
X105910076Y-115335000D02*
X105856504Y-115382619D01*
X105856504Y-115382619D02*
X105743409Y-115525476D01*
X105743409Y-115525476D02*
X105671981Y-115715952D01*
X105671981Y-115715952D02*
X105624362Y-116096904D01*
X105624362Y-116096904D02*
X105660076Y-116192142D01*
X105660076Y-116192142D02*
X105701743Y-116239761D01*
X105701743Y-116239761D02*
X105791028Y-116287380D01*
X105791028Y-116287380D02*
X105981504Y-116287380D01*
X105981504Y-116287380D02*
X106082695Y-116239761D01*
X106082695Y-116239761D02*
X106136266Y-116192142D01*
X106136266Y-116192142D02*
X106195790Y-116096904D01*
X106195790Y-116096904D02*
X106225552Y-115858809D01*
X106225552Y-115858809D02*
X106189838Y-115763571D01*
X106189838Y-115763571D02*
X106148171Y-115715952D01*
X106148171Y-115715952D02*
X106058885Y-115668333D01*
X106058885Y-115668333D02*
X105868409Y-115668333D01*
X105868409Y-115668333D02*
X105767219Y-115715952D01*
X105767219Y-115715952D02*
X105713647Y-115763571D01*
X105713647Y-115763571D02*
X105654124Y-115858809D01*
%TO.C,C13*%
X90157142Y-118672142D02*
X90109523Y-118719761D01*
X90109523Y-118719761D02*
X89966666Y-118767380D01*
X89966666Y-118767380D02*
X89871428Y-118767380D01*
X89871428Y-118767380D02*
X89728571Y-118719761D01*
X89728571Y-118719761D02*
X89633333Y-118624523D01*
X89633333Y-118624523D02*
X89585714Y-118529285D01*
X89585714Y-118529285D02*
X89538095Y-118338809D01*
X89538095Y-118338809D02*
X89538095Y-118195952D01*
X89538095Y-118195952D02*
X89585714Y-118005476D01*
X89585714Y-118005476D02*
X89633333Y-117910238D01*
X89633333Y-117910238D02*
X89728571Y-117815000D01*
X89728571Y-117815000D02*
X89871428Y-117767380D01*
X89871428Y-117767380D02*
X89966666Y-117767380D01*
X89966666Y-117767380D02*
X90109523Y-117815000D01*
X90109523Y-117815000D02*
X90157142Y-117862619D01*
X91109523Y-118767380D02*
X90538095Y-118767380D01*
X90823809Y-118767380D02*
X90823809Y-117767380D01*
X90823809Y-117767380D02*
X90728571Y-117910238D01*
X90728571Y-117910238D02*
X90633333Y-118005476D01*
X90633333Y-118005476D02*
X90538095Y-118053095D01*
X91442857Y-117767380D02*
X92061904Y-117767380D01*
X92061904Y-117767380D02*
X91728571Y-118148333D01*
X91728571Y-118148333D02*
X91871428Y-118148333D01*
X91871428Y-118148333D02*
X91966666Y-118195952D01*
X91966666Y-118195952D02*
X92014285Y-118243571D01*
X92014285Y-118243571D02*
X92061904Y-118338809D01*
X92061904Y-118338809D02*
X92061904Y-118576904D01*
X92061904Y-118576904D02*
X92014285Y-118672142D01*
X92014285Y-118672142D02*
X91966666Y-118719761D01*
X91966666Y-118719761D02*
X91871428Y-118767380D01*
X91871428Y-118767380D02*
X91585714Y-118767380D01*
X91585714Y-118767380D02*
X91490476Y-118719761D01*
X91490476Y-118719761D02*
X91442857Y-118672142D01*
%TO.C,R14*%
X89042932Y-130492857D02*
X88566742Y-130826190D01*
X89042932Y-131064285D02*
X88042932Y-131064285D01*
X88042932Y-131064285D02*
X88042932Y-130683333D01*
X88042932Y-130683333D02*
X88090552Y-130588095D01*
X88090552Y-130588095D02*
X88138171Y-130540476D01*
X88138171Y-130540476D02*
X88233409Y-130492857D01*
X88233409Y-130492857D02*
X88376266Y-130492857D01*
X88376266Y-130492857D02*
X88471504Y-130540476D01*
X88471504Y-130540476D02*
X88519123Y-130588095D01*
X88519123Y-130588095D02*
X88566742Y-130683333D01*
X88566742Y-130683333D02*
X88566742Y-131064285D01*
X89042932Y-129540476D02*
X89042932Y-130111904D01*
X89042932Y-129826190D02*
X88042932Y-129826190D01*
X88042932Y-129826190D02*
X88185790Y-129921428D01*
X88185790Y-129921428D02*
X88281028Y-130016666D01*
X88281028Y-130016666D02*
X88328647Y-130111904D01*
X88376266Y-128683333D02*
X89042932Y-128683333D01*
X87995313Y-128921428D02*
X88709599Y-129159523D01*
X88709599Y-129159523D02*
X88709599Y-128540476D01*
%TO.C,C26*%
X112657142Y-128372142D02*
X112609523Y-128419761D01*
X112609523Y-128419761D02*
X112466666Y-128467380D01*
X112466666Y-128467380D02*
X112371428Y-128467380D01*
X112371428Y-128467380D02*
X112228571Y-128419761D01*
X112228571Y-128419761D02*
X112133333Y-128324523D01*
X112133333Y-128324523D02*
X112085714Y-128229285D01*
X112085714Y-128229285D02*
X112038095Y-128038809D01*
X112038095Y-128038809D02*
X112038095Y-127895952D01*
X112038095Y-127895952D02*
X112085714Y-127705476D01*
X112085714Y-127705476D02*
X112133333Y-127610238D01*
X112133333Y-127610238D02*
X112228571Y-127515000D01*
X112228571Y-127515000D02*
X112371428Y-127467380D01*
X112371428Y-127467380D02*
X112466666Y-127467380D01*
X112466666Y-127467380D02*
X112609523Y-127515000D01*
X112609523Y-127515000D02*
X112657142Y-127562619D01*
X113038095Y-127562619D02*
X113085714Y-127515000D01*
X113085714Y-127515000D02*
X113180952Y-127467380D01*
X113180952Y-127467380D02*
X113419047Y-127467380D01*
X113419047Y-127467380D02*
X113514285Y-127515000D01*
X113514285Y-127515000D02*
X113561904Y-127562619D01*
X113561904Y-127562619D02*
X113609523Y-127657857D01*
X113609523Y-127657857D02*
X113609523Y-127753095D01*
X113609523Y-127753095D02*
X113561904Y-127895952D01*
X113561904Y-127895952D02*
X112990476Y-128467380D01*
X112990476Y-128467380D02*
X113609523Y-128467380D01*
X114466666Y-127467380D02*
X114276190Y-127467380D01*
X114276190Y-127467380D02*
X114180952Y-127515000D01*
X114180952Y-127515000D02*
X114133333Y-127562619D01*
X114133333Y-127562619D02*
X114038095Y-127705476D01*
X114038095Y-127705476D02*
X113990476Y-127895952D01*
X113990476Y-127895952D02*
X113990476Y-128276904D01*
X113990476Y-128276904D02*
X114038095Y-128372142D01*
X114038095Y-128372142D02*
X114085714Y-128419761D01*
X114085714Y-128419761D02*
X114180952Y-128467380D01*
X114180952Y-128467380D02*
X114371428Y-128467380D01*
X114371428Y-128467380D02*
X114466666Y-128419761D01*
X114466666Y-128419761D02*
X114514285Y-128372142D01*
X114514285Y-128372142D02*
X114561904Y-128276904D01*
X114561904Y-128276904D02*
X114561904Y-128038809D01*
X114561904Y-128038809D02*
X114514285Y-127943571D01*
X114514285Y-127943571D02*
X114466666Y-127895952D01*
X114466666Y-127895952D02*
X114371428Y-127848333D01*
X114371428Y-127848333D02*
X114180952Y-127848333D01*
X114180952Y-127848333D02*
X114085714Y-127895952D01*
X114085714Y-127895952D02*
X114038095Y-127943571D01*
X114038095Y-127943571D02*
X113990476Y-128038809D01*
%TO.C,R20*%
X87957142Y-136667380D02*
X87623809Y-136191190D01*
X87385714Y-136667380D02*
X87385714Y-135667380D01*
X87385714Y-135667380D02*
X87766666Y-135667380D01*
X87766666Y-135667380D02*
X87861904Y-135715000D01*
X87861904Y-135715000D02*
X87909523Y-135762619D01*
X87909523Y-135762619D02*
X87957142Y-135857857D01*
X87957142Y-135857857D02*
X87957142Y-136000714D01*
X87957142Y-136000714D02*
X87909523Y-136095952D01*
X87909523Y-136095952D02*
X87861904Y-136143571D01*
X87861904Y-136143571D02*
X87766666Y-136191190D01*
X87766666Y-136191190D02*
X87385714Y-136191190D01*
X88338095Y-135762619D02*
X88385714Y-135715000D01*
X88385714Y-135715000D02*
X88480952Y-135667380D01*
X88480952Y-135667380D02*
X88719047Y-135667380D01*
X88719047Y-135667380D02*
X88814285Y-135715000D01*
X88814285Y-135715000D02*
X88861904Y-135762619D01*
X88861904Y-135762619D02*
X88909523Y-135857857D01*
X88909523Y-135857857D02*
X88909523Y-135953095D01*
X88909523Y-135953095D02*
X88861904Y-136095952D01*
X88861904Y-136095952D02*
X88290476Y-136667380D01*
X88290476Y-136667380D02*
X88909523Y-136667380D01*
X89528571Y-135667380D02*
X89623809Y-135667380D01*
X89623809Y-135667380D02*
X89719047Y-135715000D01*
X89719047Y-135715000D02*
X89766666Y-135762619D01*
X89766666Y-135762619D02*
X89814285Y-135857857D01*
X89814285Y-135857857D02*
X89861904Y-136048333D01*
X89861904Y-136048333D02*
X89861904Y-136286428D01*
X89861904Y-136286428D02*
X89814285Y-136476904D01*
X89814285Y-136476904D02*
X89766666Y-136572142D01*
X89766666Y-136572142D02*
X89719047Y-136619761D01*
X89719047Y-136619761D02*
X89623809Y-136667380D01*
X89623809Y-136667380D02*
X89528571Y-136667380D01*
X89528571Y-136667380D02*
X89433333Y-136619761D01*
X89433333Y-136619761D02*
X89385714Y-136572142D01*
X89385714Y-136572142D02*
X89338095Y-136476904D01*
X89338095Y-136476904D02*
X89290476Y-136286428D01*
X89290476Y-136286428D02*
X89290476Y-136048333D01*
X89290476Y-136048333D02*
X89338095Y-135857857D01*
X89338095Y-135857857D02*
X89385714Y-135762619D01*
X89385714Y-135762619D02*
X89433333Y-135715000D01*
X89433333Y-135715000D02*
X89528571Y-135667380D01*
%TO.C,J12*%
X112590476Y-147267380D02*
X112590476Y-147981666D01*
X112590476Y-147981666D02*
X112542857Y-148124523D01*
X112542857Y-148124523D02*
X112447619Y-148219761D01*
X112447619Y-148219761D02*
X112304762Y-148267380D01*
X112304762Y-148267380D02*
X112209524Y-148267380D01*
X113590476Y-148267380D02*
X113019048Y-148267380D01*
X113304762Y-148267380D02*
X113304762Y-147267380D01*
X113304762Y-147267380D02*
X113209524Y-147410238D01*
X113209524Y-147410238D02*
X113114286Y-147505476D01*
X113114286Y-147505476D02*
X113019048Y-147553095D01*
X113971429Y-147362619D02*
X114019048Y-147315000D01*
X114019048Y-147315000D02*
X114114286Y-147267380D01*
X114114286Y-147267380D02*
X114352381Y-147267380D01*
X114352381Y-147267380D02*
X114447619Y-147315000D01*
X114447619Y-147315000D02*
X114495238Y-147362619D01*
X114495238Y-147362619D02*
X114542857Y-147457857D01*
X114542857Y-147457857D02*
X114542857Y-147553095D01*
X114542857Y-147553095D02*
X114495238Y-147695952D01*
X114495238Y-147695952D02*
X113923810Y-148267380D01*
X113923810Y-148267380D02*
X114542857Y-148267380D01*
%TO.C,L8*%
X84439286Y-118267380D02*
X83963095Y-118267380D01*
X83963095Y-118267380D02*
X84088095Y-117267380D01*
X84986905Y-117695952D02*
X84897619Y-117648333D01*
X84897619Y-117648333D02*
X84855952Y-117600714D01*
X84855952Y-117600714D02*
X84820238Y-117505476D01*
X84820238Y-117505476D02*
X84826191Y-117457857D01*
X84826191Y-117457857D02*
X84885714Y-117362619D01*
X84885714Y-117362619D02*
X84939286Y-117315000D01*
X84939286Y-117315000D02*
X85040476Y-117267380D01*
X85040476Y-117267380D02*
X85230952Y-117267380D01*
X85230952Y-117267380D02*
X85320238Y-117315000D01*
X85320238Y-117315000D02*
X85361905Y-117362619D01*
X85361905Y-117362619D02*
X85397619Y-117457857D01*
X85397619Y-117457857D02*
X85391667Y-117505476D01*
X85391667Y-117505476D02*
X85332143Y-117600714D01*
X85332143Y-117600714D02*
X85278572Y-117648333D01*
X85278572Y-117648333D02*
X85177381Y-117695952D01*
X85177381Y-117695952D02*
X84986905Y-117695952D01*
X84986905Y-117695952D02*
X84885714Y-117743571D01*
X84885714Y-117743571D02*
X84832143Y-117791190D01*
X84832143Y-117791190D02*
X84772619Y-117886428D01*
X84772619Y-117886428D02*
X84748810Y-118076904D01*
X84748810Y-118076904D02*
X84784524Y-118172142D01*
X84784524Y-118172142D02*
X84826191Y-118219761D01*
X84826191Y-118219761D02*
X84915476Y-118267380D01*
X84915476Y-118267380D02*
X85105952Y-118267380D01*
X85105952Y-118267380D02*
X85207143Y-118219761D01*
X85207143Y-118219761D02*
X85260714Y-118172142D01*
X85260714Y-118172142D02*
X85320238Y-118076904D01*
X85320238Y-118076904D02*
X85344048Y-117886428D01*
X85344048Y-117886428D02*
X85308333Y-117791190D01*
X85308333Y-117791190D02*
X85266667Y-117743571D01*
X85266667Y-117743571D02*
X85177381Y-117695952D01*
%TO.C,D4*%
X104267380Y-130938094D02*
X103267380Y-130938094D01*
X103267380Y-130938094D02*
X103267380Y-130699999D01*
X103267380Y-130699999D02*
X103315000Y-130557142D01*
X103315000Y-130557142D02*
X103410238Y-130461904D01*
X103410238Y-130461904D02*
X103505476Y-130414285D01*
X103505476Y-130414285D02*
X103695952Y-130366666D01*
X103695952Y-130366666D02*
X103838809Y-130366666D01*
X103838809Y-130366666D02*
X104029285Y-130414285D01*
X104029285Y-130414285D02*
X104124523Y-130461904D01*
X104124523Y-130461904D02*
X104219761Y-130557142D01*
X104219761Y-130557142D02*
X104267380Y-130699999D01*
X104267380Y-130699999D02*
X104267380Y-130938094D01*
X103600714Y-129509523D02*
X104267380Y-129509523D01*
X103219761Y-129747618D02*
X103934047Y-129985713D01*
X103934047Y-129985713D02*
X103934047Y-129366666D01*
%TO.C,R10*%
X96767380Y-128742857D02*
X96291190Y-129076190D01*
X96767380Y-129314285D02*
X95767380Y-129314285D01*
X95767380Y-129314285D02*
X95767380Y-128933333D01*
X95767380Y-128933333D02*
X95815000Y-128838095D01*
X95815000Y-128838095D02*
X95862619Y-128790476D01*
X95862619Y-128790476D02*
X95957857Y-128742857D01*
X95957857Y-128742857D02*
X96100714Y-128742857D01*
X96100714Y-128742857D02*
X96195952Y-128790476D01*
X96195952Y-128790476D02*
X96243571Y-128838095D01*
X96243571Y-128838095D02*
X96291190Y-128933333D01*
X96291190Y-128933333D02*
X96291190Y-129314285D01*
X96767380Y-127790476D02*
X96767380Y-128361904D01*
X96767380Y-128076190D02*
X95767380Y-128076190D01*
X95767380Y-128076190D02*
X95910238Y-128171428D01*
X95910238Y-128171428D02*
X96005476Y-128266666D01*
X96005476Y-128266666D02*
X96053095Y-128361904D01*
X95767380Y-127171428D02*
X95767380Y-127076190D01*
X95767380Y-127076190D02*
X95815000Y-126980952D01*
X95815000Y-126980952D02*
X95862619Y-126933333D01*
X95862619Y-126933333D02*
X95957857Y-126885714D01*
X95957857Y-126885714D02*
X96148333Y-126838095D01*
X96148333Y-126838095D02*
X96386428Y-126838095D01*
X96386428Y-126838095D02*
X96576904Y-126885714D01*
X96576904Y-126885714D02*
X96672142Y-126933333D01*
X96672142Y-126933333D02*
X96719761Y-126980952D01*
X96719761Y-126980952D02*
X96767380Y-127076190D01*
X96767380Y-127076190D02*
X96767380Y-127171428D01*
X96767380Y-127171428D02*
X96719761Y-127266666D01*
X96719761Y-127266666D02*
X96672142Y-127314285D01*
X96672142Y-127314285D02*
X96576904Y-127361904D01*
X96576904Y-127361904D02*
X96386428Y-127409523D01*
X96386428Y-127409523D02*
X96148333Y-127409523D01*
X96148333Y-127409523D02*
X95957857Y-127361904D01*
X95957857Y-127361904D02*
X95862619Y-127314285D01*
X95862619Y-127314285D02*
X95815000Y-127266666D01*
X95815000Y-127266666D02*
X95767380Y-127171428D01*
%TO.C,R15*%
X82632694Y-131617380D02*
X82299361Y-131141190D01*
X82061266Y-131617380D02*
X82061266Y-130617380D01*
X82061266Y-130617380D02*
X82442218Y-130617380D01*
X82442218Y-130617380D02*
X82537456Y-130665000D01*
X82537456Y-130665000D02*
X82585075Y-130712619D01*
X82585075Y-130712619D02*
X82632694Y-130807857D01*
X82632694Y-130807857D02*
X82632694Y-130950714D01*
X82632694Y-130950714D02*
X82585075Y-131045952D01*
X82585075Y-131045952D02*
X82537456Y-131093571D01*
X82537456Y-131093571D02*
X82442218Y-131141190D01*
X82442218Y-131141190D02*
X82061266Y-131141190D01*
X83585075Y-131617380D02*
X83013647Y-131617380D01*
X83299361Y-131617380D02*
X83299361Y-130617380D01*
X83299361Y-130617380D02*
X83204123Y-130760238D01*
X83204123Y-130760238D02*
X83108885Y-130855476D01*
X83108885Y-130855476D02*
X83013647Y-130903095D01*
X84489837Y-130617380D02*
X84013647Y-130617380D01*
X84013647Y-130617380D02*
X83966028Y-131093571D01*
X83966028Y-131093571D02*
X84013647Y-131045952D01*
X84013647Y-131045952D02*
X84108885Y-130998333D01*
X84108885Y-130998333D02*
X84346980Y-130998333D01*
X84346980Y-130998333D02*
X84442218Y-131045952D01*
X84442218Y-131045952D02*
X84489837Y-131093571D01*
X84489837Y-131093571D02*
X84537456Y-131188809D01*
X84537456Y-131188809D02*
X84537456Y-131426904D01*
X84537456Y-131426904D02*
X84489837Y-131522142D01*
X84489837Y-131522142D02*
X84442218Y-131569761D01*
X84442218Y-131569761D02*
X84346980Y-131617380D01*
X84346980Y-131617380D02*
X84108885Y-131617380D01*
X84108885Y-131617380D02*
X84013647Y-131569761D01*
X84013647Y-131569761D02*
X83966028Y-131522142D01*
%TO.C,R2*%
X88242932Y-106516666D02*
X87766742Y-106849999D01*
X88242932Y-107088094D02*
X87242932Y-107088094D01*
X87242932Y-107088094D02*
X87242932Y-106707142D01*
X87242932Y-106707142D02*
X87290552Y-106611904D01*
X87290552Y-106611904D02*
X87338171Y-106564285D01*
X87338171Y-106564285D02*
X87433409Y-106516666D01*
X87433409Y-106516666D02*
X87576266Y-106516666D01*
X87576266Y-106516666D02*
X87671504Y-106564285D01*
X87671504Y-106564285D02*
X87719123Y-106611904D01*
X87719123Y-106611904D02*
X87766742Y-106707142D01*
X87766742Y-106707142D02*
X87766742Y-107088094D01*
X87338171Y-106135713D02*
X87290552Y-106088094D01*
X87290552Y-106088094D02*
X87242932Y-105992856D01*
X87242932Y-105992856D02*
X87242932Y-105754761D01*
X87242932Y-105754761D02*
X87290552Y-105659523D01*
X87290552Y-105659523D02*
X87338171Y-105611904D01*
X87338171Y-105611904D02*
X87433409Y-105564285D01*
X87433409Y-105564285D02*
X87528647Y-105564285D01*
X87528647Y-105564285D02*
X87671504Y-105611904D01*
X87671504Y-105611904D02*
X88242932Y-106183332D01*
X88242932Y-106183332D02*
X88242932Y-105564285D01*
%TO.C,R16*%
X78267380Y-132542857D02*
X77791190Y-132876190D01*
X78267380Y-133114285D02*
X77267380Y-133114285D01*
X77267380Y-133114285D02*
X77267380Y-132733333D01*
X77267380Y-132733333D02*
X77315000Y-132638095D01*
X77315000Y-132638095D02*
X77362619Y-132590476D01*
X77362619Y-132590476D02*
X77457857Y-132542857D01*
X77457857Y-132542857D02*
X77600714Y-132542857D01*
X77600714Y-132542857D02*
X77695952Y-132590476D01*
X77695952Y-132590476D02*
X77743571Y-132638095D01*
X77743571Y-132638095D02*
X77791190Y-132733333D01*
X77791190Y-132733333D02*
X77791190Y-133114285D01*
X78267380Y-131590476D02*
X78267380Y-132161904D01*
X78267380Y-131876190D02*
X77267380Y-131876190D01*
X77267380Y-131876190D02*
X77410238Y-131971428D01*
X77410238Y-131971428D02*
X77505476Y-132066666D01*
X77505476Y-132066666D02*
X77553095Y-132161904D01*
X77267380Y-130733333D02*
X77267380Y-130923809D01*
X77267380Y-130923809D02*
X77315000Y-131019047D01*
X77315000Y-131019047D02*
X77362619Y-131066666D01*
X77362619Y-131066666D02*
X77505476Y-131161904D01*
X77505476Y-131161904D02*
X77695952Y-131209523D01*
X77695952Y-131209523D02*
X78076904Y-131209523D01*
X78076904Y-131209523D02*
X78172142Y-131161904D01*
X78172142Y-131161904D02*
X78219761Y-131114285D01*
X78219761Y-131114285D02*
X78267380Y-131019047D01*
X78267380Y-131019047D02*
X78267380Y-130828571D01*
X78267380Y-130828571D02*
X78219761Y-130733333D01*
X78219761Y-130733333D02*
X78172142Y-130685714D01*
X78172142Y-130685714D02*
X78076904Y-130638095D01*
X78076904Y-130638095D02*
X77838809Y-130638095D01*
X77838809Y-130638095D02*
X77743571Y-130685714D01*
X77743571Y-130685714D02*
X77695952Y-130733333D01*
X77695952Y-130733333D02*
X77648333Y-130828571D01*
X77648333Y-130828571D02*
X77648333Y-131019047D01*
X77648333Y-131019047D02*
X77695952Y-131114285D01*
X77695952Y-131114285D02*
X77743571Y-131161904D01*
X77743571Y-131161904D02*
X77838809Y-131209523D01*
%TO.C,D3*%
X98467380Y-117638094D02*
X97467380Y-117638094D01*
X97467380Y-117638094D02*
X97467380Y-117399999D01*
X97467380Y-117399999D02*
X97515000Y-117257142D01*
X97515000Y-117257142D02*
X97610238Y-117161904D01*
X97610238Y-117161904D02*
X97705476Y-117114285D01*
X97705476Y-117114285D02*
X97895952Y-117066666D01*
X97895952Y-117066666D02*
X98038809Y-117066666D01*
X98038809Y-117066666D02*
X98229285Y-117114285D01*
X98229285Y-117114285D02*
X98324523Y-117161904D01*
X98324523Y-117161904D02*
X98419761Y-117257142D01*
X98419761Y-117257142D02*
X98467380Y-117399999D01*
X98467380Y-117399999D02*
X98467380Y-117638094D01*
X97467380Y-116733332D02*
X97467380Y-116114285D01*
X97467380Y-116114285D02*
X97848333Y-116447618D01*
X97848333Y-116447618D02*
X97848333Y-116304761D01*
X97848333Y-116304761D02*
X97895952Y-116209523D01*
X97895952Y-116209523D02*
X97943571Y-116161904D01*
X97943571Y-116161904D02*
X98038809Y-116114285D01*
X98038809Y-116114285D02*
X98276904Y-116114285D01*
X98276904Y-116114285D02*
X98372142Y-116161904D01*
X98372142Y-116161904D02*
X98419761Y-116209523D01*
X98419761Y-116209523D02*
X98467380Y-116304761D01*
X98467380Y-116304761D02*
X98467380Y-116590475D01*
X98467380Y-116590475D02*
X98419761Y-116685713D01*
X98419761Y-116685713D02*
X98372142Y-116733332D01*
%TO.C,R18*%
X87957142Y-135367380D02*
X87623809Y-134891190D01*
X87385714Y-135367380D02*
X87385714Y-134367380D01*
X87385714Y-134367380D02*
X87766666Y-134367380D01*
X87766666Y-134367380D02*
X87861904Y-134415000D01*
X87861904Y-134415000D02*
X87909523Y-134462619D01*
X87909523Y-134462619D02*
X87957142Y-134557857D01*
X87957142Y-134557857D02*
X87957142Y-134700714D01*
X87957142Y-134700714D02*
X87909523Y-134795952D01*
X87909523Y-134795952D02*
X87861904Y-134843571D01*
X87861904Y-134843571D02*
X87766666Y-134891190D01*
X87766666Y-134891190D02*
X87385714Y-134891190D01*
X88909523Y-135367380D02*
X88338095Y-135367380D01*
X88623809Y-135367380D02*
X88623809Y-134367380D01*
X88623809Y-134367380D02*
X88528571Y-134510238D01*
X88528571Y-134510238D02*
X88433333Y-134605476D01*
X88433333Y-134605476D02*
X88338095Y-134653095D01*
X89480952Y-134795952D02*
X89385714Y-134748333D01*
X89385714Y-134748333D02*
X89338095Y-134700714D01*
X89338095Y-134700714D02*
X89290476Y-134605476D01*
X89290476Y-134605476D02*
X89290476Y-134557857D01*
X89290476Y-134557857D02*
X89338095Y-134462619D01*
X89338095Y-134462619D02*
X89385714Y-134415000D01*
X89385714Y-134415000D02*
X89480952Y-134367380D01*
X89480952Y-134367380D02*
X89671428Y-134367380D01*
X89671428Y-134367380D02*
X89766666Y-134415000D01*
X89766666Y-134415000D02*
X89814285Y-134462619D01*
X89814285Y-134462619D02*
X89861904Y-134557857D01*
X89861904Y-134557857D02*
X89861904Y-134605476D01*
X89861904Y-134605476D02*
X89814285Y-134700714D01*
X89814285Y-134700714D02*
X89766666Y-134748333D01*
X89766666Y-134748333D02*
X89671428Y-134795952D01*
X89671428Y-134795952D02*
X89480952Y-134795952D01*
X89480952Y-134795952D02*
X89385714Y-134843571D01*
X89385714Y-134843571D02*
X89338095Y-134891190D01*
X89338095Y-134891190D02*
X89290476Y-134986428D01*
X89290476Y-134986428D02*
X89290476Y-135176904D01*
X89290476Y-135176904D02*
X89338095Y-135272142D01*
X89338095Y-135272142D02*
X89385714Y-135319761D01*
X89385714Y-135319761D02*
X89480952Y-135367380D01*
X89480952Y-135367380D02*
X89671428Y-135367380D01*
X89671428Y-135367380D02*
X89766666Y-135319761D01*
X89766666Y-135319761D02*
X89814285Y-135272142D01*
X89814285Y-135272142D02*
X89861904Y-135176904D01*
X89861904Y-135176904D02*
X89861904Y-134986428D01*
X89861904Y-134986428D02*
X89814285Y-134891190D01*
X89814285Y-134891190D02*
X89766666Y-134843571D01*
X89766666Y-134843571D02*
X89671428Y-134795952D01*
%TO.C,U5*%
X87338095Y-138467380D02*
X87338095Y-139276904D01*
X87338095Y-139276904D02*
X87385714Y-139372142D01*
X87385714Y-139372142D02*
X87433333Y-139419761D01*
X87433333Y-139419761D02*
X87528571Y-139467380D01*
X87528571Y-139467380D02*
X87719047Y-139467380D01*
X87719047Y-139467380D02*
X87814285Y-139419761D01*
X87814285Y-139419761D02*
X87861904Y-139372142D01*
X87861904Y-139372142D02*
X87909523Y-139276904D01*
X87909523Y-139276904D02*
X87909523Y-138467380D01*
X88861904Y-138467380D02*
X88385714Y-138467380D01*
X88385714Y-138467380D02*
X88338095Y-138943571D01*
X88338095Y-138943571D02*
X88385714Y-138895952D01*
X88385714Y-138895952D02*
X88480952Y-138848333D01*
X88480952Y-138848333D02*
X88719047Y-138848333D01*
X88719047Y-138848333D02*
X88814285Y-138895952D01*
X88814285Y-138895952D02*
X88861904Y-138943571D01*
X88861904Y-138943571D02*
X88909523Y-139038809D01*
X88909523Y-139038809D02*
X88909523Y-139276904D01*
X88909523Y-139276904D02*
X88861904Y-139372142D01*
X88861904Y-139372142D02*
X88814285Y-139419761D01*
X88814285Y-139419761D02*
X88719047Y-139467380D01*
X88719047Y-139467380D02*
X88480952Y-139467380D01*
X88480952Y-139467380D02*
X88385714Y-139419761D01*
X88385714Y-139419761D02*
X88338095Y-139372142D01*
%TO.C,C32*%
X76457142Y-146772142D02*
X76409523Y-146819761D01*
X76409523Y-146819761D02*
X76266666Y-146867380D01*
X76266666Y-146867380D02*
X76171428Y-146867380D01*
X76171428Y-146867380D02*
X76028571Y-146819761D01*
X76028571Y-146819761D02*
X75933333Y-146724523D01*
X75933333Y-146724523D02*
X75885714Y-146629285D01*
X75885714Y-146629285D02*
X75838095Y-146438809D01*
X75838095Y-146438809D02*
X75838095Y-146295952D01*
X75838095Y-146295952D02*
X75885714Y-146105476D01*
X75885714Y-146105476D02*
X75933333Y-146010238D01*
X75933333Y-146010238D02*
X76028571Y-145915000D01*
X76028571Y-145915000D02*
X76171428Y-145867380D01*
X76171428Y-145867380D02*
X76266666Y-145867380D01*
X76266666Y-145867380D02*
X76409523Y-145915000D01*
X76409523Y-145915000D02*
X76457142Y-145962619D01*
X76790476Y-145867380D02*
X77409523Y-145867380D01*
X77409523Y-145867380D02*
X77076190Y-146248333D01*
X77076190Y-146248333D02*
X77219047Y-146248333D01*
X77219047Y-146248333D02*
X77314285Y-146295952D01*
X77314285Y-146295952D02*
X77361904Y-146343571D01*
X77361904Y-146343571D02*
X77409523Y-146438809D01*
X77409523Y-146438809D02*
X77409523Y-146676904D01*
X77409523Y-146676904D02*
X77361904Y-146772142D01*
X77361904Y-146772142D02*
X77314285Y-146819761D01*
X77314285Y-146819761D02*
X77219047Y-146867380D01*
X77219047Y-146867380D02*
X76933333Y-146867380D01*
X76933333Y-146867380D02*
X76838095Y-146819761D01*
X76838095Y-146819761D02*
X76790476Y-146772142D01*
X77790476Y-145962619D02*
X77838095Y-145915000D01*
X77838095Y-145915000D02*
X77933333Y-145867380D01*
X77933333Y-145867380D02*
X78171428Y-145867380D01*
X78171428Y-145867380D02*
X78266666Y-145915000D01*
X78266666Y-145915000D02*
X78314285Y-145962619D01*
X78314285Y-145962619D02*
X78361904Y-146057857D01*
X78361904Y-146057857D02*
X78361904Y-146153095D01*
X78361904Y-146153095D02*
X78314285Y-146295952D01*
X78314285Y-146295952D02*
X77742857Y-146867380D01*
X77742857Y-146867380D02*
X78361904Y-146867380D01*
%TO.C,C14*%
X100957142Y-119272142D02*
X100909523Y-119319761D01*
X100909523Y-119319761D02*
X100766666Y-119367380D01*
X100766666Y-119367380D02*
X100671428Y-119367380D01*
X100671428Y-119367380D02*
X100528571Y-119319761D01*
X100528571Y-119319761D02*
X100433333Y-119224523D01*
X100433333Y-119224523D02*
X100385714Y-119129285D01*
X100385714Y-119129285D02*
X100338095Y-118938809D01*
X100338095Y-118938809D02*
X100338095Y-118795952D01*
X100338095Y-118795952D02*
X100385714Y-118605476D01*
X100385714Y-118605476D02*
X100433333Y-118510238D01*
X100433333Y-118510238D02*
X100528571Y-118415000D01*
X100528571Y-118415000D02*
X100671428Y-118367380D01*
X100671428Y-118367380D02*
X100766666Y-118367380D01*
X100766666Y-118367380D02*
X100909523Y-118415000D01*
X100909523Y-118415000D02*
X100957142Y-118462619D01*
X101909523Y-119367380D02*
X101338095Y-119367380D01*
X101623809Y-119367380D02*
X101623809Y-118367380D01*
X101623809Y-118367380D02*
X101528571Y-118510238D01*
X101528571Y-118510238D02*
X101433333Y-118605476D01*
X101433333Y-118605476D02*
X101338095Y-118653095D01*
X102766666Y-118700714D02*
X102766666Y-119367380D01*
X102528571Y-118319761D02*
X102290476Y-119034047D01*
X102290476Y-119034047D02*
X102909523Y-119034047D01*
%TO.C,C19*%
X79172142Y-127242857D02*
X79219761Y-127290476D01*
X79219761Y-127290476D02*
X79267380Y-127433333D01*
X79267380Y-127433333D02*
X79267380Y-127528571D01*
X79267380Y-127528571D02*
X79219761Y-127671428D01*
X79219761Y-127671428D02*
X79124523Y-127766666D01*
X79124523Y-127766666D02*
X79029285Y-127814285D01*
X79029285Y-127814285D02*
X78838809Y-127861904D01*
X78838809Y-127861904D02*
X78695952Y-127861904D01*
X78695952Y-127861904D02*
X78505476Y-127814285D01*
X78505476Y-127814285D02*
X78410238Y-127766666D01*
X78410238Y-127766666D02*
X78315000Y-127671428D01*
X78315000Y-127671428D02*
X78267380Y-127528571D01*
X78267380Y-127528571D02*
X78267380Y-127433333D01*
X78267380Y-127433333D02*
X78315000Y-127290476D01*
X78315000Y-127290476D02*
X78362619Y-127242857D01*
X79267380Y-126290476D02*
X79267380Y-126861904D01*
X79267380Y-126576190D02*
X78267380Y-126576190D01*
X78267380Y-126576190D02*
X78410238Y-126671428D01*
X78410238Y-126671428D02*
X78505476Y-126766666D01*
X78505476Y-126766666D02*
X78553095Y-126861904D01*
X79267380Y-125814285D02*
X79267380Y-125623809D01*
X79267380Y-125623809D02*
X79219761Y-125528571D01*
X79219761Y-125528571D02*
X79172142Y-125480952D01*
X79172142Y-125480952D02*
X79029285Y-125385714D01*
X79029285Y-125385714D02*
X78838809Y-125338095D01*
X78838809Y-125338095D02*
X78457857Y-125338095D01*
X78457857Y-125338095D02*
X78362619Y-125385714D01*
X78362619Y-125385714D02*
X78315000Y-125433333D01*
X78315000Y-125433333D02*
X78267380Y-125528571D01*
X78267380Y-125528571D02*
X78267380Y-125719047D01*
X78267380Y-125719047D02*
X78315000Y-125814285D01*
X78315000Y-125814285D02*
X78362619Y-125861904D01*
X78362619Y-125861904D02*
X78457857Y-125909523D01*
X78457857Y-125909523D02*
X78695952Y-125909523D01*
X78695952Y-125909523D02*
X78791190Y-125861904D01*
X78791190Y-125861904D02*
X78838809Y-125814285D01*
X78838809Y-125814285D02*
X78886428Y-125719047D01*
X78886428Y-125719047D02*
X78886428Y-125528571D01*
X78886428Y-125528571D02*
X78838809Y-125433333D01*
X78838809Y-125433333D02*
X78791190Y-125385714D01*
X78791190Y-125385714D02*
X78695952Y-125338095D01*
%TO.C,R12*%
X102567380Y-130442857D02*
X102091190Y-130776190D01*
X102567380Y-131014285D02*
X101567380Y-131014285D01*
X101567380Y-131014285D02*
X101567380Y-130633333D01*
X101567380Y-130633333D02*
X101615000Y-130538095D01*
X101615000Y-130538095D02*
X101662619Y-130490476D01*
X101662619Y-130490476D02*
X101757857Y-130442857D01*
X101757857Y-130442857D02*
X101900714Y-130442857D01*
X101900714Y-130442857D02*
X101995952Y-130490476D01*
X101995952Y-130490476D02*
X102043571Y-130538095D01*
X102043571Y-130538095D02*
X102091190Y-130633333D01*
X102091190Y-130633333D02*
X102091190Y-131014285D01*
X102567380Y-129490476D02*
X102567380Y-130061904D01*
X102567380Y-129776190D02*
X101567380Y-129776190D01*
X101567380Y-129776190D02*
X101710238Y-129871428D01*
X101710238Y-129871428D02*
X101805476Y-129966666D01*
X101805476Y-129966666D02*
X101853095Y-130061904D01*
X101662619Y-129109523D02*
X101615000Y-129061904D01*
X101615000Y-129061904D02*
X101567380Y-128966666D01*
X101567380Y-128966666D02*
X101567380Y-128728571D01*
X101567380Y-128728571D02*
X101615000Y-128633333D01*
X101615000Y-128633333D02*
X101662619Y-128585714D01*
X101662619Y-128585714D02*
X101757857Y-128538095D01*
X101757857Y-128538095D02*
X101853095Y-128538095D01*
X101853095Y-128538095D02*
X101995952Y-128585714D01*
X101995952Y-128585714D02*
X102567380Y-129157142D01*
X102567380Y-129157142D02*
X102567380Y-128538095D01*
%TO.C,C31*%
X70532694Y-148022142D02*
X70485075Y-148069761D01*
X70485075Y-148069761D02*
X70342218Y-148117380D01*
X70342218Y-148117380D02*
X70246980Y-148117380D01*
X70246980Y-148117380D02*
X70104123Y-148069761D01*
X70104123Y-148069761D02*
X70008885Y-147974523D01*
X70008885Y-147974523D02*
X69961266Y-147879285D01*
X69961266Y-147879285D02*
X69913647Y-147688809D01*
X69913647Y-147688809D02*
X69913647Y-147545952D01*
X69913647Y-147545952D02*
X69961266Y-147355476D01*
X69961266Y-147355476D02*
X70008885Y-147260238D01*
X70008885Y-147260238D02*
X70104123Y-147165000D01*
X70104123Y-147165000D02*
X70246980Y-147117380D01*
X70246980Y-147117380D02*
X70342218Y-147117380D01*
X70342218Y-147117380D02*
X70485075Y-147165000D01*
X70485075Y-147165000D02*
X70532694Y-147212619D01*
X70866028Y-147117380D02*
X71485075Y-147117380D01*
X71485075Y-147117380D02*
X71151742Y-147498333D01*
X71151742Y-147498333D02*
X71294599Y-147498333D01*
X71294599Y-147498333D02*
X71389837Y-147545952D01*
X71389837Y-147545952D02*
X71437456Y-147593571D01*
X71437456Y-147593571D02*
X71485075Y-147688809D01*
X71485075Y-147688809D02*
X71485075Y-147926904D01*
X71485075Y-147926904D02*
X71437456Y-148022142D01*
X71437456Y-148022142D02*
X71389837Y-148069761D01*
X71389837Y-148069761D02*
X71294599Y-148117380D01*
X71294599Y-148117380D02*
X71008885Y-148117380D01*
X71008885Y-148117380D02*
X70913647Y-148069761D01*
X70913647Y-148069761D02*
X70866028Y-148022142D01*
X72437456Y-148117380D02*
X71866028Y-148117380D01*
X72151742Y-148117380D02*
X72151742Y-147117380D01*
X72151742Y-147117380D02*
X72056504Y-147260238D01*
X72056504Y-147260238D02*
X71961266Y-147355476D01*
X71961266Y-147355476D02*
X71866028Y-147403095D01*
%TO.C,R5*%
X112733333Y-109067380D02*
X112400000Y-108591190D01*
X112161905Y-109067380D02*
X112161905Y-108067380D01*
X112161905Y-108067380D02*
X112542857Y-108067380D01*
X112542857Y-108067380D02*
X112638095Y-108115000D01*
X112638095Y-108115000D02*
X112685714Y-108162619D01*
X112685714Y-108162619D02*
X112733333Y-108257857D01*
X112733333Y-108257857D02*
X112733333Y-108400714D01*
X112733333Y-108400714D02*
X112685714Y-108495952D01*
X112685714Y-108495952D02*
X112638095Y-108543571D01*
X112638095Y-108543571D02*
X112542857Y-108591190D01*
X112542857Y-108591190D02*
X112161905Y-108591190D01*
X113638095Y-108067380D02*
X113161905Y-108067380D01*
X113161905Y-108067380D02*
X113114286Y-108543571D01*
X113114286Y-108543571D02*
X113161905Y-108495952D01*
X113161905Y-108495952D02*
X113257143Y-108448333D01*
X113257143Y-108448333D02*
X113495238Y-108448333D01*
X113495238Y-108448333D02*
X113590476Y-108495952D01*
X113590476Y-108495952D02*
X113638095Y-108543571D01*
X113638095Y-108543571D02*
X113685714Y-108638809D01*
X113685714Y-108638809D02*
X113685714Y-108876904D01*
X113685714Y-108876904D02*
X113638095Y-108972142D01*
X113638095Y-108972142D02*
X113590476Y-109019761D01*
X113590476Y-109019761D02*
X113495238Y-109067380D01*
X113495238Y-109067380D02*
X113257143Y-109067380D01*
X113257143Y-109067380D02*
X113161905Y-109019761D01*
X113161905Y-109019761D02*
X113114286Y-108972142D01*
%TO.C,C22*%
X87040194Y-124842857D02*
X87087813Y-124890476D01*
X87087813Y-124890476D02*
X87135432Y-125033333D01*
X87135432Y-125033333D02*
X87135432Y-125128571D01*
X87135432Y-125128571D02*
X87087813Y-125271428D01*
X87087813Y-125271428D02*
X86992575Y-125366666D01*
X86992575Y-125366666D02*
X86897337Y-125414285D01*
X86897337Y-125414285D02*
X86706861Y-125461904D01*
X86706861Y-125461904D02*
X86564004Y-125461904D01*
X86564004Y-125461904D02*
X86373528Y-125414285D01*
X86373528Y-125414285D02*
X86278290Y-125366666D01*
X86278290Y-125366666D02*
X86183052Y-125271428D01*
X86183052Y-125271428D02*
X86135432Y-125128571D01*
X86135432Y-125128571D02*
X86135432Y-125033333D01*
X86135432Y-125033333D02*
X86183052Y-124890476D01*
X86183052Y-124890476D02*
X86230671Y-124842857D01*
X86230671Y-124461904D02*
X86183052Y-124414285D01*
X86183052Y-124414285D02*
X86135432Y-124319047D01*
X86135432Y-124319047D02*
X86135432Y-124080952D01*
X86135432Y-124080952D02*
X86183052Y-123985714D01*
X86183052Y-123985714D02*
X86230671Y-123938095D01*
X86230671Y-123938095D02*
X86325909Y-123890476D01*
X86325909Y-123890476D02*
X86421147Y-123890476D01*
X86421147Y-123890476D02*
X86564004Y-123938095D01*
X86564004Y-123938095D02*
X87135432Y-124509523D01*
X87135432Y-124509523D02*
X87135432Y-123890476D01*
X86230671Y-123509523D02*
X86183052Y-123461904D01*
X86183052Y-123461904D02*
X86135432Y-123366666D01*
X86135432Y-123366666D02*
X86135432Y-123128571D01*
X86135432Y-123128571D02*
X86183052Y-123033333D01*
X86183052Y-123033333D02*
X86230671Y-122985714D01*
X86230671Y-122985714D02*
X86325909Y-122938095D01*
X86325909Y-122938095D02*
X86421147Y-122938095D01*
X86421147Y-122938095D02*
X86564004Y-122985714D01*
X86564004Y-122985714D02*
X87135432Y-123557142D01*
X87135432Y-123557142D02*
X87135432Y-122938095D01*
%TO.C,U4*%
X94238095Y-120667380D02*
X94238095Y-121476904D01*
X94238095Y-121476904D02*
X94285714Y-121572142D01*
X94285714Y-121572142D02*
X94333333Y-121619761D01*
X94333333Y-121619761D02*
X94428571Y-121667380D01*
X94428571Y-121667380D02*
X94619047Y-121667380D01*
X94619047Y-121667380D02*
X94714285Y-121619761D01*
X94714285Y-121619761D02*
X94761904Y-121572142D01*
X94761904Y-121572142D02*
X94809523Y-121476904D01*
X94809523Y-121476904D02*
X94809523Y-120667380D01*
X95714285Y-121000714D02*
X95714285Y-121667380D01*
X95476190Y-120619761D02*
X95238095Y-121334047D01*
X95238095Y-121334047D02*
X95857142Y-121334047D01*
%TO.C,R1*%
X80633333Y-104167380D02*
X80300000Y-103691190D01*
X80061905Y-104167380D02*
X80061905Y-103167380D01*
X80061905Y-103167380D02*
X80442857Y-103167380D01*
X80442857Y-103167380D02*
X80538095Y-103215000D01*
X80538095Y-103215000D02*
X80585714Y-103262619D01*
X80585714Y-103262619D02*
X80633333Y-103357857D01*
X80633333Y-103357857D02*
X80633333Y-103500714D01*
X80633333Y-103500714D02*
X80585714Y-103595952D01*
X80585714Y-103595952D02*
X80538095Y-103643571D01*
X80538095Y-103643571D02*
X80442857Y-103691190D01*
X80442857Y-103691190D02*
X80061905Y-103691190D01*
X81585714Y-104167380D02*
X81014286Y-104167380D01*
X81300000Y-104167380D02*
X81300000Y-103167380D01*
X81300000Y-103167380D02*
X81204762Y-103310238D01*
X81204762Y-103310238D02*
X81109524Y-103405476D01*
X81109524Y-103405476D02*
X81014286Y-103453095D01*
%TO.C,D6*%
X87461905Y-133967380D02*
X87461905Y-132967380D01*
X87461905Y-132967380D02*
X87700000Y-132967380D01*
X87700000Y-132967380D02*
X87842857Y-133015000D01*
X87842857Y-133015000D02*
X87938095Y-133110238D01*
X87938095Y-133110238D02*
X87985714Y-133205476D01*
X87985714Y-133205476D02*
X88033333Y-133395952D01*
X88033333Y-133395952D02*
X88033333Y-133538809D01*
X88033333Y-133538809D02*
X87985714Y-133729285D01*
X87985714Y-133729285D02*
X87938095Y-133824523D01*
X87938095Y-133824523D02*
X87842857Y-133919761D01*
X87842857Y-133919761D02*
X87700000Y-133967380D01*
X87700000Y-133967380D02*
X87461905Y-133967380D01*
X88890476Y-132967380D02*
X88700000Y-132967380D01*
X88700000Y-132967380D02*
X88604762Y-133015000D01*
X88604762Y-133015000D02*
X88557143Y-133062619D01*
X88557143Y-133062619D02*
X88461905Y-133205476D01*
X88461905Y-133205476D02*
X88414286Y-133395952D01*
X88414286Y-133395952D02*
X88414286Y-133776904D01*
X88414286Y-133776904D02*
X88461905Y-133872142D01*
X88461905Y-133872142D02*
X88509524Y-133919761D01*
X88509524Y-133919761D02*
X88604762Y-133967380D01*
X88604762Y-133967380D02*
X88795238Y-133967380D01*
X88795238Y-133967380D02*
X88890476Y-133919761D01*
X88890476Y-133919761D02*
X88938095Y-133872142D01*
X88938095Y-133872142D02*
X88985714Y-133776904D01*
X88985714Y-133776904D02*
X88985714Y-133538809D01*
X88985714Y-133538809D02*
X88938095Y-133443571D01*
X88938095Y-133443571D02*
X88890476Y-133395952D01*
X88890476Y-133395952D02*
X88795238Y-133348333D01*
X88795238Y-133348333D02*
X88604762Y-133348333D01*
X88604762Y-133348333D02*
X88509524Y-133395952D01*
X88509524Y-133395952D02*
X88461905Y-133443571D01*
X88461905Y-133443571D02*
X88414286Y-133538809D01*
%TO.C,C4*%
X86687694Y-112016666D02*
X86735313Y-112064285D01*
X86735313Y-112064285D02*
X86782932Y-112207142D01*
X86782932Y-112207142D02*
X86782932Y-112302380D01*
X86782932Y-112302380D02*
X86735313Y-112445237D01*
X86735313Y-112445237D02*
X86640075Y-112540475D01*
X86640075Y-112540475D02*
X86544837Y-112588094D01*
X86544837Y-112588094D02*
X86354361Y-112635713D01*
X86354361Y-112635713D02*
X86211504Y-112635713D01*
X86211504Y-112635713D02*
X86021028Y-112588094D01*
X86021028Y-112588094D02*
X85925790Y-112540475D01*
X85925790Y-112540475D02*
X85830552Y-112445237D01*
X85830552Y-112445237D02*
X85782932Y-112302380D01*
X85782932Y-112302380D02*
X85782932Y-112207142D01*
X85782932Y-112207142D02*
X85830552Y-112064285D01*
X85830552Y-112064285D02*
X85878171Y-112016666D01*
X86116266Y-111159523D02*
X86782932Y-111159523D01*
X85735313Y-111397618D02*
X86449599Y-111635713D01*
X86449599Y-111635713D02*
X86449599Y-111016666D01*
%TO.C,R11*%
X98067380Y-128642857D02*
X97591190Y-128976190D01*
X98067380Y-129214285D02*
X97067380Y-129214285D01*
X97067380Y-129214285D02*
X97067380Y-128833333D01*
X97067380Y-128833333D02*
X97115000Y-128738095D01*
X97115000Y-128738095D02*
X97162619Y-128690476D01*
X97162619Y-128690476D02*
X97257857Y-128642857D01*
X97257857Y-128642857D02*
X97400714Y-128642857D01*
X97400714Y-128642857D02*
X97495952Y-128690476D01*
X97495952Y-128690476D02*
X97543571Y-128738095D01*
X97543571Y-128738095D02*
X97591190Y-128833333D01*
X97591190Y-128833333D02*
X97591190Y-129214285D01*
X98067380Y-127690476D02*
X98067380Y-128261904D01*
X98067380Y-127976190D02*
X97067380Y-127976190D01*
X97067380Y-127976190D02*
X97210238Y-128071428D01*
X97210238Y-128071428D02*
X97305476Y-128166666D01*
X97305476Y-128166666D02*
X97353095Y-128261904D01*
X98067380Y-126738095D02*
X98067380Y-127309523D01*
X98067380Y-127023809D02*
X97067380Y-127023809D01*
X97067380Y-127023809D02*
X97210238Y-127119047D01*
X97210238Y-127119047D02*
X97305476Y-127214285D01*
X97305476Y-127214285D02*
X97353095Y-127309523D01*
%TO.C,R22*%
X84457142Y-148267380D02*
X84123809Y-147791190D01*
X83885714Y-148267380D02*
X83885714Y-147267380D01*
X83885714Y-147267380D02*
X84266666Y-147267380D01*
X84266666Y-147267380D02*
X84361904Y-147315000D01*
X84361904Y-147315000D02*
X84409523Y-147362619D01*
X84409523Y-147362619D02*
X84457142Y-147457857D01*
X84457142Y-147457857D02*
X84457142Y-147600714D01*
X84457142Y-147600714D02*
X84409523Y-147695952D01*
X84409523Y-147695952D02*
X84361904Y-147743571D01*
X84361904Y-147743571D02*
X84266666Y-147791190D01*
X84266666Y-147791190D02*
X83885714Y-147791190D01*
X84838095Y-147362619D02*
X84885714Y-147315000D01*
X84885714Y-147315000D02*
X84980952Y-147267380D01*
X84980952Y-147267380D02*
X85219047Y-147267380D01*
X85219047Y-147267380D02*
X85314285Y-147315000D01*
X85314285Y-147315000D02*
X85361904Y-147362619D01*
X85361904Y-147362619D02*
X85409523Y-147457857D01*
X85409523Y-147457857D02*
X85409523Y-147553095D01*
X85409523Y-147553095D02*
X85361904Y-147695952D01*
X85361904Y-147695952D02*
X84790476Y-148267380D01*
X84790476Y-148267380D02*
X85409523Y-148267380D01*
X85790476Y-147362619D02*
X85838095Y-147315000D01*
X85838095Y-147315000D02*
X85933333Y-147267380D01*
X85933333Y-147267380D02*
X86171428Y-147267380D01*
X86171428Y-147267380D02*
X86266666Y-147315000D01*
X86266666Y-147315000D02*
X86314285Y-147362619D01*
X86314285Y-147362619D02*
X86361904Y-147457857D01*
X86361904Y-147457857D02*
X86361904Y-147553095D01*
X86361904Y-147553095D02*
X86314285Y-147695952D01*
X86314285Y-147695952D02*
X85742857Y-148267380D01*
X85742857Y-148267380D02*
X86361904Y-148267380D01*
%TO.C,C11*%
X77572142Y-116742857D02*
X77619761Y-116790476D01*
X77619761Y-116790476D02*
X77667380Y-116933333D01*
X77667380Y-116933333D02*
X77667380Y-117028571D01*
X77667380Y-117028571D02*
X77619761Y-117171428D01*
X77619761Y-117171428D02*
X77524523Y-117266666D01*
X77524523Y-117266666D02*
X77429285Y-117314285D01*
X77429285Y-117314285D02*
X77238809Y-117361904D01*
X77238809Y-117361904D02*
X77095952Y-117361904D01*
X77095952Y-117361904D02*
X76905476Y-117314285D01*
X76905476Y-117314285D02*
X76810238Y-117266666D01*
X76810238Y-117266666D02*
X76715000Y-117171428D01*
X76715000Y-117171428D02*
X76667380Y-117028571D01*
X76667380Y-117028571D02*
X76667380Y-116933333D01*
X76667380Y-116933333D02*
X76715000Y-116790476D01*
X76715000Y-116790476D02*
X76762619Y-116742857D01*
X77667380Y-115790476D02*
X77667380Y-116361904D01*
X77667380Y-116076190D02*
X76667380Y-116076190D01*
X76667380Y-116076190D02*
X76810238Y-116171428D01*
X76810238Y-116171428D02*
X76905476Y-116266666D01*
X76905476Y-116266666D02*
X76953095Y-116361904D01*
X77667380Y-114838095D02*
X77667380Y-115409523D01*
X77667380Y-115123809D02*
X76667380Y-115123809D01*
X76667380Y-115123809D02*
X76810238Y-115219047D01*
X76810238Y-115219047D02*
X76905476Y-115314285D01*
X76905476Y-115314285D02*
X76953095Y-115409523D01*
%TO.C,J2*%
X62366666Y-101967380D02*
X62366666Y-102681666D01*
X62366666Y-102681666D02*
X62319047Y-102824523D01*
X62319047Y-102824523D02*
X62223809Y-102919761D01*
X62223809Y-102919761D02*
X62080952Y-102967380D01*
X62080952Y-102967380D02*
X61985714Y-102967380D01*
X62795238Y-102062619D02*
X62842857Y-102015000D01*
X62842857Y-102015000D02*
X62938095Y-101967380D01*
X62938095Y-101967380D02*
X63176190Y-101967380D01*
X63176190Y-101967380D02*
X63271428Y-102015000D01*
X63271428Y-102015000D02*
X63319047Y-102062619D01*
X63319047Y-102062619D02*
X63366666Y-102157857D01*
X63366666Y-102157857D02*
X63366666Y-102253095D01*
X63366666Y-102253095D02*
X63319047Y-102395952D01*
X63319047Y-102395952D02*
X62747619Y-102967380D01*
X62747619Y-102967380D02*
X63366666Y-102967380D01*
%TO.C,L7*%
X109808885Y-116187380D02*
X109332695Y-116187380D01*
X109332695Y-116187380D02*
X109332695Y-115187380D01*
X110046981Y-115187380D02*
X110713647Y-115187380D01*
X110713647Y-115187380D02*
X110285076Y-116187380D01*
%TO.C,L5*%
X84633333Y-116867380D02*
X84157143Y-116867380D01*
X84157143Y-116867380D02*
X84157143Y-115867380D01*
X85442857Y-115867380D02*
X84966667Y-115867380D01*
X84966667Y-115867380D02*
X84919048Y-116343571D01*
X84919048Y-116343571D02*
X84966667Y-116295952D01*
X84966667Y-116295952D02*
X85061905Y-116248333D01*
X85061905Y-116248333D02*
X85300000Y-116248333D01*
X85300000Y-116248333D02*
X85395238Y-116295952D01*
X85395238Y-116295952D02*
X85442857Y-116343571D01*
X85442857Y-116343571D02*
X85490476Y-116438809D01*
X85490476Y-116438809D02*
X85490476Y-116676904D01*
X85490476Y-116676904D02*
X85442857Y-116772142D01*
X85442857Y-116772142D02*
X85395238Y-116819761D01*
X85395238Y-116819761D02*
X85300000Y-116867380D01*
X85300000Y-116867380D02*
X85061905Y-116867380D01*
X85061905Y-116867380D02*
X84966667Y-116819761D01*
X84966667Y-116819761D02*
X84919048Y-116772142D01*
%TO.C,L13*%
X99467380Y-129242857D02*
X99467380Y-129719047D01*
X99467380Y-129719047D02*
X98467380Y-129719047D01*
X99467380Y-128385714D02*
X99467380Y-128957142D01*
X99467380Y-128671428D02*
X98467380Y-128671428D01*
X98467380Y-128671428D02*
X98610238Y-128766666D01*
X98610238Y-128766666D02*
X98705476Y-128861904D01*
X98705476Y-128861904D02*
X98753095Y-128957142D01*
X98467380Y-128052380D02*
X98467380Y-127433333D01*
X98467380Y-127433333D02*
X98848333Y-127766666D01*
X98848333Y-127766666D02*
X98848333Y-127623809D01*
X98848333Y-127623809D02*
X98895952Y-127528571D01*
X98895952Y-127528571D02*
X98943571Y-127480952D01*
X98943571Y-127480952D02*
X99038809Y-127433333D01*
X99038809Y-127433333D02*
X99276904Y-127433333D01*
X99276904Y-127433333D02*
X99372142Y-127480952D01*
X99372142Y-127480952D02*
X99419761Y-127528571D01*
X99419761Y-127528571D02*
X99467380Y-127623809D01*
X99467380Y-127623809D02*
X99467380Y-127909523D01*
X99467380Y-127909523D02*
X99419761Y-128004761D01*
X99419761Y-128004761D02*
X99372142Y-128052380D01*
%TO.C,L9*%
X82333333Y-119967380D02*
X81857143Y-119967380D01*
X81857143Y-119967380D02*
X81857143Y-118967380D01*
X82714286Y-119967380D02*
X82904762Y-119967380D01*
X82904762Y-119967380D02*
X83000000Y-119919761D01*
X83000000Y-119919761D02*
X83047619Y-119872142D01*
X83047619Y-119872142D02*
X83142857Y-119729285D01*
X83142857Y-119729285D02*
X83190476Y-119538809D01*
X83190476Y-119538809D02*
X83190476Y-119157857D01*
X83190476Y-119157857D02*
X83142857Y-119062619D01*
X83142857Y-119062619D02*
X83095238Y-119015000D01*
X83095238Y-119015000D02*
X83000000Y-118967380D01*
X83000000Y-118967380D02*
X82809524Y-118967380D01*
X82809524Y-118967380D02*
X82714286Y-119015000D01*
X82714286Y-119015000D02*
X82666667Y-119062619D01*
X82666667Y-119062619D02*
X82619048Y-119157857D01*
X82619048Y-119157857D02*
X82619048Y-119395952D01*
X82619048Y-119395952D02*
X82666667Y-119491190D01*
X82666667Y-119491190D02*
X82714286Y-119538809D01*
X82714286Y-119538809D02*
X82809524Y-119586428D01*
X82809524Y-119586428D02*
X83000000Y-119586428D01*
X83000000Y-119586428D02*
X83095238Y-119538809D01*
X83095238Y-119538809D02*
X83142857Y-119491190D01*
X83142857Y-119491190D02*
X83190476Y-119395952D01*
%TO.C,C23*%
X102957142Y-124072142D02*
X102909523Y-124119761D01*
X102909523Y-124119761D02*
X102766666Y-124167380D01*
X102766666Y-124167380D02*
X102671428Y-124167380D01*
X102671428Y-124167380D02*
X102528571Y-124119761D01*
X102528571Y-124119761D02*
X102433333Y-124024523D01*
X102433333Y-124024523D02*
X102385714Y-123929285D01*
X102385714Y-123929285D02*
X102338095Y-123738809D01*
X102338095Y-123738809D02*
X102338095Y-123595952D01*
X102338095Y-123595952D02*
X102385714Y-123405476D01*
X102385714Y-123405476D02*
X102433333Y-123310238D01*
X102433333Y-123310238D02*
X102528571Y-123215000D01*
X102528571Y-123215000D02*
X102671428Y-123167380D01*
X102671428Y-123167380D02*
X102766666Y-123167380D01*
X102766666Y-123167380D02*
X102909523Y-123215000D01*
X102909523Y-123215000D02*
X102957142Y-123262619D01*
X103338095Y-123262619D02*
X103385714Y-123215000D01*
X103385714Y-123215000D02*
X103480952Y-123167380D01*
X103480952Y-123167380D02*
X103719047Y-123167380D01*
X103719047Y-123167380D02*
X103814285Y-123215000D01*
X103814285Y-123215000D02*
X103861904Y-123262619D01*
X103861904Y-123262619D02*
X103909523Y-123357857D01*
X103909523Y-123357857D02*
X103909523Y-123453095D01*
X103909523Y-123453095D02*
X103861904Y-123595952D01*
X103861904Y-123595952D02*
X103290476Y-124167380D01*
X103290476Y-124167380D02*
X103909523Y-124167380D01*
X104242857Y-123167380D02*
X104861904Y-123167380D01*
X104861904Y-123167380D02*
X104528571Y-123548333D01*
X104528571Y-123548333D02*
X104671428Y-123548333D01*
X104671428Y-123548333D02*
X104766666Y-123595952D01*
X104766666Y-123595952D02*
X104814285Y-123643571D01*
X104814285Y-123643571D02*
X104861904Y-123738809D01*
X104861904Y-123738809D02*
X104861904Y-123976904D01*
X104861904Y-123976904D02*
X104814285Y-124072142D01*
X104814285Y-124072142D02*
X104766666Y-124119761D01*
X104766666Y-124119761D02*
X104671428Y-124167380D01*
X104671428Y-124167380D02*
X104385714Y-124167380D01*
X104385714Y-124167380D02*
X104290476Y-124119761D01*
X104290476Y-124119761D02*
X104242857Y-124072142D01*
%TO.C,C20*%
X76072142Y-125042857D02*
X76119761Y-125090476D01*
X76119761Y-125090476D02*
X76167380Y-125233333D01*
X76167380Y-125233333D02*
X76167380Y-125328571D01*
X76167380Y-125328571D02*
X76119761Y-125471428D01*
X76119761Y-125471428D02*
X76024523Y-125566666D01*
X76024523Y-125566666D02*
X75929285Y-125614285D01*
X75929285Y-125614285D02*
X75738809Y-125661904D01*
X75738809Y-125661904D02*
X75595952Y-125661904D01*
X75595952Y-125661904D02*
X75405476Y-125614285D01*
X75405476Y-125614285D02*
X75310238Y-125566666D01*
X75310238Y-125566666D02*
X75215000Y-125471428D01*
X75215000Y-125471428D02*
X75167380Y-125328571D01*
X75167380Y-125328571D02*
X75167380Y-125233333D01*
X75167380Y-125233333D02*
X75215000Y-125090476D01*
X75215000Y-125090476D02*
X75262619Y-125042857D01*
X75262619Y-124661904D02*
X75215000Y-124614285D01*
X75215000Y-124614285D02*
X75167380Y-124519047D01*
X75167380Y-124519047D02*
X75167380Y-124280952D01*
X75167380Y-124280952D02*
X75215000Y-124185714D01*
X75215000Y-124185714D02*
X75262619Y-124138095D01*
X75262619Y-124138095D02*
X75357857Y-124090476D01*
X75357857Y-124090476D02*
X75453095Y-124090476D01*
X75453095Y-124090476D02*
X75595952Y-124138095D01*
X75595952Y-124138095D02*
X76167380Y-124709523D01*
X76167380Y-124709523D02*
X76167380Y-124090476D01*
X75167380Y-123471428D02*
X75167380Y-123376190D01*
X75167380Y-123376190D02*
X75215000Y-123280952D01*
X75215000Y-123280952D02*
X75262619Y-123233333D01*
X75262619Y-123233333D02*
X75357857Y-123185714D01*
X75357857Y-123185714D02*
X75548333Y-123138095D01*
X75548333Y-123138095D02*
X75786428Y-123138095D01*
X75786428Y-123138095D02*
X75976904Y-123185714D01*
X75976904Y-123185714D02*
X76072142Y-123233333D01*
X76072142Y-123233333D02*
X76119761Y-123280952D01*
X76119761Y-123280952D02*
X76167380Y-123376190D01*
X76167380Y-123376190D02*
X76167380Y-123471428D01*
X76167380Y-123471428D02*
X76119761Y-123566666D01*
X76119761Y-123566666D02*
X76072142Y-123614285D01*
X76072142Y-123614285D02*
X75976904Y-123661904D01*
X75976904Y-123661904D02*
X75786428Y-123709523D01*
X75786428Y-123709523D02*
X75548333Y-123709523D01*
X75548333Y-123709523D02*
X75357857Y-123661904D01*
X75357857Y-123661904D02*
X75262619Y-123614285D01*
X75262619Y-123614285D02*
X75215000Y-123566666D01*
X75215000Y-123566666D02*
X75167380Y-123471428D01*
%TO.C,C15*%
X112257142Y-119072142D02*
X112209523Y-119119761D01*
X112209523Y-119119761D02*
X112066666Y-119167380D01*
X112066666Y-119167380D02*
X111971428Y-119167380D01*
X111971428Y-119167380D02*
X111828571Y-119119761D01*
X111828571Y-119119761D02*
X111733333Y-119024523D01*
X111733333Y-119024523D02*
X111685714Y-118929285D01*
X111685714Y-118929285D02*
X111638095Y-118738809D01*
X111638095Y-118738809D02*
X111638095Y-118595952D01*
X111638095Y-118595952D02*
X111685714Y-118405476D01*
X111685714Y-118405476D02*
X111733333Y-118310238D01*
X111733333Y-118310238D02*
X111828571Y-118215000D01*
X111828571Y-118215000D02*
X111971428Y-118167380D01*
X111971428Y-118167380D02*
X112066666Y-118167380D01*
X112066666Y-118167380D02*
X112209523Y-118215000D01*
X112209523Y-118215000D02*
X112257142Y-118262619D01*
X113209523Y-119167380D02*
X112638095Y-119167380D01*
X112923809Y-119167380D02*
X112923809Y-118167380D01*
X112923809Y-118167380D02*
X112828571Y-118310238D01*
X112828571Y-118310238D02*
X112733333Y-118405476D01*
X112733333Y-118405476D02*
X112638095Y-118453095D01*
X114114285Y-118167380D02*
X113638095Y-118167380D01*
X113638095Y-118167380D02*
X113590476Y-118643571D01*
X113590476Y-118643571D02*
X113638095Y-118595952D01*
X113638095Y-118595952D02*
X113733333Y-118548333D01*
X113733333Y-118548333D02*
X113971428Y-118548333D01*
X113971428Y-118548333D02*
X114066666Y-118595952D01*
X114066666Y-118595952D02*
X114114285Y-118643571D01*
X114114285Y-118643571D02*
X114161904Y-118738809D01*
X114161904Y-118738809D02*
X114161904Y-118976904D01*
X114161904Y-118976904D02*
X114114285Y-119072142D01*
X114114285Y-119072142D02*
X114066666Y-119119761D01*
X114066666Y-119119761D02*
X113971428Y-119167380D01*
X113971428Y-119167380D02*
X113733333Y-119167380D01*
X113733333Y-119167380D02*
X113638095Y-119119761D01*
X113638095Y-119119761D02*
X113590476Y-119072142D01*
%TO.C,C2*%
X85372142Y-103266666D02*
X85419761Y-103314285D01*
X85419761Y-103314285D02*
X85467380Y-103457142D01*
X85467380Y-103457142D02*
X85467380Y-103552380D01*
X85467380Y-103552380D02*
X85419761Y-103695237D01*
X85419761Y-103695237D02*
X85324523Y-103790475D01*
X85324523Y-103790475D02*
X85229285Y-103838094D01*
X85229285Y-103838094D02*
X85038809Y-103885713D01*
X85038809Y-103885713D02*
X84895952Y-103885713D01*
X84895952Y-103885713D02*
X84705476Y-103838094D01*
X84705476Y-103838094D02*
X84610238Y-103790475D01*
X84610238Y-103790475D02*
X84515000Y-103695237D01*
X84515000Y-103695237D02*
X84467380Y-103552380D01*
X84467380Y-103552380D02*
X84467380Y-103457142D01*
X84467380Y-103457142D02*
X84515000Y-103314285D01*
X84515000Y-103314285D02*
X84562619Y-103266666D01*
X84562619Y-102885713D02*
X84515000Y-102838094D01*
X84515000Y-102838094D02*
X84467380Y-102742856D01*
X84467380Y-102742856D02*
X84467380Y-102504761D01*
X84467380Y-102504761D02*
X84515000Y-102409523D01*
X84515000Y-102409523D02*
X84562619Y-102361904D01*
X84562619Y-102361904D02*
X84657857Y-102314285D01*
X84657857Y-102314285D02*
X84753095Y-102314285D01*
X84753095Y-102314285D02*
X84895952Y-102361904D01*
X84895952Y-102361904D02*
X85467380Y-102933332D01*
X85467380Y-102933332D02*
X85467380Y-102314285D01*
%TO.C,C6*%
X103687694Y-111316666D02*
X103735313Y-111364285D01*
X103735313Y-111364285D02*
X103782932Y-111507142D01*
X103782932Y-111507142D02*
X103782932Y-111602380D01*
X103782932Y-111602380D02*
X103735313Y-111745237D01*
X103735313Y-111745237D02*
X103640075Y-111840475D01*
X103640075Y-111840475D02*
X103544837Y-111888094D01*
X103544837Y-111888094D02*
X103354361Y-111935713D01*
X103354361Y-111935713D02*
X103211504Y-111935713D01*
X103211504Y-111935713D02*
X103021028Y-111888094D01*
X103021028Y-111888094D02*
X102925790Y-111840475D01*
X102925790Y-111840475D02*
X102830552Y-111745237D01*
X102830552Y-111745237D02*
X102782932Y-111602380D01*
X102782932Y-111602380D02*
X102782932Y-111507142D01*
X102782932Y-111507142D02*
X102830552Y-111364285D01*
X102830552Y-111364285D02*
X102878171Y-111316666D01*
X102782932Y-110459523D02*
X102782932Y-110649999D01*
X102782932Y-110649999D02*
X102830552Y-110745237D01*
X102830552Y-110745237D02*
X102878171Y-110792856D01*
X102878171Y-110792856D02*
X103021028Y-110888094D01*
X103021028Y-110888094D02*
X103211504Y-110935713D01*
X103211504Y-110935713D02*
X103592456Y-110935713D01*
X103592456Y-110935713D02*
X103687694Y-110888094D01*
X103687694Y-110888094D02*
X103735313Y-110840475D01*
X103735313Y-110840475D02*
X103782932Y-110745237D01*
X103782932Y-110745237D02*
X103782932Y-110554761D01*
X103782932Y-110554761D02*
X103735313Y-110459523D01*
X103735313Y-110459523D02*
X103687694Y-110411904D01*
X103687694Y-110411904D02*
X103592456Y-110364285D01*
X103592456Y-110364285D02*
X103354361Y-110364285D01*
X103354361Y-110364285D02*
X103259123Y-110411904D01*
X103259123Y-110411904D02*
X103211504Y-110459523D01*
X103211504Y-110459523D02*
X103163885Y-110554761D01*
X103163885Y-110554761D02*
X103163885Y-110745237D01*
X103163885Y-110745237D02*
X103211504Y-110840475D01*
X103211504Y-110840475D02*
X103259123Y-110888094D01*
X103259123Y-110888094D02*
X103354361Y-110935713D01*
%TO.C,L3*%
X92712932Y-110210713D02*
X92712932Y-110686904D01*
X92712932Y-110686904D02*
X91712932Y-110561904D01*
X91712932Y-109847618D02*
X91712932Y-109228570D01*
X91712932Y-109228570D02*
X92093885Y-109609523D01*
X92093885Y-109609523D02*
X92093885Y-109466666D01*
X92093885Y-109466666D02*
X92141504Y-109377380D01*
X92141504Y-109377380D02*
X92189123Y-109335713D01*
X92189123Y-109335713D02*
X92284361Y-109299999D01*
X92284361Y-109299999D02*
X92522456Y-109329761D01*
X92522456Y-109329761D02*
X92617694Y-109389285D01*
X92617694Y-109389285D02*
X92665313Y-109442856D01*
X92665313Y-109442856D02*
X92712932Y-109544047D01*
X92712932Y-109544047D02*
X92712932Y-109829761D01*
X92712932Y-109829761D02*
X92665313Y-109919047D01*
X92665313Y-109919047D02*
X92617694Y-109960713D01*
%TO.C,R9*%
X90167380Y-127066666D02*
X89691190Y-127399999D01*
X90167380Y-127638094D02*
X89167380Y-127638094D01*
X89167380Y-127638094D02*
X89167380Y-127257142D01*
X89167380Y-127257142D02*
X89215000Y-127161904D01*
X89215000Y-127161904D02*
X89262619Y-127114285D01*
X89262619Y-127114285D02*
X89357857Y-127066666D01*
X89357857Y-127066666D02*
X89500714Y-127066666D01*
X89500714Y-127066666D02*
X89595952Y-127114285D01*
X89595952Y-127114285D02*
X89643571Y-127161904D01*
X89643571Y-127161904D02*
X89691190Y-127257142D01*
X89691190Y-127257142D02*
X89691190Y-127638094D01*
X90167380Y-126590475D02*
X90167380Y-126399999D01*
X90167380Y-126399999D02*
X90119761Y-126304761D01*
X90119761Y-126304761D02*
X90072142Y-126257142D01*
X90072142Y-126257142D02*
X89929285Y-126161904D01*
X89929285Y-126161904D02*
X89738809Y-126114285D01*
X89738809Y-126114285D02*
X89357857Y-126114285D01*
X89357857Y-126114285D02*
X89262619Y-126161904D01*
X89262619Y-126161904D02*
X89215000Y-126209523D01*
X89215000Y-126209523D02*
X89167380Y-126304761D01*
X89167380Y-126304761D02*
X89167380Y-126495237D01*
X89167380Y-126495237D02*
X89215000Y-126590475D01*
X89215000Y-126590475D02*
X89262619Y-126638094D01*
X89262619Y-126638094D02*
X89357857Y-126685713D01*
X89357857Y-126685713D02*
X89595952Y-126685713D01*
X89595952Y-126685713D02*
X89691190Y-126638094D01*
X89691190Y-126638094D02*
X89738809Y-126590475D01*
X89738809Y-126590475D02*
X89786428Y-126495237D01*
X89786428Y-126495237D02*
X89786428Y-126304761D01*
X89786428Y-126304761D02*
X89738809Y-126209523D01*
X89738809Y-126209523D02*
X89691190Y-126161904D01*
X89691190Y-126161904D02*
X89595952Y-126114285D01*
%TO.C,R6*%
X95772932Y-114716666D02*
X95296742Y-115049999D01*
X95772932Y-115288094D02*
X94772932Y-115288094D01*
X94772932Y-115288094D02*
X94772932Y-114907142D01*
X94772932Y-114907142D02*
X94820552Y-114811904D01*
X94820552Y-114811904D02*
X94868171Y-114764285D01*
X94868171Y-114764285D02*
X94963409Y-114716666D01*
X94963409Y-114716666D02*
X95106266Y-114716666D01*
X95106266Y-114716666D02*
X95201504Y-114764285D01*
X95201504Y-114764285D02*
X95249123Y-114811904D01*
X95249123Y-114811904D02*
X95296742Y-114907142D01*
X95296742Y-114907142D02*
X95296742Y-115288094D01*
X94772932Y-113859523D02*
X94772932Y-114049999D01*
X94772932Y-114049999D02*
X94820552Y-114145237D01*
X94820552Y-114145237D02*
X94868171Y-114192856D01*
X94868171Y-114192856D02*
X95011028Y-114288094D01*
X95011028Y-114288094D02*
X95201504Y-114335713D01*
X95201504Y-114335713D02*
X95582456Y-114335713D01*
X95582456Y-114335713D02*
X95677694Y-114288094D01*
X95677694Y-114288094D02*
X95725313Y-114240475D01*
X95725313Y-114240475D02*
X95772932Y-114145237D01*
X95772932Y-114145237D02*
X95772932Y-113954761D01*
X95772932Y-113954761D02*
X95725313Y-113859523D01*
X95725313Y-113859523D02*
X95677694Y-113811904D01*
X95677694Y-113811904D02*
X95582456Y-113764285D01*
X95582456Y-113764285D02*
X95344361Y-113764285D01*
X95344361Y-113764285D02*
X95249123Y-113811904D01*
X95249123Y-113811904D02*
X95201504Y-113859523D01*
X95201504Y-113859523D02*
X95153885Y-113954761D01*
X95153885Y-113954761D02*
X95153885Y-114145237D01*
X95153885Y-114145237D02*
X95201504Y-114240475D01*
X95201504Y-114240475D02*
X95249123Y-114288094D01*
X95249123Y-114288094D02*
X95344361Y-114335713D01*
%TO.C,J3*%
X79666666Y-99292380D02*
X79666666Y-100006666D01*
X79666666Y-100006666D02*
X79619047Y-100149523D01*
X79619047Y-100149523D02*
X79523809Y-100244761D01*
X79523809Y-100244761D02*
X79380952Y-100292380D01*
X79380952Y-100292380D02*
X79285714Y-100292380D01*
X80047619Y-99292380D02*
X80666666Y-99292380D01*
X80666666Y-99292380D02*
X80333333Y-99673333D01*
X80333333Y-99673333D02*
X80476190Y-99673333D01*
X80476190Y-99673333D02*
X80571428Y-99720952D01*
X80571428Y-99720952D02*
X80619047Y-99768571D01*
X80619047Y-99768571D02*
X80666666Y-99863809D01*
X80666666Y-99863809D02*
X80666666Y-100101904D01*
X80666666Y-100101904D02*
X80619047Y-100197142D01*
X80619047Y-100197142D02*
X80571428Y-100244761D01*
X80571428Y-100244761D02*
X80476190Y-100292380D01*
X80476190Y-100292380D02*
X80190476Y-100292380D01*
X80190476Y-100292380D02*
X80095238Y-100244761D01*
X80095238Y-100244761D02*
X80047619Y-100197142D01*
%TO.C,D1*%
X104961905Y-107467380D02*
X104961905Y-106467380D01*
X104961905Y-106467380D02*
X105200000Y-106467380D01*
X105200000Y-106467380D02*
X105342857Y-106515000D01*
X105342857Y-106515000D02*
X105438095Y-106610238D01*
X105438095Y-106610238D02*
X105485714Y-106705476D01*
X105485714Y-106705476D02*
X105533333Y-106895952D01*
X105533333Y-106895952D02*
X105533333Y-107038809D01*
X105533333Y-107038809D02*
X105485714Y-107229285D01*
X105485714Y-107229285D02*
X105438095Y-107324523D01*
X105438095Y-107324523D02*
X105342857Y-107419761D01*
X105342857Y-107419761D02*
X105200000Y-107467380D01*
X105200000Y-107467380D02*
X104961905Y-107467380D01*
X106485714Y-107467380D02*
X105914286Y-107467380D01*
X106200000Y-107467380D02*
X106200000Y-106467380D01*
X106200000Y-106467380D02*
X106104762Y-106610238D01*
X106104762Y-106610238D02*
X106009524Y-106705476D01*
X106009524Y-106705476D02*
X105914286Y-106753095D01*
%TO.C,J7*%
X119847218Y-120997380D02*
X119847218Y-121711666D01*
X119847218Y-121711666D02*
X119799599Y-121854523D01*
X119799599Y-121854523D02*
X119704361Y-121949761D01*
X119704361Y-121949761D02*
X119561504Y-121997380D01*
X119561504Y-121997380D02*
X119466266Y-121997380D01*
X120228171Y-120997380D02*
X120894837Y-120997380D01*
X120894837Y-120997380D02*
X120466266Y-121997380D01*
%TO.C,D5*%
X76467380Y-132838094D02*
X75467380Y-132838094D01*
X75467380Y-132838094D02*
X75467380Y-132599999D01*
X75467380Y-132599999D02*
X75515000Y-132457142D01*
X75515000Y-132457142D02*
X75610238Y-132361904D01*
X75610238Y-132361904D02*
X75705476Y-132314285D01*
X75705476Y-132314285D02*
X75895952Y-132266666D01*
X75895952Y-132266666D02*
X76038809Y-132266666D01*
X76038809Y-132266666D02*
X76229285Y-132314285D01*
X76229285Y-132314285D02*
X76324523Y-132361904D01*
X76324523Y-132361904D02*
X76419761Y-132457142D01*
X76419761Y-132457142D02*
X76467380Y-132599999D01*
X76467380Y-132599999D02*
X76467380Y-132838094D01*
X75467380Y-131361904D02*
X75467380Y-131838094D01*
X75467380Y-131838094D02*
X75943571Y-131885713D01*
X75943571Y-131885713D02*
X75895952Y-131838094D01*
X75895952Y-131838094D02*
X75848333Y-131742856D01*
X75848333Y-131742856D02*
X75848333Y-131504761D01*
X75848333Y-131504761D02*
X75895952Y-131409523D01*
X75895952Y-131409523D02*
X75943571Y-131361904D01*
X75943571Y-131361904D02*
X76038809Y-131314285D01*
X76038809Y-131314285D02*
X76276904Y-131314285D01*
X76276904Y-131314285D02*
X76372142Y-131361904D01*
X76372142Y-131361904D02*
X76419761Y-131409523D01*
X76419761Y-131409523D02*
X76467380Y-131504761D01*
X76467380Y-131504761D02*
X76467380Y-131742856D01*
X76467380Y-131742856D02*
X76419761Y-131838094D01*
X76419761Y-131838094D02*
X76372142Y-131885713D01*
%TO.C,C12*%
X78872142Y-116842857D02*
X78919761Y-116890476D01*
X78919761Y-116890476D02*
X78967380Y-117033333D01*
X78967380Y-117033333D02*
X78967380Y-117128571D01*
X78967380Y-117128571D02*
X78919761Y-117271428D01*
X78919761Y-117271428D02*
X78824523Y-117366666D01*
X78824523Y-117366666D02*
X78729285Y-117414285D01*
X78729285Y-117414285D02*
X78538809Y-117461904D01*
X78538809Y-117461904D02*
X78395952Y-117461904D01*
X78395952Y-117461904D02*
X78205476Y-117414285D01*
X78205476Y-117414285D02*
X78110238Y-117366666D01*
X78110238Y-117366666D02*
X78015000Y-117271428D01*
X78015000Y-117271428D02*
X77967380Y-117128571D01*
X77967380Y-117128571D02*
X77967380Y-117033333D01*
X77967380Y-117033333D02*
X78015000Y-116890476D01*
X78015000Y-116890476D02*
X78062619Y-116842857D01*
X78967380Y-115890476D02*
X78967380Y-116461904D01*
X78967380Y-116176190D02*
X77967380Y-116176190D01*
X77967380Y-116176190D02*
X78110238Y-116271428D01*
X78110238Y-116271428D02*
X78205476Y-116366666D01*
X78205476Y-116366666D02*
X78253095Y-116461904D01*
X78062619Y-115509523D02*
X78015000Y-115461904D01*
X78015000Y-115461904D02*
X77967380Y-115366666D01*
X77967380Y-115366666D02*
X77967380Y-115128571D01*
X77967380Y-115128571D02*
X78015000Y-115033333D01*
X78015000Y-115033333D02*
X78062619Y-114985714D01*
X78062619Y-114985714D02*
X78157857Y-114938095D01*
X78157857Y-114938095D02*
X78253095Y-114938095D01*
X78253095Y-114938095D02*
X78395952Y-114985714D01*
X78395952Y-114985714D02*
X78967380Y-115557142D01*
X78967380Y-115557142D02*
X78967380Y-114938095D01*
%TO.C,C16*%
X81457142Y-121372142D02*
X81409523Y-121419761D01*
X81409523Y-121419761D02*
X81266666Y-121467380D01*
X81266666Y-121467380D02*
X81171428Y-121467380D01*
X81171428Y-121467380D02*
X81028571Y-121419761D01*
X81028571Y-121419761D02*
X80933333Y-121324523D01*
X80933333Y-121324523D02*
X80885714Y-121229285D01*
X80885714Y-121229285D02*
X80838095Y-121038809D01*
X80838095Y-121038809D02*
X80838095Y-120895952D01*
X80838095Y-120895952D02*
X80885714Y-120705476D01*
X80885714Y-120705476D02*
X80933333Y-120610238D01*
X80933333Y-120610238D02*
X81028571Y-120515000D01*
X81028571Y-120515000D02*
X81171428Y-120467380D01*
X81171428Y-120467380D02*
X81266666Y-120467380D01*
X81266666Y-120467380D02*
X81409523Y-120515000D01*
X81409523Y-120515000D02*
X81457142Y-120562619D01*
X82409523Y-121467380D02*
X81838095Y-121467380D01*
X82123809Y-121467380D02*
X82123809Y-120467380D01*
X82123809Y-120467380D02*
X82028571Y-120610238D01*
X82028571Y-120610238D02*
X81933333Y-120705476D01*
X81933333Y-120705476D02*
X81838095Y-120753095D01*
X83266666Y-120467380D02*
X83076190Y-120467380D01*
X83076190Y-120467380D02*
X82980952Y-120515000D01*
X82980952Y-120515000D02*
X82933333Y-120562619D01*
X82933333Y-120562619D02*
X82838095Y-120705476D01*
X82838095Y-120705476D02*
X82790476Y-120895952D01*
X82790476Y-120895952D02*
X82790476Y-121276904D01*
X82790476Y-121276904D02*
X82838095Y-121372142D01*
X82838095Y-121372142D02*
X82885714Y-121419761D01*
X82885714Y-121419761D02*
X82980952Y-121467380D01*
X82980952Y-121467380D02*
X83171428Y-121467380D01*
X83171428Y-121467380D02*
X83266666Y-121419761D01*
X83266666Y-121419761D02*
X83314285Y-121372142D01*
X83314285Y-121372142D02*
X83361904Y-121276904D01*
X83361904Y-121276904D02*
X83361904Y-121038809D01*
X83361904Y-121038809D02*
X83314285Y-120943571D01*
X83314285Y-120943571D02*
X83266666Y-120895952D01*
X83266666Y-120895952D02*
X83171428Y-120848333D01*
X83171428Y-120848333D02*
X82980952Y-120848333D01*
X82980952Y-120848333D02*
X82885714Y-120895952D01*
X82885714Y-120895952D02*
X82838095Y-120943571D01*
X82838095Y-120943571D02*
X82790476Y-121038809D01*
%TO.C,U2*%
X73713647Y-116317380D02*
X73713647Y-117126904D01*
X73713647Y-117126904D02*
X73761266Y-117222142D01*
X73761266Y-117222142D02*
X73808885Y-117269761D01*
X73808885Y-117269761D02*
X73904123Y-117317380D01*
X73904123Y-117317380D02*
X74094599Y-117317380D01*
X74094599Y-117317380D02*
X74189837Y-117269761D01*
X74189837Y-117269761D02*
X74237456Y-117222142D01*
X74237456Y-117222142D02*
X74285075Y-117126904D01*
X74285075Y-117126904D02*
X74285075Y-116317380D01*
X74713647Y-116412619D02*
X74761266Y-116365000D01*
X74761266Y-116365000D02*
X74856504Y-116317380D01*
X74856504Y-116317380D02*
X75094599Y-116317380D01*
X75094599Y-116317380D02*
X75189837Y-116365000D01*
X75189837Y-116365000D02*
X75237456Y-116412619D01*
X75237456Y-116412619D02*
X75285075Y-116507857D01*
X75285075Y-116507857D02*
X75285075Y-116603095D01*
X75285075Y-116603095D02*
X75237456Y-116745952D01*
X75237456Y-116745952D02*
X74666028Y-117317380D01*
X74666028Y-117317380D02*
X75285075Y-117317380D01*
%TO.C,C1*%
X96833333Y-102872142D02*
X96785714Y-102919761D01*
X96785714Y-102919761D02*
X96642857Y-102967380D01*
X96642857Y-102967380D02*
X96547619Y-102967380D01*
X96547619Y-102967380D02*
X96404762Y-102919761D01*
X96404762Y-102919761D02*
X96309524Y-102824523D01*
X96309524Y-102824523D02*
X96261905Y-102729285D01*
X96261905Y-102729285D02*
X96214286Y-102538809D01*
X96214286Y-102538809D02*
X96214286Y-102395952D01*
X96214286Y-102395952D02*
X96261905Y-102205476D01*
X96261905Y-102205476D02*
X96309524Y-102110238D01*
X96309524Y-102110238D02*
X96404762Y-102015000D01*
X96404762Y-102015000D02*
X96547619Y-101967380D01*
X96547619Y-101967380D02*
X96642857Y-101967380D01*
X96642857Y-101967380D02*
X96785714Y-102015000D01*
X96785714Y-102015000D02*
X96833333Y-102062619D01*
X97785714Y-102967380D02*
X97214286Y-102967380D01*
X97500000Y-102967380D02*
X97500000Y-101967380D01*
X97500000Y-101967380D02*
X97404762Y-102110238D01*
X97404762Y-102110238D02*
X97309524Y-102205476D01*
X97309524Y-102205476D02*
X97214286Y-102253095D01*
%TO.C,L11*%
X93567380Y-124636904D02*
X93567380Y-125113095D01*
X93567380Y-125113095D02*
X92567380Y-124988095D01*
X93567380Y-123779761D02*
X93567380Y-124351190D01*
X93567380Y-124065476D02*
X92567380Y-123940476D01*
X92567380Y-123940476D02*
X92710238Y-124053571D01*
X92710238Y-124053571D02*
X92805476Y-124160714D01*
X92805476Y-124160714D02*
X92853095Y-124261904D01*
X93567380Y-122827380D02*
X93567380Y-123398809D01*
X93567380Y-123113095D02*
X92567380Y-122988095D01*
X92567380Y-122988095D02*
X92710238Y-123101190D01*
X92710238Y-123101190D02*
X92805476Y-123208333D01*
X92805476Y-123208333D02*
X92853095Y-123309523D01*
%TO.C,L15*%
X112657142Y-130067380D02*
X112180952Y-130067380D01*
X112180952Y-130067380D02*
X112180952Y-129067380D01*
X113514285Y-130067380D02*
X112942857Y-130067380D01*
X113228571Y-130067380D02*
X113228571Y-129067380D01*
X113228571Y-129067380D02*
X113133333Y-129210238D01*
X113133333Y-129210238D02*
X113038095Y-129305476D01*
X113038095Y-129305476D02*
X112942857Y-129353095D01*
X114419047Y-129067380D02*
X113942857Y-129067380D01*
X113942857Y-129067380D02*
X113895238Y-129543571D01*
X113895238Y-129543571D02*
X113942857Y-129495952D01*
X113942857Y-129495952D02*
X114038095Y-129448333D01*
X114038095Y-129448333D02*
X114276190Y-129448333D01*
X114276190Y-129448333D02*
X114371428Y-129495952D01*
X114371428Y-129495952D02*
X114419047Y-129543571D01*
X114419047Y-129543571D02*
X114466666Y-129638809D01*
X114466666Y-129638809D02*
X114466666Y-129876904D01*
X114466666Y-129876904D02*
X114419047Y-129972142D01*
X114419047Y-129972142D02*
X114371428Y-130019761D01*
X114371428Y-130019761D02*
X114276190Y-130067380D01*
X114276190Y-130067380D02*
X114038095Y-130067380D01*
X114038095Y-130067380D02*
X113942857Y-130019761D01*
X113942857Y-130019761D02*
X113895238Y-129972142D01*
%TO.C,R4*%
X84442932Y-109916666D02*
X83966742Y-110249999D01*
X84442932Y-110488094D02*
X83442932Y-110488094D01*
X83442932Y-110488094D02*
X83442932Y-110107142D01*
X83442932Y-110107142D02*
X83490552Y-110011904D01*
X83490552Y-110011904D02*
X83538171Y-109964285D01*
X83538171Y-109964285D02*
X83633409Y-109916666D01*
X83633409Y-109916666D02*
X83776266Y-109916666D01*
X83776266Y-109916666D02*
X83871504Y-109964285D01*
X83871504Y-109964285D02*
X83919123Y-110011904D01*
X83919123Y-110011904D02*
X83966742Y-110107142D01*
X83966742Y-110107142D02*
X83966742Y-110488094D01*
X83776266Y-109059523D02*
X84442932Y-109059523D01*
X83395313Y-109297618D02*
X84109599Y-109535713D01*
X84109599Y-109535713D02*
X84109599Y-108916666D01*
%TO.C,C8*%
X100872142Y-112766666D02*
X100919761Y-112814285D01*
X100919761Y-112814285D02*
X100967380Y-112957142D01*
X100967380Y-112957142D02*
X100967380Y-113052380D01*
X100967380Y-113052380D02*
X100919761Y-113195237D01*
X100919761Y-113195237D02*
X100824523Y-113290475D01*
X100824523Y-113290475D02*
X100729285Y-113338094D01*
X100729285Y-113338094D02*
X100538809Y-113385713D01*
X100538809Y-113385713D02*
X100395952Y-113385713D01*
X100395952Y-113385713D02*
X100205476Y-113338094D01*
X100205476Y-113338094D02*
X100110238Y-113290475D01*
X100110238Y-113290475D02*
X100015000Y-113195237D01*
X100015000Y-113195237D02*
X99967380Y-113052380D01*
X99967380Y-113052380D02*
X99967380Y-112957142D01*
X99967380Y-112957142D02*
X100015000Y-112814285D01*
X100015000Y-112814285D02*
X100062619Y-112766666D01*
X100395952Y-112195237D02*
X100348333Y-112290475D01*
X100348333Y-112290475D02*
X100300714Y-112338094D01*
X100300714Y-112338094D02*
X100205476Y-112385713D01*
X100205476Y-112385713D02*
X100157857Y-112385713D01*
X100157857Y-112385713D02*
X100062619Y-112338094D01*
X100062619Y-112338094D02*
X100015000Y-112290475D01*
X100015000Y-112290475D02*
X99967380Y-112195237D01*
X99967380Y-112195237D02*
X99967380Y-112004761D01*
X99967380Y-112004761D02*
X100015000Y-111909523D01*
X100015000Y-111909523D02*
X100062619Y-111861904D01*
X100062619Y-111861904D02*
X100157857Y-111814285D01*
X100157857Y-111814285D02*
X100205476Y-111814285D01*
X100205476Y-111814285D02*
X100300714Y-111861904D01*
X100300714Y-111861904D02*
X100348333Y-111909523D01*
X100348333Y-111909523D02*
X100395952Y-112004761D01*
X100395952Y-112004761D02*
X100395952Y-112195237D01*
X100395952Y-112195237D02*
X100443571Y-112290475D01*
X100443571Y-112290475D02*
X100491190Y-112338094D01*
X100491190Y-112338094D02*
X100586428Y-112385713D01*
X100586428Y-112385713D02*
X100776904Y-112385713D01*
X100776904Y-112385713D02*
X100872142Y-112338094D01*
X100872142Y-112338094D02*
X100919761Y-112290475D01*
X100919761Y-112290475D02*
X100967380Y-112195237D01*
X100967380Y-112195237D02*
X100967380Y-112004761D01*
X100967380Y-112004761D02*
X100919761Y-111909523D01*
X100919761Y-111909523D02*
X100872142Y-111861904D01*
X100872142Y-111861904D02*
X100776904Y-111814285D01*
X100776904Y-111814285D02*
X100586428Y-111814285D01*
X100586428Y-111814285D02*
X100491190Y-111861904D01*
X100491190Y-111861904D02*
X100443571Y-111909523D01*
X100443571Y-111909523D02*
X100395952Y-112004761D01*
%TO.C,J5*%
X53742218Y-107717380D02*
X53742218Y-108431666D01*
X53742218Y-108431666D02*
X53694599Y-108574523D01*
X53694599Y-108574523D02*
X53599361Y-108669761D01*
X53599361Y-108669761D02*
X53456504Y-108717380D01*
X53456504Y-108717380D02*
X53361266Y-108717380D01*
X54694599Y-107717380D02*
X54218409Y-107717380D01*
X54218409Y-107717380D02*
X54170790Y-108193571D01*
X54170790Y-108193571D02*
X54218409Y-108145952D01*
X54218409Y-108145952D02*
X54313647Y-108098333D01*
X54313647Y-108098333D02*
X54551742Y-108098333D01*
X54551742Y-108098333D02*
X54646980Y-108145952D01*
X54646980Y-108145952D02*
X54694599Y-108193571D01*
X54694599Y-108193571D02*
X54742218Y-108288809D01*
X54742218Y-108288809D02*
X54742218Y-108526904D01*
X54742218Y-108526904D02*
X54694599Y-108622142D01*
X54694599Y-108622142D02*
X54646980Y-108669761D01*
X54646980Y-108669761D02*
X54551742Y-108717380D01*
X54551742Y-108717380D02*
X54313647Y-108717380D01*
X54313647Y-108717380D02*
X54218409Y-108669761D01*
X54218409Y-108669761D02*
X54170790Y-108622142D01*
%TO.C,U3*%
X79138095Y-121467380D02*
X79138095Y-122276904D01*
X79138095Y-122276904D02*
X79185714Y-122372142D01*
X79185714Y-122372142D02*
X79233333Y-122419761D01*
X79233333Y-122419761D02*
X79328571Y-122467380D01*
X79328571Y-122467380D02*
X79519047Y-122467380D01*
X79519047Y-122467380D02*
X79614285Y-122419761D01*
X79614285Y-122419761D02*
X79661904Y-122372142D01*
X79661904Y-122372142D02*
X79709523Y-122276904D01*
X79709523Y-122276904D02*
X79709523Y-121467380D01*
X80090476Y-121467380D02*
X80709523Y-121467380D01*
X80709523Y-121467380D02*
X80376190Y-121848333D01*
X80376190Y-121848333D02*
X80519047Y-121848333D01*
X80519047Y-121848333D02*
X80614285Y-121895952D01*
X80614285Y-121895952D02*
X80661904Y-121943571D01*
X80661904Y-121943571D02*
X80709523Y-122038809D01*
X80709523Y-122038809D02*
X80709523Y-122276904D01*
X80709523Y-122276904D02*
X80661904Y-122372142D01*
X80661904Y-122372142D02*
X80614285Y-122419761D01*
X80614285Y-122419761D02*
X80519047Y-122467380D01*
X80519047Y-122467380D02*
X80233333Y-122467380D01*
X80233333Y-122467380D02*
X80138095Y-122419761D01*
X80138095Y-122419761D02*
X80090476Y-122372142D01*
%TO.C,R17*%
X82057142Y-133067380D02*
X81723809Y-132591190D01*
X81485714Y-133067380D02*
X81485714Y-132067380D01*
X81485714Y-132067380D02*
X81866666Y-132067380D01*
X81866666Y-132067380D02*
X81961904Y-132115000D01*
X81961904Y-132115000D02*
X82009523Y-132162619D01*
X82009523Y-132162619D02*
X82057142Y-132257857D01*
X82057142Y-132257857D02*
X82057142Y-132400714D01*
X82057142Y-132400714D02*
X82009523Y-132495952D01*
X82009523Y-132495952D02*
X81961904Y-132543571D01*
X81961904Y-132543571D02*
X81866666Y-132591190D01*
X81866666Y-132591190D02*
X81485714Y-132591190D01*
X83009523Y-133067380D02*
X82438095Y-133067380D01*
X82723809Y-133067380D02*
X82723809Y-132067380D01*
X82723809Y-132067380D02*
X82628571Y-132210238D01*
X82628571Y-132210238D02*
X82533333Y-132305476D01*
X82533333Y-132305476D02*
X82438095Y-132353095D01*
X83342857Y-132067380D02*
X84009523Y-132067380D01*
X84009523Y-132067380D02*
X83580952Y-133067380D01*
%TO.C,L16*%
X100042932Y-136017857D02*
X100042932Y-136494047D01*
X100042932Y-136494047D02*
X99042932Y-136494047D01*
X100042932Y-135160714D02*
X100042932Y-135732142D01*
X100042932Y-135446428D02*
X99042932Y-135446428D01*
X99042932Y-135446428D02*
X99185790Y-135541666D01*
X99185790Y-135541666D02*
X99281028Y-135636904D01*
X99281028Y-135636904D02*
X99328647Y-135732142D01*
X99042932Y-134303571D02*
X99042932Y-134494047D01*
X99042932Y-134494047D02*
X99090552Y-134589285D01*
X99090552Y-134589285D02*
X99138171Y-134636904D01*
X99138171Y-134636904D02*
X99281028Y-134732142D01*
X99281028Y-134732142D02*
X99471504Y-134779761D01*
X99471504Y-134779761D02*
X99852456Y-134779761D01*
X99852456Y-134779761D02*
X99947694Y-134732142D01*
X99947694Y-134732142D02*
X99995313Y-134684523D01*
X99995313Y-134684523D02*
X100042932Y-134589285D01*
X100042932Y-134589285D02*
X100042932Y-134398809D01*
X100042932Y-134398809D02*
X99995313Y-134303571D01*
X99995313Y-134303571D02*
X99947694Y-134255952D01*
X99947694Y-134255952D02*
X99852456Y-134208333D01*
X99852456Y-134208333D02*
X99614361Y-134208333D01*
X99614361Y-134208333D02*
X99519123Y-134255952D01*
X99519123Y-134255952D02*
X99471504Y-134303571D01*
X99471504Y-134303571D02*
X99423885Y-134398809D01*
X99423885Y-134398809D02*
X99423885Y-134589285D01*
X99423885Y-134589285D02*
X99471504Y-134684523D01*
X99471504Y-134684523D02*
X99519123Y-134732142D01*
X99519123Y-134732142D02*
X99614361Y-134779761D01*
%TO.C,L10*%
X91263095Y-121467380D02*
X90786904Y-121467380D01*
X90786904Y-121467380D02*
X90911904Y-120467380D01*
X92120238Y-121467380D02*
X91548809Y-121467380D01*
X91834523Y-121467380D02*
X91959523Y-120467380D01*
X91959523Y-120467380D02*
X91846428Y-120610238D01*
X91846428Y-120610238D02*
X91739285Y-120705476D01*
X91739285Y-120705476D02*
X91638095Y-120753095D01*
X92864285Y-120467380D02*
X92959523Y-120467380D01*
X92959523Y-120467380D02*
X93048809Y-120515000D01*
X93048809Y-120515000D02*
X93090476Y-120562619D01*
X93090476Y-120562619D02*
X93126190Y-120657857D01*
X93126190Y-120657857D02*
X93150000Y-120848333D01*
X93150000Y-120848333D02*
X93120238Y-121086428D01*
X93120238Y-121086428D02*
X93048809Y-121276904D01*
X93048809Y-121276904D02*
X92989285Y-121372142D01*
X92989285Y-121372142D02*
X92935714Y-121419761D01*
X92935714Y-121419761D02*
X92834523Y-121467380D01*
X92834523Y-121467380D02*
X92739285Y-121467380D01*
X92739285Y-121467380D02*
X92650000Y-121419761D01*
X92650000Y-121419761D02*
X92608333Y-121372142D01*
X92608333Y-121372142D02*
X92572619Y-121276904D01*
X92572619Y-121276904D02*
X92548809Y-121086428D01*
X92548809Y-121086428D02*
X92578571Y-120848333D01*
X92578571Y-120848333D02*
X92650000Y-120657857D01*
X92650000Y-120657857D02*
X92709523Y-120562619D01*
X92709523Y-120562619D02*
X92763095Y-120515000D01*
X92763095Y-120515000D02*
X92864285Y-120467380D01*
D11*
%TO.C,J10*%
X65415552Y-133210000D02*
X65415552Y-134950000D01*
X63675552Y-133210000D02*
X65415552Y-133210000D01*
X65175552Y-133450000D02*
X65175552Y-136250000D01*
X50575552Y-133450000D02*
X65175552Y-133450000D01*
X65175552Y-139850000D02*
X65175552Y-142650000D01*
X65175552Y-142650000D02*
X63175552Y-142650000D01*
X59575552Y-142650000D02*
X50575552Y-142650000D01*
X50575552Y-142650000D02*
X50575552Y-133450000D01*
%TO.C,L1*%
X96065552Y-105612779D02*
X96065552Y-105287221D01*
X97085552Y-105612779D02*
X97085552Y-105287221D01*
%TO.C,J6*%
X59685552Y-116080000D02*
X61010552Y-116080000D01*
X61010552Y-116015000D02*
X61010552Y-116080000D01*
X61010552Y-116015000D02*
X64540552Y-116015000D01*
X61010552Y-122420000D02*
X61010552Y-122485000D01*
X61010552Y-122485000D02*
X64540552Y-122485000D01*
X64540552Y-116015000D02*
X64540552Y-116080000D01*
X64540552Y-122420000D02*
X64540552Y-122485000D01*
%TO.C,L12*%
X94265552Y-127212779D02*
X94265552Y-126887221D01*
X95285552Y-127212779D02*
X95285552Y-126887221D01*
%TO.C,C3*%
X100065552Y-105690580D02*
X100065552Y-105409420D01*
X101085552Y-105690580D02*
X101085552Y-105409420D01*
%TO.C,D2*%
X106890552Y-107915000D02*
X106890552Y-109385000D01*
X106890552Y-109385000D02*
X109175552Y-109385000D01*
X109175552Y-107915000D02*
X106890552Y-107915000D01*
%TO.C,C18*%
X103967716Y-120990000D02*
X104183388Y-120990000D01*
X103967716Y-121710000D02*
X104183388Y-121710000D01*
%TO.C,R8*%
X87895552Y-124803641D02*
X87895552Y-124496359D01*
X88655552Y-124803641D02*
X88655552Y-124496359D01*
%TO.C,L4*%
X100165552Y-110212779D02*
X100165552Y-109887221D01*
X101185552Y-110212779D02*
X101185552Y-109887221D01*
%TO.C,J4*%
X121620552Y-111730000D02*
X136980552Y-111730000D01*
X121620552Y-111730000D02*
X121620552Y-109130000D01*
X136980552Y-111730000D02*
X136980552Y-106530000D01*
X121620552Y-109130000D02*
X121620552Y-106530000D01*
X121620552Y-106530000D02*
X124220552Y-106530000D01*
X124220552Y-106530000D02*
X136980552Y-106530000D01*
%TO.C,C28*%
X70565552Y-134490580D02*
X70565552Y-134209420D01*
X71585552Y-134490580D02*
X71585552Y-134209420D01*
%TO.C,L2*%
X97565552Y-105612779D02*
X97565552Y-105287221D01*
X98585552Y-105612779D02*
X98585552Y-105287221D01*
%TO.C,J11*%
X124220552Y-144555000D02*
X136980552Y-144555000D01*
X124220552Y-144555000D02*
X124220552Y-141895000D01*
X136980552Y-144555000D02*
X136980552Y-141895000D01*
X121620552Y-143225000D02*
X121620552Y-141895000D01*
X121620552Y-141895000D02*
X122950552Y-141895000D01*
X124220552Y-141895000D02*
X136980552Y-141895000D01*
%TO.C,C27*%
X101485552Y-132109420D02*
X101485552Y-132390580D01*
X100465552Y-132109420D02*
X100465552Y-132390580D01*
%TO.C,R3*%
X110721911Y-106770000D02*
X111029193Y-106770000D01*
X110721911Y-107530000D02*
X111029193Y-107530000D01*
%TO.C,C25*%
X93915552Y-130457836D02*
X93915552Y-130242164D01*
X94635552Y-130457836D02*
X94635552Y-130242164D01*
%TO.C,C5*%
X95435552Y-111142164D02*
X95435552Y-111357836D01*
X94715552Y-111142164D02*
X94715552Y-111357836D01*
%TO.C,J9*%
X121620552Y-136730000D02*
X136980552Y-136730000D01*
X121620552Y-136730000D02*
X121620552Y-134130000D01*
X136980552Y-136730000D02*
X136980552Y-131530000D01*
X121620552Y-134130000D02*
X121620552Y-131530000D01*
X121620552Y-131530000D02*
X124220552Y-131530000D01*
X124220552Y-131530000D02*
X136980552Y-131530000D01*
%TO.C,C24*%
X91265552Y-127190580D02*
X91265552Y-126909420D01*
X92285552Y-127190580D02*
X92285552Y-126909420D01*
%TO.C,L14*%
X106112773Y-126340000D02*
X106438331Y-126340000D01*
X106112773Y-127360000D02*
X106438331Y-127360000D01*
%TO.C,C29*%
X79865552Y-134390580D02*
X79865552Y-134109420D01*
X80885552Y-134390580D02*
X80885552Y-134109420D01*
%TO.C,R7*%
X98621911Y-120470000D02*
X98929193Y-120470000D01*
X98621911Y-121230000D02*
X98929193Y-121230000D01*
%TO.C,C34*%
X54767716Y-115290000D02*
X54983388Y-115290000D01*
X54767716Y-116010000D02*
X54983388Y-116010000D01*
%TO.C,R21*%
X96055552Y-142496359D02*
X96055552Y-142803641D01*
X95295552Y-142496359D02*
X95295552Y-142803641D01*
%TO.C,J8*%
X53215552Y-128910000D02*
X73335552Y-128910000D01*
X53215552Y-128910000D02*
X53215552Y-126850000D01*
X73335552Y-128910000D02*
X73335552Y-124790000D01*
X53215552Y-126850000D02*
X55275552Y-126850000D01*
X55275552Y-126850000D02*
X55275552Y-124790000D01*
X53215552Y-125850000D02*
X53215552Y-124790000D01*
X53215552Y-124790000D02*
X54275552Y-124790000D01*
X55275552Y-124790000D02*
X73335552Y-124790000D01*
%TO.C,R13*%
X55129193Y-130530000D02*
X54821911Y-130530000D01*
X55129193Y-129770000D02*
X54821911Y-129770000D01*
%TO.C,C10*%
X72135552Y-118742164D02*
X72135552Y-118957836D01*
X71415552Y-118742164D02*
X71415552Y-118957836D01*
%TO.C,C30*%
X93583388Y-139310000D02*
X93367716Y-139310000D01*
X93583388Y-138590000D02*
X93367716Y-138590000D01*
%TO.C,R19*%
X85621911Y-136670000D02*
X85929193Y-136670000D01*
X85621911Y-137430000D02*
X85929193Y-137430000D01*
%TO.C,C17*%
X103967716Y-119990000D02*
X104183388Y-119990000D01*
X103967716Y-120710000D02*
X104183388Y-120710000D01*
%TO.C,J13*%
X82870552Y-152280000D02*
X82870552Y-150950000D01*
X84200552Y-152280000D02*
X82870552Y-152280000D01*
X85470552Y-152280000D02*
X103310552Y-152280000D01*
X85470552Y-152280000D02*
X85470552Y-149620000D01*
X103310552Y-152280000D02*
X103310552Y-149620000D01*
X85470552Y-149620000D02*
X103310552Y-149620000D01*
%TO.C,C7*%
X82216132Y-115360000D02*
X81934972Y-115360000D01*
X82216132Y-114340000D02*
X81934972Y-114340000D01*
%TO.C,U1*%
X82875552Y-105000000D02*
X81735552Y-105000000D01*
%TO.C,C9*%
X70885552Y-118434420D02*
X70885552Y-118715580D01*
X69865552Y-118434420D02*
X69865552Y-118715580D01*
%TO.C,J1*%
X114820552Y-101055000D02*
X127580552Y-101055000D01*
X114820552Y-101055000D02*
X114820552Y-98395000D01*
X127580552Y-101055000D02*
X127580552Y-98395000D01*
X112220552Y-99725000D02*
X112220552Y-98395000D01*
X112220552Y-98395000D02*
X113550552Y-98395000D01*
X114820552Y-98395000D02*
X127580552Y-98395000D01*
%TO.C,C21*%
X84398052Y-123792164D02*
X84398052Y-124007836D01*
X83678052Y-123792164D02*
X83678052Y-124007836D01*
%TO.C,J14*%
X65155552Y-145010000D02*
X61155552Y-145010000D01*
X66185552Y-145300000D02*
X60165552Y-145300000D01*
X60165552Y-145300000D02*
X60165552Y-150600000D01*
X66185552Y-145880000D02*
X65585552Y-145880000D01*
X65585552Y-145880000D02*
X65585552Y-147480000D01*
X61165552Y-146680000D02*
X61695552Y-146930000D01*
X61165552Y-146680000D02*
X61165552Y-149220000D01*
X60165552Y-146680000D02*
X61165552Y-146680000D01*
X61695552Y-146930000D02*
X61695552Y-148970000D01*
X60165552Y-146930000D02*
X61165552Y-146930000D01*
X65585552Y-147480000D02*
X66185552Y-147480000D01*
X66185552Y-148420000D02*
X65585552Y-148420000D01*
X65585552Y-148420000D02*
X65585552Y-150020000D01*
X61695552Y-148970000D02*
X61165552Y-149220000D01*
X60165552Y-148970000D02*
X61165552Y-148970000D01*
X61165552Y-149220000D02*
X60165552Y-149220000D01*
X65585552Y-150020000D02*
X66185552Y-150020000D01*
X66185552Y-150600000D02*
X66185552Y-145300000D01*
X60165552Y-150600000D02*
X66185552Y-150600000D01*
%TO.C,L6*%
X105312773Y-116840000D02*
X105638331Y-116840000D01*
X105312773Y-117860000D02*
X105638331Y-117860000D01*
%TO.C,C13*%
X88383388Y-118710000D02*
X88167716Y-118710000D01*
X88383388Y-117990000D02*
X88167716Y-117990000D01*
%TO.C,R14*%
X87555552Y-130596359D02*
X87555552Y-130903641D01*
X86795552Y-130596359D02*
X86795552Y-130903641D01*
%TO.C,C26*%
X110134972Y-127540000D02*
X110416132Y-127540000D01*
X110134972Y-128560000D02*
X110416132Y-128560000D01*
%TO.C,R20*%
X85929193Y-136430000D02*
X85621911Y-136430000D01*
X85929193Y-135670000D02*
X85621911Y-135670000D01*
%TO.C,J12*%
X114820552Y-151855000D02*
X127580552Y-151855000D01*
X114820552Y-151855000D02*
X114820552Y-149195000D01*
X127580552Y-151855000D02*
X127580552Y-149195000D01*
X112220552Y-150525000D02*
X112220552Y-149195000D01*
X112220552Y-149195000D02*
X113550552Y-149195000D01*
X114820552Y-149195000D02*
X127580552Y-149195000D01*
%TO.C,L8*%
X81912773Y-117340000D02*
X82238331Y-117340000D01*
X81912773Y-118360000D02*
X82238331Y-118360000D01*
%TO.C,D4*%
X102840552Y-129035000D02*
X104310552Y-129035000D01*
X104310552Y-129035000D02*
X104310552Y-126750000D01*
X102840552Y-126750000D02*
X102840552Y-129035000D01*
%TO.C,R10*%
X97195552Y-125703641D02*
X97195552Y-125396359D01*
X97955552Y-125703641D02*
X97955552Y-125396359D01*
%TO.C,R15*%
X85421911Y-132070000D02*
X85729193Y-132070000D01*
X85421911Y-132830000D02*
X85729193Y-132830000D01*
%TO.C,R2*%
X86095552Y-107203641D02*
X86095552Y-106896359D01*
X86855552Y-107203641D02*
X86855552Y-106896359D01*
%TO.C,R16*%
X78255552Y-134396359D02*
X78255552Y-134703641D01*
X77495552Y-134396359D02*
X77495552Y-134703641D01*
%TO.C,D3*%
X98610552Y-112765000D02*
X97140552Y-112765000D01*
X97140552Y-112765000D02*
X97140552Y-115050000D01*
X98610552Y-115050000D02*
X98610552Y-112765000D01*
%TO.C,R18*%
X85621911Y-134670000D02*
X85929193Y-134670000D01*
X85621911Y-135430000D02*
X85929193Y-135430000D01*
%TO.C,U5*%
X87675352Y-139849800D02*
X87675352Y-140109800D01*
X87675352Y-140109800D02*
X86000352Y-140109800D01*
X87675352Y-145299800D02*
X87675352Y-145039800D01*
X90400352Y-139849800D02*
X87675352Y-139849800D01*
X90400352Y-139849800D02*
X93125352Y-139849800D01*
X90400352Y-145299800D02*
X87675352Y-145299800D01*
X90400352Y-145299800D02*
X93125352Y-145299800D01*
X93125352Y-139849800D02*
X93125352Y-140109800D01*
X93125352Y-145299800D02*
X93125352Y-145039800D01*
%TO.C,C32*%
X82885552Y-135692500D02*
X82885552Y-136692500D01*
X83385552Y-136192500D02*
X82385552Y-136192500D01*
X83571115Y-136932500D02*
X81885552Y-136932500D01*
X83571115Y-136932500D02*
X84635552Y-137996937D01*
X77179989Y-136932500D02*
X78865552Y-136932500D01*
X77179989Y-136932500D02*
X76115552Y-137996937D01*
X84635552Y-137996937D02*
X84635552Y-145452500D01*
X76115552Y-137996937D02*
X76115552Y-145452500D01*
X84635552Y-145452500D02*
X81885552Y-145452500D01*
X76115552Y-145452500D02*
X78865552Y-145452500D01*
%TO.C,C14*%
X103967716Y-118490000D02*
X104183388Y-118490000D01*
X103967716Y-119210000D02*
X104183388Y-119210000D01*
%TO.C,C19*%
X78998052Y-123892164D02*
X78998052Y-124107836D01*
X78278052Y-123892164D02*
X78278052Y-124107836D01*
%TO.C,R12*%
X102755552Y-127196359D02*
X102755552Y-127503641D01*
X101995552Y-127196359D02*
X101995552Y-127503641D01*
%TO.C,C31*%
X73585552Y-135750000D02*
X73585552Y-136750000D01*
X74085552Y-136250000D02*
X73085552Y-136250000D01*
X74271115Y-136990000D02*
X72585552Y-136990000D01*
X74271115Y-136990000D02*
X75335552Y-138054437D01*
X67879989Y-136990000D02*
X69565552Y-136990000D01*
X67879989Y-136990000D02*
X66815552Y-138054437D01*
X75335552Y-138054437D02*
X75335552Y-145510000D01*
X66815552Y-138054437D02*
X66815552Y-145510000D01*
X75335552Y-145510000D02*
X72585552Y-145510000D01*
X66815552Y-145510000D02*
X69565552Y-145510000D01*
%TO.C,R5*%
X110721911Y-108270000D02*
X111029193Y-108270000D01*
X110721911Y-109030000D02*
X111029193Y-109030000D01*
%TO.C,C22*%
X85848052Y-124059420D02*
X85848052Y-124340580D01*
X84828052Y-124059420D02*
X84828052Y-124340580D01*
%TO.C,U4*%
X99825552Y-123050000D02*
X99825552Y-121910000D01*
%TO.C,R1*%
X82929193Y-104330000D02*
X82621911Y-104330000D01*
X82929193Y-103570000D02*
X82621911Y-103570000D01*
%TO.C,D6*%
X86960552Y-134485000D02*
X86960552Y-133015000D01*
X86960552Y-133015000D02*
X84675552Y-133015000D01*
X84675552Y-134485000D02*
X86960552Y-134485000D01*
%TO.C,C4*%
X87215552Y-111957836D02*
X87215552Y-111742164D01*
X87935552Y-111957836D02*
X87935552Y-111742164D01*
%TO.C,R11*%
X98195552Y-125703641D02*
X98195552Y-125396359D01*
X98955552Y-125703641D02*
X98955552Y-125396359D01*
%TO.C,R22*%
X82029193Y-148130000D02*
X81721911Y-148130000D01*
X82029193Y-147370000D02*
X81721911Y-147370000D01*
%TO.C,C11*%
X77535552Y-118742164D02*
X77535552Y-118957836D01*
X76815552Y-118742164D02*
X76815552Y-118957836D01*
%TO.C,J2*%
X64005552Y-101180000D02*
X76765552Y-101180000D01*
X64005552Y-101180000D02*
X64005552Y-98520000D01*
X76765552Y-101180000D02*
X76765552Y-98520000D01*
X61405552Y-99850000D02*
X61405552Y-98520000D01*
X61405552Y-98520000D02*
X62735552Y-98520000D01*
X64005552Y-98520000D02*
X76765552Y-98520000D01*
%TO.C,L7*%
X109812773Y-116740000D02*
X110138331Y-116740000D01*
X109812773Y-117760000D02*
X110138331Y-117760000D01*
%TO.C,L5*%
X82238331Y-116860000D02*
X81912773Y-116860000D01*
X82238331Y-115840000D02*
X81912773Y-115840000D01*
%TO.C,L13*%
X100985552Y-127387221D02*
X100985552Y-127712779D01*
X99965552Y-127387221D02*
X99965552Y-127712779D01*
%TO.C,L9*%
X85138331Y-120060000D02*
X84812773Y-120060000D01*
X85138331Y-119040000D02*
X84812773Y-119040000D01*
%TO.C,C23*%
X100867716Y-123490000D02*
X101083388Y-123490000D01*
X100867716Y-124210000D02*
X101083388Y-124210000D01*
%TO.C,C20*%
X77748052Y-124059420D02*
X77748052Y-124340580D01*
X76728052Y-124059420D02*
X76728052Y-124340580D01*
%TO.C,C15*%
X109834972Y-118240000D02*
X110116132Y-118240000D01*
X109834972Y-119260000D02*
X110116132Y-119260000D01*
%TO.C,C2*%
X84515552Y-105157836D02*
X84515552Y-104942164D01*
X85235552Y-105157836D02*
X85235552Y-104942164D01*
%TO.C,C6*%
X104215552Y-111257836D02*
X104215552Y-111042164D01*
X104935552Y-111257836D02*
X104935552Y-111042164D01*
%TO.C,L3*%
X93265552Y-110212779D02*
X93265552Y-109887221D01*
X94285552Y-110212779D02*
X94285552Y-109887221D01*
%TO.C,R9*%
X88895552Y-124803641D02*
X88895552Y-124496359D01*
X89655552Y-124803641D02*
X89655552Y-124496359D01*
%TO.C,R6*%
X96195552Y-114703641D02*
X96195552Y-114396359D01*
X96955552Y-114703641D02*
X96955552Y-114396359D01*
%TO.C,J3*%
X84220552Y-101255000D02*
X96980552Y-101255000D01*
X84220552Y-101255000D02*
X84220552Y-98595000D01*
X96980552Y-101255000D02*
X96980552Y-98595000D01*
X81620552Y-99925000D02*
X81620552Y-98595000D01*
X81620552Y-98595000D02*
X82950552Y-98595000D01*
X84220552Y-98595000D02*
X96980552Y-98595000D01*
%TO.C,D1*%
X106890552Y-106415000D02*
X106890552Y-107885000D01*
X106890552Y-107885000D02*
X109175552Y-107885000D01*
X109175552Y-106415000D02*
X106890552Y-106415000D01*
%TO.C,J7*%
X121620552Y-124230000D02*
X136980552Y-124230000D01*
X121620552Y-124230000D02*
X121620552Y-121630000D01*
X136980552Y-124230000D02*
X136980552Y-119030000D01*
X121620552Y-121630000D02*
X121620552Y-119030000D01*
X121620552Y-119030000D02*
X124220552Y-119030000D01*
X124220552Y-119030000D02*
X136980552Y-119030000D01*
%TO.C,D5*%
X75340552Y-136335000D02*
X76810552Y-136335000D01*
X76810552Y-136335000D02*
X76810552Y-134050000D01*
X75340552Y-134050000D02*
X75340552Y-136335000D01*
%TO.C,C12*%
X78985552Y-119009420D02*
X78985552Y-119290580D01*
X77965552Y-119009420D02*
X77965552Y-119290580D01*
%TO.C,C16*%
X85116132Y-121560000D02*
X84834972Y-121560000D01*
X85116132Y-120540000D02*
X84834972Y-120540000D01*
%TO.C,U2*%
X74475552Y-117790000D02*
X72675552Y-117790000D01*
X74475552Y-117790000D02*
X75275552Y-117790000D01*
X74475552Y-120910000D02*
X73675552Y-120910000D01*
X74475552Y-120910000D02*
X75275552Y-120910000D01*
%TO.C,C1*%
X94416132Y-103060000D02*
X94134972Y-103060000D01*
X94416132Y-102040000D02*
X94134972Y-102040000D01*
%TO.C,L11*%
X93785552Y-126887221D02*
X93785552Y-127212779D01*
X92765552Y-126887221D02*
X92765552Y-127212779D01*
%TO.C,L15*%
X110112773Y-129140000D02*
X110438331Y-129140000D01*
X110112773Y-130160000D02*
X110438331Y-130160000D01*
%TO.C,R4*%
X84595552Y-107903641D02*
X84595552Y-107596359D01*
X85355552Y-107903641D02*
X85355552Y-107596359D01*
%TO.C,C8*%
X98715552Y-112657836D02*
X98715552Y-112442164D01*
X99435552Y-112657836D02*
X99435552Y-112442164D01*
%TO.C,J5*%
X53215552Y-114010000D02*
X73335552Y-114010000D01*
X53215552Y-114010000D02*
X53215552Y-111950000D01*
X73335552Y-114010000D02*
X73335552Y-109890000D01*
X53215552Y-111950000D02*
X55275552Y-111950000D01*
X55275552Y-111950000D02*
X55275552Y-109890000D01*
X53215552Y-110950000D02*
X53215552Y-109890000D01*
X53215552Y-109890000D02*
X54275552Y-109890000D01*
X55275552Y-109890000D02*
X73335552Y-109890000D01*
%TO.C,U3*%
X81375552Y-122790000D02*
X79575552Y-122790000D01*
X81375552Y-122790000D02*
X82175552Y-122790000D01*
X81375552Y-125910000D02*
X80575552Y-125910000D01*
X81375552Y-125910000D02*
X82175552Y-125910000D01*
%TO.C,R17*%
X83229193Y-135430000D02*
X82921911Y-135430000D01*
X83229193Y-134670000D02*
X82921911Y-134670000D01*
%TO.C,L16*%
X99985552Y-132087221D02*
X99985552Y-132412779D01*
X98965552Y-132087221D02*
X98965552Y-132412779D01*
%TO.C,L10*%
X89138331Y-121560000D02*
X88812773Y-121560000D01*
X89138331Y-120540000D02*
X88812773Y-120540000D01*
%TD*%
M02*
