%TF.GenerationSoftware,KiCad,Pcbnew,7.0.0*%
%TF.CreationDate,2023-03-27T16:14:07-06:00*%
%TF.ProjectId,FPGA_2,46504741-5f32-42e6-9b69-6361645f7063,rev?*%
%TF.SameCoordinates,Original*%
%TF.FileFunction,Paste,Top*%
%TF.FilePolarity,Positive*%
%FSLAX46Y46*%
G04 Gerber Fmt 4.6, Leading zero omitted, Abs format (unit mm)*
G04 Created by KiCad (PCBNEW 7.0.0) date 2023-03-27 16:14:07*
%MOMM*%
%LPD*%
G01*
G04 APERTURE LIST*
G04 Aperture macros list*
%AMRoundRect*
0 Rectangle with rounded corners*
0 $1 Rounding radius*
0 $2 $3 $4 $5 $6 $7 $8 $9 X,Y pos of 4 corners*
0 Add a 4 corners polygon primitive as box body*
4,1,4,$2,$3,$4,$5,$6,$7,$8,$9,$2,$3,0*
0 Add four circle primitives for the rounded corners*
1,1,$1+$1,$2,$3*
1,1,$1+$1,$4,$5*
1,1,$1+$1,$6,$7*
1,1,$1+$1,$8,$9*
0 Add four rect primitives between the rounded corners*
20,1,$1+$1,$2,$3,$4,$5,0*
20,1,$1+$1,$4,$5,$6,$7,0*
20,1,$1+$1,$6,$7,$8,$9,0*
20,1,$1+$1,$8,$9,$2,$3,0*%
G04 Aperture macros list end*
%ADD10RoundRect,0.218750X0.256250X-0.218750X0.256250X0.218750X-0.256250X0.218750X-0.256250X-0.218750X0*%
%ADD11R,2.400000X0.740000*%
%ADD12RoundRect,0.225000X0.250000X-0.225000X0.250000X0.225000X-0.250000X0.225000X-0.250000X-0.225000X0*%
%ADD13RoundRect,0.218750X-0.218750X-0.256250X0.218750X-0.256250X0.218750X0.256250X-0.218750X0.256250X0*%
%ADD14RoundRect,0.140000X-0.140000X-0.170000X0.140000X-0.170000X0.140000X0.170000X-0.140000X0.170000X0*%
%ADD15RoundRect,0.135000X0.185000X-0.135000X0.185000X0.135000X-0.185000X0.135000X-0.185000X-0.135000X0*%
%ADD16RoundRect,0.225000X-0.250000X0.225000X-0.250000X-0.225000X0.250000X-0.225000X0.250000X0.225000X0*%
%ADD17RoundRect,0.135000X-0.135000X-0.185000X0.135000X-0.185000X0.135000X0.185000X-0.135000X0.185000X0*%
%ADD18RoundRect,0.140000X0.170000X-0.140000X0.170000X0.140000X-0.170000X0.140000X-0.170000X-0.140000X0*%
%ADD19RoundRect,0.140000X-0.170000X0.140000X-0.170000X-0.140000X0.170000X-0.140000X0.170000X0.140000X0*%
%ADD20RoundRect,0.135000X-0.185000X0.135000X-0.185000X-0.135000X0.185000X-0.135000X0.185000X0.135000X0*%
%ADD21RoundRect,0.135000X0.135000X0.185000X-0.135000X0.185000X-0.135000X-0.185000X0.135000X-0.185000X0*%
%ADD22RoundRect,0.140000X0.140000X0.170000X-0.140000X0.170000X-0.140000X-0.170000X0.140000X-0.170000X0*%
%ADD23RoundRect,0.225000X0.225000X0.250000X-0.225000X0.250000X-0.225000X-0.250000X0.225000X-0.250000X0*%
%ADD24R,0.850000X0.650000*%
%ADD25RoundRect,0.225000X-0.225000X-0.250000X0.225000X-0.250000X0.225000X0.250000X-0.225000X0.250000X0*%
%ADD26RoundRect,0.218750X-0.256250X0.218750X-0.256250X-0.218750X0.256250X-0.218750X0.256250X0.218750X0*%
%ADD27RoundRect,0.150000X-0.650000X-0.150000X0.650000X-0.150000X0.650000X0.150000X-0.650000X0.150000X0*%
%ADD28RoundRect,0.250000X-1.000000X1.500000X-1.000000X-1.500000X1.000000X-1.500000X1.000000X1.500000X0*%
%ADD29R,0.650000X0.850000*%
%ADD30RoundRect,0.218750X0.218750X0.256250X-0.218750X0.256250X-0.218750X-0.256250X0.218750X-0.256250X0*%
%ADD31RoundRect,0.150000X-0.512500X-0.150000X0.512500X-0.150000X0.512500X0.150000X-0.512500X0.150000X0*%
G04 APERTURE END LIST*
D10*
%TO.C,L1*%
X96575552Y-106237500D03*
X96575552Y-104662500D03*
%TD*%
D11*
%TO.C,J6*%
X60825551Y-116709999D03*
X64725551Y-116709999D03*
X60825551Y-117979999D03*
X64725551Y-117979999D03*
X60825551Y-119249999D03*
X64725551Y-119249999D03*
X60825551Y-120519999D03*
X64725551Y-120519999D03*
X60825551Y-121789999D03*
X64725551Y-121789999D03*
%TD*%
D10*
%TO.C,L12*%
X94775552Y-127837500D03*
X94775552Y-126262500D03*
%TD*%
D12*
%TO.C,C3*%
X100575552Y-106325000D03*
X100575552Y-104775000D03*
%TD*%
D13*
%TO.C,D2*%
X107588052Y-108650000D03*
X109163052Y-108650000D03*
%TD*%
D14*
%TO.C,C18*%
X103595552Y-121350000D03*
X104555552Y-121350000D03*
%TD*%
D15*
%TO.C,R8*%
X88275552Y-125160000D03*
X88275552Y-124140000D03*
%TD*%
D10*
%TO.C,L4*%
X100675552Y-110837500D03*
X100675552Y-109262500D03*
%TD*%
D12*
%TO.C,C28*%
X71075552Y-135125000D03*
X71075552Y-133575000D03*
%TD*%
D10*
%TO.C,L2*%
X98075552Y-106237500D03*
X98075552Y-104662500D03*
%TD*%
D16*
%TO.C,C27*%
X100975552Y-131475000D03*
X100975552Y-133025000D03*
%TD*%
D17*
%TO.C,R3*%
X110365552Y-107150000D03*
X111385552Y-107150000D03*
%TD*%
D18*
%TO.C,C25*%
X94275552Y-130830000D03*
X94275552Y-129870000D03*
%TD*%
D19*
%TO.C,C5*%
X95075552Y-110770000D03*
X95075552Y-111730000D03*
%TD*%
D12*
%TO.C,C24*%
X91775552Y-127825000D03*
X91775552Y-126275000D03*
%TD*%
D13*
%TO.C,L14*%
X105488052Y-126850000D03*
X107063052Y-126850000D03*
%TD*%
D12*
%TO.C,C29*%
X80375552Y-135025000D03*
X80375552Y-133475000D03*
%TD*%
D17*
%TO.C,R7*%
X98265552Y-120850000D03*
X99285552Y-120850000D03*
%TD*%
D14*
%TO.C,C34*%
X54395552Y-115650000D03*
X55355552Y-115650000D03*
%TD*%
D20*
%TO.C,R21*%
X95675552Y-142140000D03*
X95675552Y-143160000D03*
%TD*%
D21*
%TO.C,R13*%
X55485552Y-130150000D03*
X54465552Y-130150000D03*
%TD*%
D19*
%TO.C,C10*%
X71775552Y-118370000D03*
X71775552Y-119330000D03*
%TD*%
D22*
%TO.C,C30*%
X93955552Y-138950000D03*
X92995552Y-138950000D03*
%TD*%
D17*
%TO.C,R19*%
X85265552Y-137050000D03*
X86285552Y-137050000D03*
%TD*%
D14*
%TO.C,C17*%
X103595552Y-120350000D03*
X104555552Y-120350000D03*
%TD*%
D23*
%TO.C,C7*%
X82850552Y-114850000D03*
X81300552Y-114850000D03*
%TD*%
D24*
%TO.C,U1*%
X82100551Y-105524999D03*
X82100551Y-107174999D03*
X83650551Y-107174999D03*
X83650551Y-105524999D03*
%TD*%
D16*
%TO.C,C9*%
X70375552Y-117800000D03*
X70375552Y-119350000D03*
%TD*%
D19*
%TO.C,C21*%
X84038052Y-123420000D03*
X84038052Y-124380000D03*
%TD*%
D13*
%TO.C,L6*%
X104688052Y-117350000D03*
X106263052Y-117350000D03*
%TD*%
D22*
%TO.C,C13*%
X88755552Y-118350000D03*
X87795552Y-118350000D03*
%TD*%
D20*
%TO.C,R14*%
X87175552Y-130240000D03*
X87175552Y-131260000D03*
%TD*%
D25*
%TO.C,C26*%
X109500552Y-128050000D03*
X111050552Y-128050000D03*
%TD*%
D21*
%TO.C,R20*%
X86285552Y-136050000D03*
X85265552Y-136050000D03*
%TD*%
D13*
%TO.C,L8*%
X81288052Y-117850000D03*
X82863052Y-117850000D03*
%TD*%
D10*
%TO.C,D4*%
X103575552Y-128337500D03*
X103575552Y-126762500D03*
%TD*%
D15*
%TO.C,R10*%
X97575552Y-126060000D03*
X97575552Y-125040000D03*
%TD*%
D17*
%TO.C,R15*%
X85065552Y-132450000D03*
X86085552Y-132450000D03*
%TD*%
D15*
%TO.C,R2*%
X86475552Y-107560000D03*
X86475552Y-106540000D03*
%TD*%
D20*
%TO.C,R16*%
X77875552Y-134040000D03*
X77875552Y-135060000D03*
%TD*%
D26*
%TO.C,D3*%
X97875552Y-113462500D03*
X97875552Y-115037500D03*
%TD*%
D17*
%TO.C,R18*%
X85265552Y-135050000D03*
X86285552Y-135050000D03*
%TD*%
D27*
%TO.C,U5*%
X86800352Y-140669800D03*
X86800352Y-141939800D03*
X86800352Y-143209800D03*
X86800352Y-144479800D03*
X94000352Y-144479800D03*
X94000352Y-143209800D03*
X94000352Y-141939800D03*
X94000352Y-140669800D03*
%TD*%
D28*
%TO.C,C32*%
X80375552Y-137942500D03*
X80375552Y-144442500D03*
%TD*%
D14*
%TO.C,C14*%
X103595552Y-118850000D03*
X104555552Y-118850000D03*
%TD*%
D19*
%TO.C,C19*%
X78638052Y-123520000D03*
X78638052Y-124480000D03*
%TD*%
D20*
%TO.C,R12*%
X102375552Y-126840000D03*
X102375552Y-127860000D03*
%TD*%
D28*
%TO.C,C31*%
X71075552Y-138000000D03*
X71075552Y-144500000D03*
%TD*%
D17*
%TO.C,R5*%
X110365552Y-108650000D03*
X111385552Y-108650000D03*
%TD*%
D16*
%TO.C,C22*%
X85338052Y-123425000D03*
X85338052Y-124975000D03*
%TD*%
D29*
%TO.C,U4*%
X99300551Y-122274999D03*
X97650551Y-122274999D03*
X97650551Y-123824999D03*
X99300551Y-123824999D03*
%TD*%
D21*
%TO.C,R1*%
X83285552Y-103950000D03*
X82265552Y-103950000D03*
%TD*%
D30*
%TO.C,D6*%
X86263052Y-133750000D03*
X84688052Y-133750000D03*
%TD*%
D18*
%TO.C,C4*%
X87575552Y-112330000D03*
X87575552Y-111370000D03*
%TD*%
D15*
%TO.C,R11*%
X98575552Y-126060000D03*
X98575552Y-125040000D03*
%TD*%
D21*
%TO.C,R22*%
X82385552Y-147750000D03*
X81365552Y-147750000D03*
%TD*%
D19*
%TO.C,C11*%
X77175552Y-118370000D03*
X77175552Y-119330000D03*
%TD*%
D13*
%TO.C,L7*%
X109188052Y-117250000D03*
X110763052Y-117250000D03*
%TD*%
D30*
%TO.C,L5*%
X82863052Y-116350000D03*
X81288052Y-116350000D03*
%TD*%
D26*
%TO.C,L13*%
X100475552Y-126762500D03*
X100475552Y-128337500D03*
%TD*%
D30*
%TO.C,L9*%
X85763052Y-119550000D03*
X84188052Y-119550000D03*
%TD*%
D14*
%TO.C,C23*%
X100495552Y-123850000D03*
X101455552Y-123850000D03*
%TD*%
D16*
%TO.C,C20*%
X77238052Y-123425000D03*
X77238052Y-124975000D03*
%TD*%
D25*
%TO.C,C15*%
X109200552Y-118750000D03*
X110750552Y-118750000D03*
%TD*%
D18*
%TO.C,C2*%
X84875552Y-105530000D03*
X84875552Y-104570000D03*
%TD*%
%TO.C,C6*%
X104575552Y-111630000D03*
X104575552Y-110670000D03*
%TD*%
D10*
%TO.C,L3*%
X93775552Y-110837500D03*
X93775552Y-109262500D03*
%TD*%
D15*
%TO.C,R9*%
X89275552Y-125160000D03*
X89275552Y-124140000D03*
%TD*%
%TO.C,R6*%
X96575552Y-115060000D03*
X96575552Y-114040000D03*
%TD*%
D13*
%TO.C,D1*%
X107588052Y-107150000D03*
X109163052Y-107150000D03*
%TD*%
D10*
%TO.C,D5*%
X76075552Y-135637500D03*
X76075552Y-134062500D03*
%TD*%
D16*
%TO.C,C12*%
X78475552Y-118375000D03*
X78475552Y-119925000D03*
%TD*%
D23*
%TO.C,C16*%
X85750552Y-121050000D03*
X84200552Y-121050000D03*
%TD*%
D31*
%TO.C,U2*%
X73338052Y-118400000D03*
X73338052Y-119350000D03*
X73338052Y-120300000D03*
X75613052Y-120300000D03*
X75613052Y-118400000D03*
%TD*%
D23*
%TO.C,C1*%
X95050552Y-102550000D03*
X93500552Y-102550000D03*
%TD*%
D26*
%TO.C,L11*%
X93275552Y-126262500D03*
X93275552Y-127837500D03*
%TD*%
D13*
%TO.C,L15*%
X109488052Y-129650000D03*
X111063052Y-129650000D03*
%TD*%
D15*
%TO.C,R4*%
X84975552Y-108260000D03*
X84975552Y-107240000D03*
%TD*%
D18*
%TO.C,C8*%
X99075552Y-113030000D03*
X99075552Y-112070000D03*
%TD*%
D31*
%TO.C,U3*%
X80238052Y-123400000D03*
X80238052Y-124350000D03*
X80238052Y-125300000D03*
X82513052Y-125300000D03*
X82513052Y-123400000D03*
%TD*%
D21*
%TO.C,R17*%
X83585552Y-135050000D03*
X82565552Y-135050000D03*
%TD*%
D26*
%TO.C,L16*%
X99475552Y-131462500D03*
X99475552Y-133037500D03*
%TD*%
D30*
%TO.C,L10*%
X89763052Y-121050000D03*
X88188052Y-121050000D03*
%TD*%
M02*
